<svg  viewBox="0 0 46 77" fill="none" xmlns="http://www.w3.org/2000/svg">
<path d="M44.342 76.224C44.1934 76.2239 44.0462 76.1957 43.908 76.141L23.088 67.897L2.26801 76.133C2.08959 76.2037 1.89659 76.2297 1.70581 76.2088C1.51502 76.1879 1.33223 76.1208 1.17333 76.0131C1.01443 75.9055 0.884241 75.7606 0.794082 75.5912C0.703922 75.4218 0.656525 75.2329 0.656014 75.041V62.422C0.655116 62.185 0.725738 61.9532 0.858651 61.7569C0.991564 61.5607 1.18059 61.4091 1.40101 61.322L22.656 52.916C22.9344 52.8054 23.2446 52.8054 23.523 52.916L44.776 61.333C44.9962 61.4204 45.1849 61.5721 45.3176 61.7683C45.4503 61.9645 45.5209 62.1961 45.52 62.433V75.051C45.52 75.3637 45.3958 75.6635 45.1747 75.8846C44.9536 76.1058 44.6537 76.23 44.341 76.23L44.342 76.224ZM23.088 65.451C23.2366 65.4509 23.3839 65.4791 23.522 65.534L43.163 73.311V63.228L23.088 55.279L3.01301 63.224V73.307L22.656 65.533C22.7941 65.4781 22.9414 65.4499 23.09 65.45" fill="#FF5500"/>
<path d="M44.342 49.9105C44.1935 49.9108 44.0462 49.883 43.908 49.8285L23.088 41.5845L2.26801 49.8245C2.0892 49.8954 1.89575 49.9214 1.70456 49.9002C1.51338 49.8791 1.33028 49.8115 1.17126 49.7032C1.01225 49.595 0.882145 49.4495 0.792328 49.2794C0.702511 49.1093 0.65571 48.9198 0.656014 48.7275V36.1095C0.655116 35.8725 0.725738 35.6407 0.858651 35.4445C0.991564 35.2482 1.18059 35.0966 1.40101 35.0095L22.656 26.6025C22.9344 26.4919 23.2446 26.4919 23.523 26.6025L44.776 35.0175C44.9962 35.1049 45.1849 35.2566 45.3176 35.4528C45.4503 35.649 45.5209 35.8806 45.52 36.1175V48.7315C45.52 49.0442 45.3958 49.3441 45.1747 49.5652C44.9536 49.7863 44.6537 49.9105 44.341 49.9105H44.342ZM23.088 39.1375C23.2366 39.1374 23.3839 39.1656 23.522 39.2205L43.163 46.9975V36.9145L23.088 28.9705L3.01301 36.9105V46.9945L22.656 39.2205C22.7941 39.1656 22.9414 39.1375 23.09 39.1375" fill="#FF5500"/>
<path d="M44.342 23.598C44.1934 23.598 44.0461 23.5698 43.908 23.515L23.088 15.271L2.26801 23.507C2.08959 23.5777 1.89659 23.6038 1.70581 23.5829C1.51502 23.562 1.33223 23.4948 1.17333 23.3871C1.01443 23.2795 0.884241 23.1347 0.794082 22.9652C0.703922 22.7958 0.656525 22.6069 0.656014 22.415V9.796C0.655116 9.55898 0.725738 9.3272 0.858651 9.13095C0.991564 8.93471 1.18059 8.78312 1.40101 8.696L22.656 0.289998C22.9344 0.179376 23.2446 0.179376 23.523 0.289998L44.776 8.707C44.9962 8.79439 45.1849 8.94608 45.3176 9.14229C45.4503 9.33849 45.5209 9.57013 45.52 9.807V22.419C45.52 22.7317 45.3958 23.0316 45.1747 23.2527C44.9536 23.4738 44.6537 23.598 44.341 23.598H44.342ZM23.088 12.825C23.2366 12.8249 23.3839 12.8531 23.522 12.908L43.163 20.685V10.602L23.088 2.653L3.01301 10.598V20.682L22.656 12.907C22.7941 12.8521 22.9414 12.824 23.09 12.824" fill="#FF5500"/>
</svg>
