<svg viewBox="0 0 80 76" fill="none" xmlns="http://www.w3.org/2000/svg">
<path d="M13.7529 28.3008H38.5409" stroke="#FF5500" stroke-width="2" stroke-miterlimit="10"/>
<path d="M0.532959 41.5215H25.321" stroke="#FF5500" stroke-width="2" stroke-miterlimit="10"/>
<path d="M8.7959 54.7412H33.5839" stroke="#FF5500" stroke-width="2" stroke-miterlimit="10"/>
<path d="M46.804 8.47035H40.194V1.86035H56.72V8.47035H50.11" stroke="#FF5500" stroke-width="2" stroke-miterlimit="10"/>
<path d="M51.7619 11.7754V15.2754C59.3201 16.1154 66.2694 19.8188 71.1814 25.6243C76.0934 31.4299 78.5949 38.8965 78.1717 46.4894C77.7485 54.0823 74.4328 61.2247 68.9061 66.4485C63.3794 71.6722 56.0617 74.5805 48.4569 74.5754H23.6689" stroke="#FF5500" stroke-width="2" stroke-miterlimit="10"/>
<path d="M22.687 59.6973C24.6314 63.0552 27.2107 66.0026 30.281 68.3753" stroke="#FF5500" stroke-width="2" stroke-miterlimit="10"/>
<path d="M18.756 46.4795C18.9051 49.2551 19.4437 51.9959 20.356 54.6215" stroke="#FF5500" stroke-width="2" stroke-miterlimit="10"/>
<path d="M21.0459 33.2588C19.9318 35.8943 19.2066 38.6777 18.8929 41.5218" stroke="#FF5500" stroke-width="2" stroke-miterlimit="10"/>
<path d="M45.1519 11.7754V15.2754C40.8305 15.7577 36.6674 17.1815 32.9557 19.4465C29.244 21.7116 26.074 24.7628 23.6689 28.3854" stroke="#FF5500" stroke-width="2" stroke-miterlimit="10"/>
<path d="M48.457 49.7842C51.1953 49.7842 53.415 47.5644 53.415 44.8262C53.415 42.0879 51.1953 39.8682 48.457 39.8682C45.7188 39.8682 43.499 42.0879 43.499 44.8262C43.499 47.5644 45.7188 49.7842 48.457 49.7842Z" stroke="#FF5500" stroke-width="2" stroke-miterlimit="10"/>
<path d="M51.762 41.5208L64.982 28.3008" stroke="#FF5500" stroke-width="2" stroke-miterlimit="10"/>
<path d="M76.551 20.0381L71.593 15.0801" stroke="#FF5500" stroke-width="2" stroke-miterlimit="10"/>
<path d="M68.288 23.3437L73.246 18.3857" stroke="#FF5500" stroke-width="2" stroke-miterlimit="10"/>
<path d="M68.4979 33.2578C70.5255 36.7755 71.5919 40.7647 71.5901 44.8249C71.5884 48.8851 70.5184 52.8734 68.4878 56.3893C66.4572 59.9053 63.5373 62.8251 60.0214 64.8557C56.5054 66.8862 52.5171 67.9561 48.4569 67.9578H41.8469" stroke="#FF5500" stroke-width="2" stroke-miterlimit="10"/>
<path d="M20.364 74.5723H17.059" stroke="#FF5500" stroke-width="2" stroke-miterlimit="10"/>
</svg>
