<svg viewBox="0 0 83 78" fill="none" xmlns="http://www.w3.org/2000/svg">
<path d="M81.364 34.7432V57.4432C81.3638 59.001 81.0132 60.5388 80.3381 61.9426C79.663 63.3465 78.6807 64.5805 77.464 65.5532L64.054 76.2892L50.643 65.5583C49.4261 64.5857 48.4436 63.3518 47.7685 61.9479C47.0933 60.5439 46.7429 59.0061 46.743 57.4482V34.7482L64.054 31.2812L81.364 34.7432Z" stroke="#FF5500" stroke-width="2" stroke-miterlimit="10"/>
<path d="M74.44 46.8613L64.053 57.2473L57.129 50.3233" stroke="#FF5500" stroke-width="2" stroke-miterlimit="10"/>
<path d="M57.7519 11.375C51.608 17.4861 43.2906 20.9103 34.6249 20.896C25.9593 20.9103 17.6419 17.4861 11.4979 11.375" stroke="#FF5500" stroke-width="2" stroke-miterlimit="10"/>
<path d="M1.73499 34.7432H41.55" stroke="#FF5500" stroke-width="2" stroke-miterlimit="10"/>
<path d="M34.6259 67.6345C34.3312 67.6401 34.0363 67.6285 33.7429 67.5995C27.5799 66.9935 22.2659 60.2775 19.4619 50.5655C18.0081 45.4183 17.2853 40.0921 17.3149 34.7435C17.2725 28.8673 18.1498 23.0205 19.9149 17.4155C22.9759 8.06852 28.4149 1.85352 34.6259 1.85352C40.8369 1.85352 46.2759 8.06852 49.3259 17.4155C50.4749 21.0121 51.2408 24.72 51.6109 28.4775" stroke="#FF5500" stroke-width="2" stroke-miterlimit="10"/>
<path d="M10.667 57.2474C13.7343 53.9652 17.4442 51.3494 21.5658 49.5627C25.6875 47.7759 30.1327 46.8564 34.625 46.8614C36.9541 46.8581 39.2763 47.1137 41.549 47.6234" stroke="#FF5500" stroke-width="2" stroke-miterlimit="10"/>
<path d="M66.442 26.4695C64.6372 19.5216 60.6075 13.3556 54.9685 8.91342C49.3295 4.47128 42.3913 1.99733 35.214 1.86952C35.023 1.85352 34.816 1.85352 34.625 1.85352C34.434 1.85352 34.225 1.85352 34.036 1.87052C27.6701 1.97883 21.4727 3.93418 16.1973 7.49885C10.9219 11.0635 6.79572 16.084 4.32031 21.9499C1.8449 27.8158 1.12692 34.2745 2.25364 40.5409C3.38035 46.8072 6.30325 52.6113 10.667 57.2475C13.6301 60.4226 17.1976 62.9739 21.1601 64.7516C25.1225 66.5292 29.4002 67.4975 33.742 67.5995C34.0354 67.6285 34.3302 67.6401 34.625 67.6345C37.8764 67.6326 41.1091 67.1425 44.215 66.1805" stroke="#FF5500" stroke-width="2" stroke-miterlimit="10"/>
</svg>
