<svg width="1920" height="844" viewBox="0 0 1920 844" fill="none" xmlns="http://www.w3.org/2000/svg" preserveAspectRatio="none">
<mask id="mask0_4_6181" style="mask-type:alpha" maskUnits="userSpaceOnUse" x="0" y="0" width="1920" height="844">
<rect width="1920" height="843.956" fill="#C4C4C4"/>
</mask>
<g mask="url(#mask0_4_6181)">
<path d="M-121.957 461.39C-20.6525 449.933 81.3905 488.695 173.203 524.847C252.421 555.942 328.93 594.751 409.893 622.06C481.301 646.161 587.015 642.683 652.798 601.576C699.077 572.82 696.947 530.639 701.654 483.196C707.594 424.708 735.393 377.815 796.095 359.928C858.497 341.549 928.528 348.649 992.77 346.953C1060.02 345.087 1132.23 344.294 1196.38 322.13C1251.13 303.308 1296.84 261.484 1338.22 223.049C1391.41 173.343 1441.14 120.587 1492.86 69.3201C1601.15 -38.1931 1730.01 -163.012 1895.83 -152.687L1890.18 -192.858C1722.86 -210.306 1591.9 -84.1783 1482.69 23.9688C1429.88 76.4013 1379.12 130.821 1325.14 182.154C1279.61 225.218 1230.35 270.575 1169.67 292.253C1102.76 316.323 1028.74 322.176 958.078 326.795C893.9 330.758 823.407 325.745 761.886 346.781C700.857 367.749 675.779 417.8 671.783 477.532C668.563 522.995 675.197 564.796 629.453 591.96C565.979 629.707 461.686 630.71 394.243 607.821C311.442 580.012 232.773 540.241 152.037 507.338C70.1991 473.829 -32.9142 425.611 -124.592 439.001L-121.957 461.39Z" fill="#FF5500"/>
<path d="M-115.508 507.263C82.5861 477.4 258.903 587.651 437.634 648.505C516.225 675.137 627.005 669.935 698.327 623.246C745.354 592.615 751.649 549.248 760.015 499.017C769.136 443.369 800.078 400.838 858.258 386.593C982.978 356.423 1118.77 410.415 1242.69 372.771C1295.07 356.812 1341.24 312.9 1380.27 277.576C1431.66 231.161 1479.75 181.161 1529.93 133.393C1634.03 33.8013 1752.87 -74.1853 1906.77 -74.8266L1900.77 -117.477C1743.58 -122.189 1621.83 -9.74812 1517.31 92.1791C1465.92 142.136 1416.58 194.08 1364.06 243.184C1320.69 283.669 1272.11 330.196 1213.39 347.805C1087.2 385.516 950.717 339.205 824.892 372.313C765.647 387.973 735.516 432.665 728.125 489.84C721.853 538.766 720.265 581.471 673.668 611.536C606.641 654.587 499.683 660.01 426.008 635.973C250.315 578.737 75.1925 457.194 -119.243 482.496L-115.759 507.29L-115.508 507.263Z" fill="#FF5500"/>
<path d="M-108.642 556.112C18.5076 532.425 143.351 557.109 263.627 597.858C345.65 625.524 426.676 671.284 512.66 685.751C624.06 704.737 783.201 674.785 814.292 550.557C822.691 516.757 825.104 483.545 848.434 455.233C869.811 429.218 900.579 416.043 933.737 410.877C1010.43 398.834 1093.23 412.231 1169.89 417.894C1210.99 420.714 1259.04 424.329 1298.52 410.184C1363.28 386.924 1418.65 331.098 1467.72 286.265C1595.97 169.63 1731.17 17.8763 1918.03 7.03897L1911.79 -37.3474C1719.7 -31.3388 1580.44 131.101 1452.36 252.523C1401.04 301.211 1345.46 359.085 1278.39 387.481C1238.52 404.212 1188.98 402.576 1146.52 400.958C1067.95 397.84 985.007 385.222 906.614 395.987C872.608 400.513 840.425 412.623 817.809 438.812C791.498 469.313 790.496 505.36 783.294 542.279C760.072 663.125 597.432 689.775 494.276 671.907C408.261 657.192 326.77 609.981 245.568 580.934C131.349 540.091 10.4846 509.539 -112.055 530.048L-108.642 556.112Z" fill="#FF5500"/>
<path d="M-101.568 606.45C32.393 577.254 164.665 590.021 294.753 628.633C377.635 653.397 457.641 695.511 543.268 711.033C660.824 732.437 831.686 703.118 873.909 573.533C885.358 538.04 889.187 504.123 916.238 475.288C939.133 451.082 969.367 439.501 1002.06 434.653C1072.66 424.225 1148.36 435.587 1218.42 442.934C1257.68 447.025 1302.43 452.367 1340.95 442.149C1400.73 426.667 1454.38 378.416 1500.39 340.594C1628.04 235.925 1755.11 107.311 1929.48 90.3906L1923.18 45.5083C1741.09 59.7203 1609.35 201.886 1480.69 313.781C1433.14 355.106 1378.2 408.596 1315.55 427.01C1276.22 438.608 1230.05 433.97 1189.83 430.266C1118.1 423.659 1041.39 412.188 969.123 421.585C935.861 426.007 904.563 437.234 881.492 461.969C854.472 491.05 851.743 525.573 841.638 561.635C806.754 687.66 640.425 716.852 528.244 697.723C442.264 683.256 361.444 638.984 278.815 612.415C153.552 572.113 24.9009 552.77 -106.185 579.025L-102.317 606.549L-101.568 606.45Z" fill="#FF5500"/>
<path d="M-94.9116 653.811C46.5666 620.525 187.316 622.24 327.336 658.955C409.019 680.601 486.238 719.057 569.064 736.242C703.993 764.312 868.349 730.087 928.716 594.665C958.151 528.829 979.946 475.192 1059.87 459.155C1134.17 444.416 1214.17 457.7 1288.2 466.26C1322.64 470.269 1360.24 475.1 1394.57 469.263C1448.42 460.178 1498.34 421.3 1540.75 390.306C1664.59 299.825 1782.08 193.042 1941.03 170.704L1934.96 127.557C1766.78 147.148 1643.91 266.067 1517.19 364.793C1472.96 399.078 1420.55 443.614 1363.26 455.206C1328.83 462.069 1290.31 457.873 1255.4 454.183C1180.74 446.469 1100.62 432.442 1025.7 446.26C944.354 461.232 924.89 515.3 898.675 582.452C846.352 715.733 680.654 747.618 552.661 722.113C469.691 705.706 392.051 666.044 310.654 642.841C175.819 604.643 39.2145 597.043 -98.539 628.03L-94.9116 653.811Z" fill="#FF5500"/>
<path d="M-88.1836 701.675C59.3233 664.509 208.645 654.649 357.481 688.096C439.986 706.593 516.608 742.603 598.652 761.417C746.494 795.005 908.204 756.347 984.511 617.417C1019.11 554.143 1045.65 500.093 1123.42 481.324C1197.05 463.642 1276.38 475.756 1350.02 485.13C1383.76 489.492 1420.12 494.497 1454.26 490.962C1502.08 485.759 1545.88 459.121 1585.66 434.57C1703.61 361.603 1811.57 276.894 1952.07 251.08L1945.97 207.685C1795.38 231.884 1682.23 328.196 1560.86 411C1519.57 439.307 1472.37 472.239 1421.32 479.666C1387.13 484.724 1349.97 479.325 1316.01 475.248C1242.16 466.156 1162.48 453.333 1088.61 469.283C1009.85 486.421 985.818 540.371 954.158 604.749C886.455 741.959 723.125 778.064 582.534 747.503C500.098 729.503 423.054 692.287 341.084 672.2C197.035 636.814 52.432 640.701 -92.09 675.678L-88.1836 701.675Z" fill="#FF5500"/>
<path d="M-81.4938 749.278C73.3519 708.551 232.294 687.984 390.519 718.089C471.332 733.535 545.447 766.106 624.654 786.33C705.95 807.019 793.159 812.21 872.455 780.837C939.764 754.183 1002.28 700.64 1040.91 640.844C1078.9 581.897 1109.2 527.573 1182.55 506.137C1255.16 484.807 1334.56 495.646 1407.84 506.083C1441.65 510.94 1476.27 516.189 1510.59 515.665C1552.48 515.088 1590.83 500.089 1627.99 481.972C1739.97 427.798 1840.52 360.564 1963.61 331.38L1957.55 288.232C1824.34 315.552 1719.8 392.195 1603.96 456.772C1565.28 478.392 1523.94 499.125 1478.78 501.674C1444.43 503.721 1408.81 498.611 1375.04 494.001C1301.58 484.096 1221.36 472.865 1148.62 493.204C1074.13 513.787 1046.88 568.189 1011.15 628.841C927.608 770.302 762.001 810.018 608.536 772.41C529.184 752.965 454.648 719.19 374.158 702.433C220.682 670.142 66.4975 684.985 -85.0501 723.983L-81.4938 749.278Z" fill="#FF5500"/>
<path d="M-74.6653 797.88C84.7503 753.729 251.302 722.484 416.551 746.798C499.954 759.099 575.241 791 656.04 811.757C738.963 833.228 827.547 841.008 909.669 809.996C984.348 781.8 1050.31 723.979 1097.2 661.76C1139.85 605.446 1175.39 550.631 1247.83 528.065C1318.59 506.235 1394.92 516.749 1466.14 528.738C1535.84 540.689 1600.34 549.83 1669.16 528.526C1773.6 496.149 1869.9 443.673 1975.29 412.679L1968.98 367.796C1854.85 397.744 1757.26 457.228 1649.5 501.958C1577.58 531.789 1513.53 527.643 1438.06 515.997C1365.41 504.713 1287.57 494.16 1215.38 514.925C1141.04 536.499 1106.96 590.851 1065.92 649.72C1022.54 711.7 959.132 767.897 886.863 795.248C807.86 825.064 722.53 818.849 642.083 798.8C560.821 778.359 485.079 745.006 401.679 730.934C240.544 703.513 78.4739 728.819 -78.1797 771.065L-74.6653 797.88Z" fill="#FF5500"/>
<path d="M-67.6247 847.969C96.9027 800.571 270.66 759.461 443.043 776.958C529.5 785.795 605.495 817.342 688.383 838.566C773.075 860.043 863.214 869.878 947.424 839.331C1028.27 810.015 1102.56 746.725 1157 682.433C1201.84 629.097 1241.31 575.254 1312.36 553.64C1375.9 534.342 1443.94 543.493 1507.12 557.624C1571.86 572.043 1638.46 592.521 1705.55 584.104C1802.47 572 1896.19 530.002 1986.5 496.069L1980.26 451.683C1882.1 483.686 1786.34 531.026 1685.08 553.603C1618.89 568.468 1554.51 554.759 1489.27 542.18C1419.61 528.707 1344.77 517.984 1275.35 540.384C1204.72 563.206 1167.87 617.693 1124.41 671.846C1074.26 734.271 1006.28 793.893 929.685 822.863C845.153 854.72 753.916 846.048 668.581 823.652C587.994 802.61 513.344 771.633 429.688 761.138C260.819 739.86 90.6506 775.913 -71.5716 821.723L-67.8776 848.007L-67.6247 847.969Z" fill="#FF5500"/>
<path d="M-60.9669 895.331C109.02 845.396 289.275 796.547 468.509 807.011C554.161 811.915 628.215 840.449 709.472 862.661C802.302 888.049 903.52 899.363 995.533 863.168C1080.35 829.754 1152.78 762.174 1214.58 698.112C1259.38 651.612 1303.26 602.204 1367.75 582.519C1432.99 562.73 1500.21 576.8 1562.95 596.81C1621.2 615.427 1680.88 642.44 1742.81 645.874C1832.78 650.929 1919.44 614.473 1998.22 575.84L1992.22 533.189C1907.47 568.87 1816.59 607.688 1723.3 611.442C1658.7 614.198 1595.19 590.506 1533.5 574.395C1468.38 557.249 1398.26 545.864 1332.62 568.237C1267.45 590.293 1227.14 641.725 1183.12 690.142C1126.35 752.238 1057.79 814.97 978.111 847.157C887.904 883.604 789.616 873.395 697.958 849.106C615.744 827.281 540.987 797.331 454.807 790.477C279.369 776.445 102.843 821.23 -64.2736 870.004L-60.9669 895.331Z" fill="#FF5500"/>
<path d="M-54.835 938.974C177.308 870.696 438.301 791.785 676.839 869.775C828.434 919.272 983.673 938.925 1120.2 839.831C1216.33 769.931 1291.74 655.154 1408.83 615.687C1509.51 581.813 1606.77 636.923 1693.93 679.546C1731.68 698.011 1770.3 715.593 1813.19 718.417C1885.2 723.467 1950.94 689.195 2008.81 651.224L2003.24 611.549C1941.12 646.325 1873.9 677.265 1801.06 678.904C1754.42 679.895 1713.37 666.7 1671.27 649.607C1581.44 613.176 1478.01 564.497 1379.69 600.816C1334.5 617.535 1296.47 649.177 1262.61 681.757C1208.66 733.337 1155.31 789.132 1093.56 831.948C958.073 925.837 807.411 902.761 659.849 854.977C424.565 778.554 172.198 848.664 -57.7486 916.382L-54.835 938.974Z" fill="#FF5500"/>
</g>
</svg>
