<?xml version="1.0" encoding="utf-8"?>
<!-- Generator: Adobe Illustrator 23.0.1, SVG Export Plug-In . SVG Version: 6.00 Build 0)  -->
<svg version="1.1" id="Layer_1" xmlns="http://www.w3.org/2000/svg" xmlns:xlink="http://www.w3.org/1999/xlink" x="0px" y="0px"
	 viewBox="0 0 153.2 211.3" style="enable-background:new 0 0 153.2 211.3;" xml:space="preserve">
<style type="text/css">
	.st0{fill:url(#SVGID_1_);}
	.st1{fill:url(#SVGID_2_);}
	.st2{fill:url(#SVGID_3_);}
	.st3{fill:url(#SVGID_4_);}
	.st4{fill:url(#SVGID_5_);}
	.st5{fill:url(#SVGID_6_);}
	.st6{fill:url(#SVGID_7_);}
	.st7{fill:url(#SVGID_8_);}
	.st8{fill:url(#SVGID_9_);}
	.st9{fill:url(#SVGID_10_);}
	.st10{fill:url(#SVGID_11_);}
</style>
<g>
	<linearGradient id="SVGID_1_" gradientUnits="userSpaceOnUse" x1="40.8925" y1="58.0122" x2="110.6612" y2="132.83">
		<stop  offset="0.1033" style="stop-color:#FFFFFF"/>
		<stop  offset="0.4967" style="stop-color:#FF5500"/>
	</linearGradient>
	<path class="st0" d="M153.1,87.4v5.9c-12-10.2-19.7-24.2-39.1-25.2c-31.5-1.6-54.6,29.6-84.9,34.1c-9.5,1.4-19.3,2.4-29.1,3v-9
		c8.6-0.6,17.1-1.5,25.4-2.8c30.2-4.6,53.3-35.7,84.8-34.1C131.5,60.4,138.8,77.3,153.1,87.4z"/>
	<linearGradient id="SVGID_2_" gradientUnits="userSpaceOnUse" x1="39.398" y1="43.5059" x2="112.156" y2="121.5293">
		<stop  offset="0.1033" style="stop-color:#FFFFFF"/>
		<stop  offset="0.4967" style="stop-color:#FF5500"/>
	</linearGradient>
	<path class="st1" d="M153.2,77.6v5.7c-17.2-9.5-23.7-29.4-46.9-30.6c-31.6-1.6-54.6,29.5-84.9,34.1c-7,1.1-14.1,1.9-21.4,2.5v-9
		c5.2-0.5,10.2-1.1,15.2-1.9c30.2-4.6,53.2-35.7,84.8-34.2C125.9,45.5,131,70.1,153.2,77.6z"/>
	<linearGradient id="SVGID_3_" gradientUnits="userSpaceOnUse" x1="38.2027" y1="28.3205" x2="113.8503" y2="109.4426">
		<stop  offset="0.1033" style="stop-color:#FFFFFF"/>
		<stop  offset="0.4967" style="stop-color:#FF5500"/>
	</linearGradient>
	<path class="st2" d="M153.3,65.9v6.8c-1.4-0.3-2.6-0.6-3.9-1c-23.7-6.8-28.4-32.6-54.9-33.9C62.9,36.2,39.8,67.4,9.6,72
		c-3.2,0.5-6.3,0.9-9.6,1.3v-9.3c0.7-0.1,1.3-0.2,2-0.3C32.2,59.1,55.3,28,86.9,29.6c26.5,1.3,31.3,27.1,54.9,33.9
		C145.4,64.5,149.3,65.3,153.3,65.9z"/>
	<linearGradient id="SVGID_4_" gradientUnits="userSpaceOnUse" x1="41.9649" y1="73.2122" x2="111.0851" y2="147.3346">
		<stop  offset="0.1033" style="stop-color:#FFFFFF"/>
		<stop  offset="0.4967" style="stop-color:#FF5500"/>
	</linearGradient>
	<path class="st3" d="M153.1,99v9.2c-11.1-10-19-22.9-37.5-23.8c-31.5-1.6-54.6,29.5-84.9,34.2c-10,1.5-20.4,2.5-30.7,3.1v-9.3
		c10.4-0.6,20.7-1.6,30.7-3.1c30.2-4.6,53.3-35.7,84.8-34.1C134.1,76.1,142,89,153.1,99z"/>
	<linearGradient id="SVGID_5_" gradientUnits="userSpaceOnUse" x1="36.6422" y1="11.6457" x2="115.1013" y2="95.7827">
		<stop  offset="0.1033" style="stop-color:#FFFFFF"/>
		<stop  offset="0.4967" style="stop-color:#FF5500"/>
	</linearGradient>
	<path class="st4" d="M153.2,52.6v7.7c-6.2-0.6-12.1-1.6-17.6-3.2c-23.7-6.8-28.4-32.6-54.9-33.9C50.6,21.7,28.2,49.8,0,56.4V45.8
		C24.7,36.6,45.6,13.6,72.8,15c26.5,1.3,31.3,27.1,54.9,33.9C135.5,51.1,144.1,52.2,153.2,52.6z"/>
	<linearGradient id="SVGID_6_" gradientUnits="userSpaceOnUse" x1="34.8758" y1="-7.4171" x2="116.7283" y2="80.3588">
		<stop  offset="0.1033" style="stop-color:#FFFFFF"/>
		<stop  offset="0.4967" style="stop-color:#FF5500"/>
	</linearGradient>
	<path class="st5" d="M153.3,37.9v8.4c-11.3-0.2-21.9-1.2-31.3-3.9C98.3,35.6,93.6,9.8,67.1,8.5C41.9,7.3,22.3,26.6,0,36.9V25.1
		C19.6,14.5,37.7-1,60.3,0.1C86.8,1.4,91.6,27.2,115.2,34C126.5,37.2,139.6,38.1,153.3,37.9z"/>
	<linearGradient id="SVGID_7_" gradientUnits="userSpaceOnUse" x1="41.5951" y1="90.067" x2="113.1511" y2="166.8014">
		<stop  offset="0.1033" style="stop-color:#FFFFFF"/>
		<stop  offset="0.4967" style="stop-color:#FF5500"/>
	</linearGradient>
	<path class="st6" d="M153.2,116.9v12.6c-14.3-10.1-21.5-26.9-42.8-28c-31.6-1.6-54.7,29.5-84.8,34.1c-8.4,1.3-16.9,2.2-25.6,2.8
		v-9.5c9.9-0.6,19.7-1.5,29.3-3c30.2-4.6,53.3-35.7,84.8-34.1C133.5,92.7,141.2,106.8,153.2,116.9z"/>
	<linearGradient id="SVGID_8_" gradientUnits="userSpaceOnUse" x1="36.9963" y1="157.6054" x2="117.9045" y2="244.3688">
		<stop  offset="0.1033" style="stop-color:#FFFFFF"/>
		<stop  offset="0.4967" style="stop-color:#FF5500"/>
	</linearGradient>
	<path class="st7" d="M153.2,201.4v10.1c-13.6,0.2-26.6-0.7-37.8-3.9C91.7,200.8,87,175,60.5,173.7c-22.7-1.2-40.8,14.5-60.5,25.1
		v-6.7c22.4-10.2,42.1-29.8,67.3-28.5c26.5,1.3,31.3,27.1,54.9,33.9C131.5,200.2,142.1,201.2,153.2,201.4z"/>
	<linearGradient id="SVGID_9_" gradientUnits="userSpaceOnUse" x1="38.1037" y1="143.3229" x2="116.5428" y2="227.4386">
		<stop  offset="0.1033" style="stop-color:#FFFFFF"/>
		<stop  offset="0.4967" style="stop-color:#FF5500"/>
	</linearGradient>
	<path class="st8" d="M153.2,182.5v10.8c-9-0.4-17.5-1.5-25.2-3.7c-23.7-6.8-28.4-32.6-54.9-33.9c-27.4-1.4-48.4,21.8-73.1,31.1
		v-7.9c28.3-6.5,50.7-34.9,80.9-33.4c26.5,1.3,31.3,27.1,54.9,33.9C141.2,180.9,147.1,181.9,153.2,182.5z"/>
	<linearGradient id="SVGID_10_" gradientUnits="userSpaceOnUse" x1="38.7994" y1="126.2641" x2="115.6475" y2="208.6734">
		<stop  offset="0.1033" style="stop-color:#FFFFFF"/>
		<stop  offset="0.4967" style="stop-color:#FF5500"/>
	</linearGradient>
	<path class="st9" d="M153.2,162v11.7c-3.9-0.6-7.7-1.4-11.3-2.4c-23.7-6.8-28.4-32.6-54.9-33.9c-31.6-1.6-54.6,29.6-84.9,34
		c-0.7,0.1-1.4,0.2-2.1,0.3v-9.2c3.3-0.4,6.5-0.8,9.8-1.3c30.2-4.6,53.3-35.7,84.8-34.1c26.5,1.3,31.3,27.1,54.9,33.9
		C150.7,161.4,151.9,161.7,153.2,162z"/>
	<linearGradient id="SVGID_11_" gradientUnits="userSpaceOnUse" x1="40.0988" y1="108.3624" x2="114.7471" y2="188.413">
		<stop  offset="0.1033" style="stop-color:#FFFFFF"/>
		<stop  offset="0.4967" style="stop-color:#FF5500"/>
	</linearGradient>
	<path class="st10" d="M153.2,139.8v12.8c-22.1-7.5-27.3-32-53.1-33.3c-31.5-1.6-54.6,29.5-84.7,34.1c-5.1,0.8-10.2,1.4-15.4,1.9
		v-9.5c7.3-0.6,14.5-1.4,21.6-2.5c30.2-4.6,53.3-35.7,84.8-34.1C129.6,110.4,136.1,130.3,153.2,139.8z"/>
</g>
</svg>
