<?xml version="1.0" encoding="utf-8"?>
<!-- Generator: Adobe Illustrator 23.0.1, SVG Export Plug-In . SVG Version: 6.00 Build 0)  -->
<svg version="1.1" id="Layer_1" xmlns="http://www.w3.org/2000/svg" xmlns:xlink="http://www.w3.org/1999/xlink" x="0px" y="0px"
	 viewBox="0 0 542.2 73.8" style="enable-background:new 0 0 542.2 73.8;" xml:space="preserve">
<style type="text/css">
	.st0{fill:#1D1D1B;}
	.st1{fill:#FAFF07;}
</style>
<g>
	<path class="st0" d="M0,19.3h11.3c5,0,6.9,0.2,8.4,0.8c2,0.8,4.5,3.2,4.5,7.1c0,3-1,4.5-3.8,6c3.4,1.4,4.9,3.5,4.9,7.4
		c0,5-3.8,8.3-9.5,8.3H0v-4.8h2.3v-20H0.1L0,19.3L0,19.3z M8.3,24.1v7.2h5.8c2.5,0,4.2-1.6,4.2-3.8c0-2-1.9-3.4-4.7-3.4H8.3
		L8.3,24.1z M8.3,36v8.1h6.2c2.6,0,4.7-1.7,4.7-4c0-2.5-2.1-4.1-5.3-4.1H8.3L8.3,36z"/>
	<path class="st0" d="M50.1,41.5c-1,4.9-5.1,7.9-10.6,7.9c-6.3,0-10.9-4.9-10.9-11.8c0-6.8,4.7-11.9,11-11.9c3.6,0,6.7,1.7,8.7,4.6
		c2.1,3.2,2.1,6.1,2.2,8.4H34.3c0.5,5.8,4.4,6.1,5.4,6.1c2.2,0,3.7-1.1,4.6-3.4h5.8V41.5z M44.3,34.9c-0.4-2.9-2.1-4.4-4.7-4.4
		c-2.4,0-4.3,1.6-5,4.4H44.3L44.3,34.9z"/>
	<path class="st0" d="M68.7,34.2H79v14.7h-3.4v-4.6c-0.9,1.5-1.3,2.1-2.2,2.8c-1.9,1.7-4.3,2.6-6.8,2.6c-6.9,0-12.3-6.7-12.3-15.4
		s5.3-15.6,12.2-15.6c2.8,0,6.1,0.8,8.8,5.1v-4.6h3.1v9.4h-3.2c-0.4-1.6-0.9-2.7-1.7-3.6c-1.7-2.1-4-3.2-6.3-3.2
		c-3.7,0-8.9,3.1-8.9,12.3c0,7.1,3.8,12.4,9,12.4c3.7,0,7.3-3.1,8.1-7c0.1-0.6,0.2-1.2,0.2-2.4h-6.9L68.7,34.2L68.7,34.2z"/>
	<path class="st0" d="M104.2,48.9h-6.4v-4c-1.8,2.8-4.2,4.4-7.6,4.4c-4.2,0-7.3-2.9-7.3-6.8c0-4.3,3.8-6.4,12.7-7.3
		c0.3,0,1.2-0.1,2.1-0.2v-2.3c0-2.6-2-4.2-5.1-4.2c-3.3,0-4.8,1.1-5.4,4h-3.4c0.5-2.3,1.2-3.4,2.5-4.6c1.5-1.3,3.6-1.9,6.1-1.9
		c4.6,0,8.6,2.1,8.6,7.8v12.4h3.2L104.2,48.9L104.2,48.9z M97.8,37.4l-2.1,0.3c-6.9,0.8-9.2,2.1-9.2,5c0,2.4,2.1,4.3,4.7,4.3
		c4,0,6.6-3.8,6.6-5.8V37.4L97.8,37.4z"/>
	<path class="st0" d="M113.6,30.5c1-1.6,3-4.7,7.1-4.7c3,0,4.7,1.6,5.3,4.7c0.9-1.5,1.3-2.1,2.1-2.8c1.5-1.3,3.1-1.9,4.8-1.9
		c3.4,0,5.5,2.2,5.5,6.1v14.3h3.1v2.6h-6.3V33.1c0-3.2-1.1-4.6-3.2-4.6c-3.9,0-6,4.7-6,6.2v11.4h3.2v2.6h-6.5V32.5
		c0-2.8-1.1-4.1-3.2-4.1c-3.5,0-6,4.3-6,6.4v11.3h3.2v2.6H107v-2.6h3.3V28.8H107v-2.7h6.6V30.5L113.6,30.5z"/>
	<path class="st0" d="M144.9,18h6.3v13.1c0.8-1.6,3.4-5,7.4-5c5.1,0,9,5.2,9,11.8c0,6.2-4.1,11.3-9,11.3c-4,0-5.9-2.6-7.3-4.5v4.2
		h-6.4v-2.6h3.2V20.7H145V18H144.9z M151.2,39.4c0,3.7,3,7.1,6.5,7.1c3.9,0,6.3-3.5,6.3-8.9c0-5.2-2.5-8.8-6.2-8.8
		c-3.3,0-6.6,3.7-6.6,6.9L151.2,39.4L151.2,39.4z"/>
	<polygon class="st0" points="170.1,18 176.5,18 176.5,46.3 179.6,46.3 179.6,48.9 170.1,48.9 170.1,46.3 173.3,46.3 173.3,20.6 
		170.1,20.6 	"/>
	<path class="st0" d="M201.4,42.7c-0.5,1.6-1,2.5-1.8,3.4c-1.8,2.1-4.3,3.2-7.1,3.2c-6.1,0-10.4-4.8-10.4-11.7
		c0-6.6,4.3-11.7,9.9-11.7s10,4.4,10,12.3h-16.4c0.3,3.3,1.1,5.2,2.6,6.7c1.2,1.1,2.6,1.7,4.2,1.7c2.6,0,4.2-1.2,5.3-3.9H201.4
		L201.4,42.7z M198.2,35.8c-0.3-2.8-0.9-4.4-2.2-5.6c-1-0.9-2.3-1.4-3.7-1.4c-2.7,0-5,1.9-6,4.8c-0.2,0.5-0.4,1.4-0.5,2.2H198.2
		L198.2,35.8z"/>
	<path class="st0" d="M215.7,19.3h7.1l8.2,24.8h2.2v4.8h-6.8l-1.9-6.4h-10.4l-1.9,6.4h-6.9v-4.8h2.3L215.7,19.3L215.7,19.3z
		 M219.2,24.8l-4,13.1h7.8L219.2,24.8L219.2,24.8z"/>
	<polygon class="st0" points="233,26.4 242,26.4 242,30.8 239.7,30.8 242.8,44 246.5,26.4 252.3,26.4 256.1,43.8 259,30.8 
		256.9,30.8 256.9,26.4 265.9,26.4 265.9,30.8 264,30.8 259.1,48.9 253.2,48.9 249.4,33.3 245.9,48.9 239.8,48.9 234.9,30.8 
		233,30.8 	"/>
	<path class="st0" d="M287.2,44.5h1.9v4.4h-7v-2.6c-2.3,2.3-4,3.1-6.8,3.1c-4.5,0-7.9-3-7.9-7c0-6.6,7.4-7.3,14.6-8
		c0-3.4-0.9-4.3-4.2-4.3c-2.3,0-3.9,1.3-4,3.4l-5.5-0.2c0.3-4.5,3.9-7.4,9.2-7.4c6.2,0,9.6,2.8,9.6,7.9v10.7H287.2z M281.9,38.3
		c-5.3,0.5-8.7,1-8.7,4.1c0,1.8,1.5,3.1,3.7,3.1c2.9,0,5-2.1,5-5V38.3L281.9,38.3z"/>
	<path class="st0" d="M300.7,29.9c1.5-2.9,3.1-4,5.6-4c0.8,0,1.4,0.1,2.5,0.3v5.3c-1-0.2-1.8-0.3-2.7-0.3c-2.9,0-5.4,2.1-5.4,4.7
		v8.7h2.7V49H293v-4.5h2.2V30.8h-2.1v-4.4h7.7L300.7,29.9L300.7,29.9z"/>
	<path class="st0" d="M331.5,41.5c-1,4.9-5.1,7.9-10.6,7.9c-6.3,0-10.9-4.9-10.9-11.8c0-6.8,4.7-11.9,11-11.9c3.6,0,6.7,1.7,8.7,4.6
		c2.1,3.2,2.1,6.1,2.2,8.4h-16.2c0.5,5.8,4.4,6.1,5.4,6.1c2.2,0,3.7-1.1,4.6-3.4h5.8V41.5z M325.7,34.9c-0.4-2.9-2.1-4.4-4.8-4.4
		c-2.4,0-4.3,1.6-5,4.4H325.7L325.7,34.9z"/>
	<polygon class="st0" points="334.6,46.1 337.5,46.1 337.5,48.9 334.6,48.9 	"/>
	<path class="st0" d="M340.9,40.4c0-5.2,3.2-8.7,7.8-8.7c4.5,0,7.8,3.7,7.8,8.7c0,5.3-3.2,8.9-7.8,8.9
		C344.1,49.3,340.9,45.7,340.9,40.4L340.9,40.4z M348.6,47.2c3.2,0,5.1-2.6,5.1-6.8c0-4-2-6.5-5.1-6.5c-3,0-4.9,2.5-4.9,6.7
		C343.7,44.7,345.5,47.2,348.6,47.2L348.6,47.2z"/>
	<path class="st0" d="M363.5,35.9c0.8-1.8,1.3-2.3,2-3c0.9-0.8,2-1.2,3.1-1.2c0.4,0,1,0.1,1.8,0.2v2.5c-0.8-0.2-1.4-0.2-1.8-0.2
		c-4.6,0-5.1,4.7-5.1,5V47h2.9v2h-7.7v-2h2.4V34h-2.6v-2h4.9L363.5,35.9L363.5,35.9z"/>
	<path class="st0" d="M384.3,44.8c-1.5,2.2-3.2,2.9-5.1,2.9c-4.1,0-6.9-3.3-6.9-8.1c0-4.6,2.7-7.8,6.6-7.8c3.1,0,4.5,2,5.4,3.3v-3
		h4.8v2h-2.4V48c0,4.1-2.6,6.4-7.2,6.4c-2.8,0-5.2-1.2-6.3-3.2c-0.2-0.4-0.4-0.8-0.7-1.7h2.7c1,2,2.2,2.8,4.5,2.8
		c2.9,0,4.6-1.5,4.6-3.9L384.3,44.8L384.3,44.8z M384.3,38.2c0-1.9-2.3-4.5-4.8-4.5c-2.8,0-4.5,2.3-4.5,5.9c0,3.7,1.7,6,4.6,6
		c2.5,0,4.7-2.4,4.7-4.4V38.2L384.3,38.2z"/>
	<path class="st0" d="M393.8,6h3.6c0.8,0,1.5,0.2,1.9,0.5c0.4,0.4,0.6,0.9,0.6,1.5c0,0.4-0.1,0.7-0.2,0.9c-0.1,0.2-0.2,0.4-0.4,0.6
		c-0.1,0.1-0.3,0.2-0.4,0.3c-0.1,0.1-0.2,0.1-0.3,0.1l0,0c0.1,0,0.2,0,0.4,0.1c0.1,0.1,0.3,0.1,0.4,0.3c0.1,0.1,0.2,0.3,0.3,0.5
		s0.1,0.4,0.1,0.7c0,0.4,0,0.8,0.1,1.2s0.2,0.6,0.3,0.8h-1.4c-0.1-0.2-0.2-0.3-0.2-0.5s0-0.4,0-0.6c0-0.3,0-0.6-0.1-0.9
		c0-0.3-0.1-0.5-0.2-0.6c-0.1-0.2-0.3-0.3-0.5-0.4c-0.2-0.1-0.4-0.1-0.7-0.1h-2v3.1h-1.3L393.8,6L393.8,6z M395.1,9.4h2.2
		c0.4,0,0.7-0.1,1-0.3c0.2-0.2,0.3-0.5,0.3-0.9c0-0.2,0-0.4-0.1-0.6c-0.1-0.2-0.2-0.3-0.3-0.4c-0.1-0.1-0.3-0.1-0.4-0.2
		c-0.2,0-0.3,0-0.5,0h-2.2V9.4L395.1,9.4z"/>
	<path class="st0" d="M396.8,17.4c-4,0-7.3-3.3-7.3-7.3s3.3-7.3,7.3-7.3s7.3,3.3,7.3,7.3C404.2,14.1,400.9,17.4,396.8,17.4
		L396.8,17.4z M396.8,3.9c-3.4,0-6.1,2.8-6.1,6.1c0,3.4,2.8,6.1,6.1,6.1c3.4,0,6.1-2.8,6.1-6.1C403,6.7,400.2,3.9,396.8,3.9
		L396.8,3.9z"/>
</g>
<g>
	<circle cx="505.3" cy="36.9" r="36.9"/>
	<g>
		<path class="st1" d="M485,51V32.2l-3.8,2.9l-2.6-4.5l7-5.1h5V51L485,51L485,51z"/>
		<path class="st1" d="M510.3,43.8c0,1.1-0.2,2.1-0.6,3.1c-0.4,0.9-1,1.7-1.7,2.4s-1.6,1.2-2.6,1.6c-1,0.4-2.2,0.6-3.5,0.6
			s-2.4-0.2-3.4-0.6c-1-0.4-1.9-0.9-2.6-1.6c-0.7-0.7-1.3-1.5-1.6-2.4c-0.4-0.9-0.6-2-0.6-3.1c0-0.9,0.1-1.6,0.3-2.3
			s0.5-1.3,0.9-1.8s0.8-1,1.3-1.3s1-0.6,1.5-0.8v-0.1c-1.1-0.5-2-1.2-2.6-2.1c-0.6-0.9-0.9-2.1-0.9-3.5c0-0.9,0.2-1.8,0.5-2.6
			s0.8-1.6,1.4-2.2c0.6-0.6,1.4-1.2,2.4-1.6s2.1-0.6,3.4-0.6c1.3,0,2.4,0.2,3.4,0.6c1,0.4,1.8,0.9,2.5,1.6c0.7,0.6,1.2,1.4,1.5,2.2
			s0.5,1.7,0.5,2.6c0,1.4-0.3,2.5-0.9,3.5c-0.6,0.9-1.5,1.6-2.6,2.1v0.1c0.5,0.2,1,0.5,1.5,0.8s0.9,0.8,1.3,1.3
			c0.4,0.5,0.7,1.1,0.9,1.8C510.2,42.2,510.3,43,510.3,43.8z M504.5,43.5c0-1.1-0.2-2-0.7-2.6c-0.5-0.7-1.1-1-1.9-1s-1.4,0.3-1.9,1
			s-0.7,1.6-0.7,2.6c0,1.1,0.2,1.9,0.7,2.6c0.5,0.7,1.1,1,1.9,1c0.8,0,1.5-0.3,1.9-1C504.3,45.4,504.5,44.6,504.5,43.5z M504.3,32.4
			c0-0.9-0.2-1.7-0.6-2.3c-0.4-0.6-1-0.9-1.8-0.9s-1.3,0.3-1.7,0.9s-0.6,1.4-0.6,2.3c0,0.9,0.2,1.6,0.6,2.3c0.4,0.7,1,1,1.7,1
			s1.3-0.3,1.7-1C504.1,34,504.3,33.2,504.3,32.4z"/>
		<path class="st1" d="M524.9,42.4v7.5h-4.7v-7.5h-7.7v-4.5h7.6v-7.5h4.7v7.5h7.7v4.5H524.9z"/>
	</g>
</g>
</svg>
