<svg width="209" height="27" viewBox="0 0 209 27" fill="none" xmlns="http://www.w3.org/2000/svg">
<g clip-path="url(#clip0_26111_39242)">
<path d="M59.658 27.147C57.8927 27.1452 56.2003 26.4431 54.9521 25.1949C53.7039 23.9467 53.0018 22.2543 53 20.489V14.658C53.0018 12.8928 53.7039 11.2004 54.9521 9.95213C56.2003 8.70392 57.8927 8.00186 59.658 8H63.406C65.1712 8.00186 66.8636 8.70392 68.1118 9.95213C69.36 11.2004 70.0621 12.8928 70.064 14.658V19.406H58.17V20.494C58.1705 20.8885 58.3274 21.2667 58.6064 21.5456C58.8853 21.8246 59.2635 21.9815 59.658 21.982H69.991L68.741 27.152L59.658 27.147ZM59.658 12.599C59.2634 12.5993 58.8851 12.7562 58.6061 13.0352C58.3271 13.3142 58.1702 13.6925 58.17 14.087V15.823H64.894V14.087C64.8937 13.6925 64.7368 13.3142 64.4578 13.0352C64.1788 12.7562 63.8005 12.5993 63.406 12.599H59.658Z" fill="#181818"/>
<path d="M112.638 26.9995C110.872 26.9976 109.18 26.2956 107.932 25.0474C106.683 23.7991 105.981 22.1067 105.98 20.3415V14.5105C105.982 12.7453 106.684 11.0531 107.932 9.80496C109.18 8.55681 110.872 7.85466 112.638 7.85254H116.386C118.151 7.85439 119.843 8.55645 121.091 9.80467C122.34 11.0528 123.042 12.7452 123.044 14.5105V20.3415C123.042 22.1067 122.34 23.7991 121.091 25.0474C119.843 26.2956 118.151 26.9976 116.386 26.9995H112.638ZM112.638 13.0225C112.243 13.0228 111.865 13.1796 111.586 13.4586C111.307 13.7376 111.15 14.1159 111.15 14.5105V20.3415C111.15 20.736 111.307 21.1141 111.586 21.3931C111.865 21.672 112.243 21.829 112.638 21.8295H116.386C116.78 21.829 117.158 21.672 117.437 21.3931C117.716 21.1141 117.873 20.736 117.874 20.3415V14.5105C117.873 14.1159 117.716 13.7376 117.437 13.4586C117.158 13.1796 116.78 13.0228 116.386 13.0225H112.638Z" fill="#181818"/>
<path d="M96.91 27.0015C95.1448 26.9997 93.4524 26.2976 92.2041 25.0494C90.9559 23.8012 90.2539 22.1088 90.252 20.3435V14.5125C90.2539 12.7473 90.9559 11.0549 92.2041 9.80662C93.4524 8.55841 95.1448 7.85635 96.91 7.85449H104.469L103.219 13.0245H96.9109C96.5164 13.0248 96.1381 13.1817 95.8591 13.4607C95.5801 13.7397 95.4233 14.118 95.423 14.5125V20.3435C95.4235 20.738 95.5805 21.1162 95.8594 21.3951C96.1384 21.6741 96.5164 21.831 96.9109 21.8315H104.47L103.22 27.0015H96.91Z" fill="#181818"/>
<path d="M125.19 27.0015V14.5125C125.191 12.7473 125.893 11.0549 127.142 9.80662C128.39 8.55841 130.082 7.85635 131.847 7.85449H137.07L135.82 13.0245H131.847C131.453 13.0251 131.075 13.182 130.796 13.461C130.517 13.7399 130.36 14.1181 130.36 14.5125V27.0015H125.19Z" fill="#181818"/>
<path d="M144.345 27.0015C142.579 26.9997 140.887 26.2976 139.639 25.0494C138.391 23.8012 137.688 22.1088 137.687 20.3435V14.5125C137.688 12.7473 138.391 11.0549 139.639 9.80662C140.887 8.55841 142.579 7.85635 144.345 7.85449H148.093C149.858 7.85635 151.55 8.55841 152.798 9.80662C154.047 11.0549 154.749 12.7473 154.751 14.5125V19.2605H142.857V20.3485C142.857 20.743 143.014 21.1212 143.293 21.4001C143.572 21.6791 143.95 21.836 144.345 21.8365H154.6L152.219 27.0065L144.345 27.0015ZM144.345 12.4535C143.95 12.4538 143.572 12.6107 143.293 12.8897C143.014 13.1687 142.857 13.547 142.857 13.9415V15.6775H149.581V13.9415C149.58 13.547 149.423 13.1687 149.144 12.8897C148.865 12.6107 148.487 12.4538 148.093 12.4535H144.345Z" fill="#181818"/>
<path d="M72 27.0011L73.25 21.8311H81.857C82.2515 21.8308 82.6298 21.6738 82.9088 21.3948C83.1878 21.1158 83.3447 20.7375 83.345 20.3431V18.3351C83.3441 17.9584 83.2008 17.5959 82.9436 17.3206C82.6865 17.0454 82.3347 16.8775 81.959 16.851L78.1469 16.528C76.4797 16.3894 74.9249 15.631 73.7893 14.4024C72.6538 13.1737 72.02 11.5641 72.013 9.891V8.658C72.0148 6.89276 72.7169 5.20035 73.9651 3.95213C75.2133 2.70392 76.9057 2.00185 78.671 2H87.3L86.05 7.17H78.671C78.2764 7.17027 77.8981 7.32712 77.6191 7.60612C77.3401 7.88512 77.1832 8.26344 77.183 8.658V9.891C77.1857 10.264 77.3274 10.6227 77.5804 10.8969C77.8333 11.1711 78.1794 11.3412 78.551 11.3741L79.1089 11.4211C80.1349 11.5081 82.225 11.6861 82.355 11.6961C84.0277 11.8271 85.59 12.5827 86.7313 13.8128C87.8726 15.0428 88.5093 16.6571 88.515 18.3351V20.3431C88.5131 22.1083 87.8111 23.8007 86.5628 25.0489C85.3146 26.2971 83.6222 26.9992 81.857 27.0011H72Z" fill="#181818"/>
<path d="M8.98232 26.9986L0 1H7.29822L13.0007 17.4998L18.7018 1H26L17.0149 27L8.98232 26.9986Z" fill="#181818"/>
<path d="M32.0937 8.38965H27.1357V27.2516H32.0937V8.38965Z" fill="#181818"/>
<path d="M29.615 6.22601C29.0981 6.2264 28.5927 6.07348 28.1628 5.7866C27.7328 5.49972 27.3976 5.09177 27.1995 4.61434C27.0014 4.13692 26.9494 3.61146 27.05 3.10445C27.1506 2.59745 27.3993 2.13167 27.7646 1.76603C28.13 1.4004 28.5956 1.15134 29.1025 1.05036C29.6094 0.94937 30.1349 1.001 30.6125 1.19871C31.0901 1.39642 31.4983 1.73134 31.7855 2.16109C32.0727 2.59084 32.226 3.09611 32.226 3.613C32.2252 4.30576 31.9497 4.96993 31.4598 5.45979C30.9699 5.94965 30.3058 6.22521 29.613 6.22601" fill="#181818"/>
<path d="M181.16 26.9487C179.395 26.9469 177.703 26.2448 176.454 24.9966C175.206 23.7484 174.504 22.056 174.502 20.2907V14.4597C174.504 12.6945 175.206 11.0021 176.454 9.75389C177.703 8.50568 179.395 7.80362 181.16 7.80176H184.908C186.673 7.80388 188.365 8.50606 189.613 9.75424C190.861 11.0024 191.563 12.6947 191.565 14.4597V19.2077H179.672V20.2957C179.673 20.6902 179.83 21.0684 180.109 21.3473C180.387 21.6263 180.766 21.7832 181.16 21.7837H191.415L189.035 26.9537L181.16 26.9487ZM181.16 12.4007C180.766 12.401 180.387 12.5579 180.108 12.8369C179.829 13.1159 179.672 13.4942 179.672 13.8887V15.6247H186.396V13.8887C186.396 13.4944 186.239 13.1162 185.96 12.8372C185.682 12.5582 185.304 12.4013 184.909 12.4007H181.16Z" fill="#FF5500"/>
<path d="M200.25 21.778C199.855 21.7777 199.477 21.6209 199.198 21.3419C198.919 21.0629 198.762 20.6845 198.762 20.29V12.39H205.293V7.79H198.762V2H193.592V20.29C193.594 22.0552 194.296 23.7476 195.544 24.9959C196.792 26.2441 198.485 26.9461 200.25 26.948H205.427V21.778H200.25Z" fill="#FF5500"/>
<path d="M171.234 13.555C171.92 12.4889 172.284 11.2483 172.284 9.981V8.658C172.282 6.89275 171.58 5.20034 170.332 3.95213C169.084 2.70391 167.391 2.00185 165.626 2H156V26.948H166.406C168.171 26.9461 169.864 26.2441 171.112 24.9959C172.36 23.7476 173.062 22.0552 173.064 20.29V18.125C173.064 16.4228 172.409 14.7871 171.234 13.555ZM165.626 7.168C166.021 7.16826 166.399 7.32512 166.678 7.60411C166.957 7.88311 167.114 8.26144 167.114 8.656V9.98C167.114 10.3742 166.957 10.7521 166.678 11.0309C166.399 11.3096 166.021 11.4665 165.627 11.467H161.17V7.167L165.626 7.168ZM167.894 20.288C167.894 20.6825 167.737 21.0609 167.458 21.3399C167.179 21.6189 166.801 21.7757 166.406 21.776H161.17V16.639H166.406C166.801 16.6392 167.179 16.7961 167.458 17.0751C167.737 17.3541 167.894 17.7324 167.894 18.127V20.288Z" fill="#FF5500"/>
<path fill-rule="evenodd" clip-rule="evenodd" d="M39.17 2H34V26.948H44.406C46.171 26.9461 47.864 26.2441 49.112 24.9959C50.36 23.7476 51.062 22.0552 51.064 20.29V13.998C51.064 12.2958 50.409 10.6601 49.234 9.428C48.4098 8.72313 46.1423 7.32205 43.6495 7.3398C43.642 7.33992 43.6345 7.33999 43.627 7.34H39.17V2ZM45.458 21.3399C45.737 21.0609 45.894 20.6825 45.894 20.288V14C45.894 13.6054 45.737 13.2271 45.458 12.9481C45.179 12.6691 44.801 12.5122 44.406 12.512H39.17V21.776H44.406C44.801 21.7757 45.179 21.6189 45.458 21.3399Z" fill="#111111"/>
</g>
<defs>
<clipPath id="clip0_26111_39242">
<rect width="209" height="27" fill="white"/>
</clipPath>
</defs>
</svg>
