<?xml version="1.0" encoding="utf-8"?>
<!-- Generator: Adobe Illustrator 23.0.1, SVG Export Plug-In . SVG Version: 6.00 Build 0)  -->
<svg version="1.1" id="Layer_1" xmlns="http://www.w3.org/2000/svg" xmlns:xlink="http://www.w3.org/1999/xlink" x="0px" y="0px"
	 viewBox="0 0 1175.7 167" style="enable-background:new 0 0 1175.7 167;" xml:space="preserve">
<g>
	<g>
		<path d="M83.5,0C37.4,0,0,37.4,0,83.5S37.4,167,83.5,167S167,129.6,167,83.5S129.6,0,83.5,0z M76,115.4H54.2V51.6H76V115.4z
			 M112.8,115.4H91V51.6h21.8V115.4z"/>
		<path d="M240.5,115.3H219V69.6h-15.7V51.5h52.8v18.1h-15.7v45.7H240.5z"/>
		<path d="M272.4,51.5h22.8l24.9,63.8h-23.3l-3.3-9.4h-20.4l-3.2,9.4h-22.7L272.4,51.5z M283.5,73.8l-5.2,15.8h10.4L283.5,73.8z"/>
		<path d="M345.6,89.9h-0.2v25.4h-20.8V51.5h20.7V75h0.2l17-23.5h25.2l-24,29.2l25.1,34.6h-26.3L345.6,89.9z"/>
		<path d="M393.3,51.5h43.9v17.8h-23.7v5.5h22.3v16.7h-22.3v5.9h25.2v17.8h-45.4V51.5z"/>
		<path d="M504.8,115.3h-21.5V69.6h-15.7V51.5h52.8v18.1h-15.7v45.7H504.8z"/>
		<path d="M527,51.5h21.6v63.8H527V51.5z"/>
		<path d="M576.8,79.3l1,36.1h-20V51.5h28.1l11.6,34.3h0.5l10-34.3h29v63.8h-20.9l0.6-35.9l-0.5-0.1l-11.9,36h-15.1l-11.7-36.1
			L576.8,79.3L576.8,79.3z"/>
		<path d="M645.9,51.5h43.9v17.8h-23.7v5.5h22.3v16.7h-22.3v5.9h25.2v17.8h-45.4V51.5z"/>
		<path d="M757.3,115.3h-21.5V69.6h-15.7V51.5h52.8v18.1h-15.7L757.3,115.3L757.3,115.3z"/>
		<path d="M774.1,83.1c0-5.1,0.9-9.7,2.7-13.8s4.3-7.6,7.4-10.5c3.2-2.9,6.9-5.1,11.2-6.7c4.3-1.6,9-2.3,14.1-2.3s9.7,0.8,14.1,2.3
			c4.3,1.6,8.1,3.8,11.3,6.7c3.2,2.9,5.7,6.4,7.5,10.5s2.7,8.7,2.7,13.8s-0.9,9.8-2.7,14c-1.8,4.2-4.3,7.8-7.5,10.8
			s-6.9,5.3-11.3,6.9c-4.3,1.6-9,2.4-14.1,2.4s-9.7-0.8-14.1-2.4c-4.3-1.6-8.1-3.9-11.2-6.9c-3.2-3-5.6-6.6-7.4-10.8
			C775,92.8,774.1,88.2,774.1,83.1z M796.9,83.1c0,2.1,0.3,4,0.9,5.8c0.6,1.7,1.5,3.2,2.6,4.5s2.4,2.2,4,2.9s3.2,1,5,1s3.5-0.3,5-1
			s2.9-1.7,4-2.9c1.1-1.3,2-2.8,2.7-4.5c0.6-1.7,0.9-3.7,0.9-5.8c0-2-0.3-3.9-0.9-5.6s-1.5-3.2-2.7-4.3s-2.5-2.1-4-2.8s-3.2-1-5-1
			s-3.5,0.3-5,1c-1.6,0.7-2.9,1.6-4,2.8s-2,2.6-2.6,4.3S796.9,81,796.9,83.1z"/>
		<path d="M904.9,115.3h-21.5V69.6h-15.7V51.5h52.8v18.1h-15.7L904.9,115.3L904.9,115.3z"/>
		<path d="M966.1,91.1h-17.5v24.2h-21.5V51.5h21.4v21.6H966V51.5h21.5v63.8h-21.4V91.1z"/>
		<path d="M996.7,51.5h21.6v63.8h-21.6V51.5z"/>
		<path d="M1027.3,51.5h21.4l18.2,32.4h0.4l-0.9-32.4h20.4v63.8h-21.9l-17.7-30.5h-0.4l0.9,30.5h-20.4V51.5z"/>
		<path d="M1116.8,89.9h-0.2v25.4h-20.8V51.5h20.7V75h0.2l17-23.5h25.2l-24,29.2l25.1,34.6h-26.3L1116.8,89.9z"/>
	</g>
	<g>
		<path d="M1166.5,52.6v4.7h-1.4v-4.7h-1.7v-1.2h4.8v1.2L1166.5,52.6L1166.5,52.6z"/>
		<path d="M1174.3,57.4v-4.2l0,0l-1.5,4.2h-1l-1.5-4.2l0,0v4.2h-1.4v-6h2l1.4,3.8l0,0l1.3-3.8h2.1v6H1174.3z"/>
	</g>
</g>
</svg>
