<?xml version="1.0" encoding="utf-8"?>
<!-- Generator: Adobe Illustrator 26.0.3, SVG Export Plug-In . SVG Version: 6.00 Build 0)  -->
<svg version="1.1" id="Layer_1" xmlns="http://www.w3.org/2000/svg" xmlns:xlink="http://www.w3.org/1999/xlink" x="0px" y="0px"
	 viewBox="0 0 83 77" style="enable-background:new 0 0 83 77;" xml:space="preserve">
<style type="text/css">
	.st0{fill-rule:evenodd;clip-rule:evenodd;fill:#FF5500;}
	.st1{fill:#FFFFFF;}
</style>
<path id="Path_2519" class="st0" d="M40.9,0.9C20.1,0.9,3.3,17.7,3.3,38.4S20.1,76,40.9,76s37.6-16.8,37.6-37.6l0,0
	C78.4,17.7,61.6,0.9,40.9,0.9 M40.9,8.3c16.7,0,30.3,13.6,30.3,30.3S57.6,68.9,40.8,68.9c-16.7,0-30.3-13.6-30.3-30.3
	C10.6,21.8,24.1,8.3,40.9,8.3"/>
<g>
	<path class="st1" d="M28.9,50.8h-5V33.6H18v-3.3c1.5-0.1,2.6-0.2,3.2-0.3c1-0.2,1.8-0.7,2.4-1.3c0.4-0.4,0.7-1,1-1.8
		c0.1-0.4,0.2-0.8,0.2-1h4.1C28.9,25.9,28.9,50.8,28.9,50.8z"/>
	<path class="st1" d="M33.4,49.2c-1.4-1.5-2.1-3.2-2.1-5.3c0-1.4,0.3-2.7,1-3.8c0.6-1.1,1.6-2,2.8-2.6c-1.2-0.8-2-1.7-2.3-2.6
		s-0.5-1.8-0.5-2.6c0-1.8,0.7-3.4,2-4.6s3.3-1.9,5.8-1.9s4.4,0.6,5.8,1.9c1.4,1.3,2,2.8,2,4.6c0,0.8-0.2,1.7-0.5,2.6
		c-0.4,0.9-1.1,1.7-2.3,2.4c1.2,0.7,2.1,1.6,2.8,2.7c0.6,1.1,0.9,2.4,0.9,3.8c0,2.1-0.8,3.9-2.3,5.4c-1.6,1.5-3.7,2.2-6.5,2.2
		S34.8,50.7,33.4,49.2z M36.4,43.5c0,1.2,0.3,2.2,1,2.9s1.5,1,2.6,1s2-0.3,2.6-1s1-1.6,1-2.9c0-1.3-0.3-2.2-1-2.9
		c-0.6-0.7-1.5-1-2.6-1s-2,0.3-2.6,1C36.7,41.3,36.4,42.3,36.4,43.5z M37.6,35c0.5,0.6,1.3,0.9,2.3,0.9s1.8-0.3,2.3-0.9
		c0.5-0.6,0.8-1.3,0.8-2.2c0-1-0.3-1.8-0.8-2.3c-0.5-0.6-1.3-0.8-2.3-0.8s-1.8,0.3-2.3,0.8c-0.6,0.6-0.8,1.3-0.8,2.3
		C36.8,33.7,37.1,34.5,37.6,35z"/>
	<path class="st1" d="M59.2,39.4v5.7h-3.6v-5.7H50v-3.6h5.6v-5.6h3.6v5.6h5.6v3.6H59.2z"/>
</g>
</svg>
