<?xml version="1.0" encoding="utf-8"?>
<!-- Generator: Adobe Illustrator 24.1.3, SVG Export Plug-In . SVG Version: 6.00 Build 0)  -->
<svg version="1.1" id="Layer_1" xmlns="http://www.w3.org/2000/svg" xmlns:xlink="http://www.w3.org/1999/xlink" x="0px" y="0px"
	 viewBox="0 0 108 44" style="enable-background:new 0 0 108 44;" xml:space="preserve">
<style type="text/css">
	.st0{fill:#FFFFFF;}
	.st1{enable-background:new    ;}
</style>
<g>
	<path class="st0" d="M6,19.8h2.8c1.2,0,1.7,0,2,0.2c0.7,0.3,1.1,1,1.1,1.8c0,0.7-0.2,1.1-0.9,1.5c0.8,0.3,1.3,1,1.2,1.8
		c0,1.2-0.9,2-2.3,2H6v-1.2h0.6V21H6V19.8L6,19.8z M8,21v1.8h1.4c0.5,0,1-0.3,1-0.8v-0.1c0-0.5-0.5-0.8-1.1-0.8H8V21z M8,23.9v2h1.5
		c0.6,0,1.1-0.4,1.1-1l0,0c0-0.6-0.5-1-1.3-1H8L8,23.9z"/>
	<path class="st0" d="M18.2,25.2c-0.3,1.2-1.2,1.9-2.6,1.9c-1.5,0-2.7-1.2-2.7-2.9s1.1-2.9,2.7-2.9c0.8,0,1.6,0.4,2.1,1.1
		c0.4,0.6,0.6,1.3,0.5,2h-3.9c0.1,1.4,1.1,1.5,1.3,1.5c0.5,0,1-0.3,1.1-0.8L18.2,25.2L18.2,25.2z M16.8,23.6c0-0.6-0.5-1.1-1.1-1.1
		l0,0c-0.6,0-1.1,0.5-1.2,1.1H16.8L16.8,23.6z"/>
	<path class="st0" d="M22.8,23.4h2.5V27h-0.8v-1.1c-0.1,0.3-0.3,0.5-0.5,0.7c-0.5,0.4-1.1,0.6-1.6,0.6c-1.7,0-3-1.6-3-3.8
		s1.3-3.8,3-3.8c0.9,0,1.7,0.5,2.1,1.2v-1.1h0.8V22h-0.8c-0.1-0.3-0.2-0.6-0.4-0.9c-0.4-0.5-1-0.8-1.5-0.8c-0.9,0-2.2,0.8-2.2,3
		c0,1.8,1,3,2.2,3c1,0,1.8-0.8,2-1.7c0-0.2,0-0.4,0-0.6h-1.7L22.8,23.4L22.8,23.4z"/>
	<path class="st0" d="M31.4,27h-1.6v-1c-0.4,0.7-1.1,1.1-1.9,1.1c-0.9,0.1-1.7-0.7-1.8-1.6v-0.1c0-1.1,0.9-1.6,3.1-1.8h0.5v-0.5
		c0-0.6-0.5-1-1.2-1s-1.2,0.3-1.3,1h-0.8c0.1-0.4,0.3-0.8,0.6-1.1c0.4-0.3,1-0.5,1.5-0.5c1.1,0,2.1,0.5,2.1,1.9v3h0.8L31.4,27
		L31.4,27z M29.8,24.2l-0.5,0.1c-1.7,0.2-2.2,0.5-2.2,1.2c0,0.6,0.5,1.1,1.1,1.1c0.8,0,1.5-0.6,1.6-1.4V24.2L29.8,24.2z"/>
	<path class="st0" d="M33.7,22.5c0.3-0.4,0.7-1.1,1.8-1.1c0.7,0,1.1,0.4,1.3,1.1c0.2-0.3,0.3-0.5,0.5-0.7c0.3-0.3,0.7-0.5,1.2-0.5
		c0.8,0,1.3,0.5,1.3,1.5v3.5h0.8V27H39v-3.8c0-0.8-0.3-1.1-0.8-1.1c-1,0-1.5,1.1-1.5,1.5v2.8h0.8V27h-1.6v-3.9c0-0.7-0.3-1-0.8-1
		c-0.8,0-1.5,1.1-1.5,1.6v2.7h0.8V27H32v-0.7h0.8v-4.2H32v-0.7h1.6L33.7,22.5L33.7,22.5z"/>
	<path class="st0" d="M41.3,19.5h1.5v3.2c0.2-0.4,0.8-1.2,1.8-1.2c1.2,0,2.2,1.3,2.2,2.9c0,1.5-1,2.8-2.2,2.8c-1,0-1.5-0.7-1.8-1.1
		v1h-1.6v-0.7H42v-6.2h-0.7V19.5L41.3,19.5z M42.8,24.7c0,0.9,0.7,1.6,1.6,1.7c1,0,1.5-0.8,1.5-2.2s-0.6-2.1-1.5-2.1
		c-0.8,0-1.6,0.9-1.6,1.7V24.7L42.8,24.7z"/>
	<path class="st0" d="M47.3,19.5h1.6v6.9h0.7V27h-2.3v-0.7h0.8V20h-0.8V19.5L47.3,19.5z"/>
	<path class="st0" d="M55,25.5c-0.1,0.3-0.2,0.6-0.4,0.8c-0.4,0.5-1.1,0.8-1.8,0.8c-1.5,0-2.5-1.2-2.5-2.8c0-1.6,1.1-2.8,2.4-2.8
		s2.4,1.1,2.4,3h-4c0.1,0.8,0.3,1.3,0.6,1.6c0.3,0.3,0.7,0.4,1,0.4c0.6,0,1-0.3,1.3-1H55L55,25.5z M54.1,23.8c0-0.5-0.2-1-0.5-1.4
		c-0.3-0.2-0.6-0.4-0.9-0.3c-0.7,0-1.3,0.5-1.5,1.2c0,0.2-0.1,0.4-0.1,0.5L54.1,23.8L54.1,23.8z"/>
	<path class="st0" d="M58.4,19.8h1.8l2,6h0.5V27h-1.6l-0.5-1.6H58L57.6,27h-1.7v-1.2h0.5L58.4,19.8z M59.3,21.2l-1,3.2h1.9
		L59.3,21.2z"/>
	<path class="st0" d="M62.6,21.5h2.2v1.1h-0.6l0.8,3.2l0.9-4.3h1.4l0.9,4.2l0.7-3.2h-0.6v-1.1h2.2v1.1H70L69,27h-1.5l-0.9-3.8
		L65.8,27h-1.5l-1.2-4.4h-0.5L62.6,21.5L62.6,21.5z"/>
	<path class="st0" d="M75.8,26h0.5v1h-1.7v-0.7c-0.4,0.5-1,0.8-1.7,0.8c-1.1,0-1.9-0.7-1.9-1.7c0-1.6,1.8-1.8,3.6-1.9
		c0-0.8-0.3-1.1-1-1.1s-0.9,0.3-1,0.8l0,0h-1.3c0.1-1.1,0.9-1.8,2.3-1.8c1.5,0,2.3,0.7,2.3,1.9L75.8,26L75.8,26z M74.5,24.5
		c-1.3,0.1-2.1,0.2-2.1,1c0,0.4,0.4,0.7,0.9,0.7c0.7,0,1.2-0.5,1.2-1.2l0,0V24.5L74.5,24.5L74.5,24.5z"/>
	<path class="st0" d="M78.9,22.4c0.4-0.7,0.8-1,1.4-1c0.2,0,0.4,0,0.6,0.1v1.3c-0.2,0-0.4-0.1-0.7-0.1c-0.7,0-1.3,0.5-1.3,1.1v2.1
		h0.7V27H77v-1.1h0.6v-3.4H77v-1.1h1.9V22.4L78.9,22.4z"/>
	<path class="st0" d="M86.4,25.2c-0.3,1.2-1.2,1.9-2.6,1.9c-1.5,0-2.7-1.2-2.7-2.9s1.1-2.9,2.7-2.9c0.8,0,1.6,0.4,2.1,1.1
		c0.4,0.6,0.6,1.3,0.6,2h-3.9c0.2,1.4,1.1,1.5,1.3,1.5c0.5,0,1-0.3,1.1-0.8L86.4,25.2L86.4,25.2z M85,23.6c0-0.6-0.5-1.1-1.1-1.1
		l0,0c-0.6,0-1.1,0.5-1.2,1.1H85L85,23.6z"/>
	<g class="st1">
		<path class="st0" d="M100.4,16.6c0.2,0,0.3,0,0.4,0.1s0.2,0.2,0.2,0.4c0,0.1,0,0.2-0.1,0.3c-0.1,0.1-0.1,0.1-0.2,0.2l0,0
			c0.1,0,0.1,0,0.1,0s0.1,0,0.1,0.1v0.1v0.1V18v0.1v0.1c0,0,0,0.1,0.1,0.1h-0.3c0,0,0,0,0-0.1v-0.1V18v-0.1v-0.1c0,0,0-0.1-0.1-0.1
			c0,0-0.1,0-0.1-0.1h-0.1h-0.6v0.8h-0.2v-1.8H100.4L100.4,16.6z M100.4,17.4C100.5,17.4,100.5,17.4,100.4,17.4l0.2-0.1
			c0,0,0-0.1,0-0.2s0-0.2-0.1-0.2s-0.1-0.1-0.2-0.1h-0.6v0.6h0.5C100.3,17.4,100.4,17.4,100.4,17.4z"/>
	</g>
	<g>
		<path class="st0" d="M100.2,19.3c-1,0-1.8-0.8-1.8-1.8s0.8-1.8,1.8-1.8s1.8,0.8,1.8,1.8S101.2,19.3,100.2,19.3z M100.2,16.1
			c-0.8,0-1.5,0.7-1.5,1.5s0.7,1.5,1.5,1.5s1.5-0.7,1.5-1.5C101.7,16.7,101,16.1,100.2,16.1z"/>
	</g>
	<g>
		<path class="st0" d="M87.2,26.3h0.7V27h-0.7V26.3z"/>
		<path class="st0" d="M88.4,25c0-1.2,0.7-2,1.8-2c1.1,0,1.8,0.9,1.8,2c0,1.2-0.8,2.1-1.8,2.1C89.2,27.1,88.4,26.2,88.4,25z
			 M90.2,26.6c0.8,0,1.2-0.6,1.2-1.6c0-0.9-0.5-1.5-1.2-1.5S89,24.1,89,25C89.1,26,89.5,26.6,90.2,26.6z"/>
		<path class="st0" d="M93.6,23.9c0.2-0.4,0.3-0.5,0.5-0.7s0.5-0.3,0.7-0.3c0.1,0,0.2,0,0.4,0v0.6c-0.2,0-0.3,0-0.4,0
			c-1.1,0-1.2,1.1-1.2,1.2v1.8h0.7V27h-1.8v-0.5H93v-3h-0.6V23h1.2V23.9L93.6,23.9z"/>
		<path class="st0" d="M98.3,26c-0.4,0.5-0.8,0.7-1.2,0.7c-0.9,0-1.6-0.8-1.6-1.9S96.1,23,97,23c0.7,0,1.1,0.5,1.2,0.8V23h1.1v0.5
			h-0.6v3.2c0,1-0.6,1.5-1.7,1.5c-0.7,0-1.2-0.3-1.5-0.8c-0.1-0.1-0.1-0.2-0.2-0.4h0.6c0.2,0.5,0.5,0.6,1,0.6c0.7,0,1.1-0.3,1.1-0.9
			L98.3,26L98.3,26z M98.3,24.5c0-0.4-0.5-1-1.1-1s-1,0.5-1,1.4s0.4,1.4,1.1,1.4c0.6,0,1.1-0.6,1.1-1L98.3,24.5L98.3,24.5z"/>
	</g>
</g>
</svg>
