<?xml version="1.0" encoding="utf-8"?>
<!-- Generator: Adobe Illustrator 24.1.3, SVG Export Plug-In . SVG Version: 6.00 Build 0)  -->
<svg version="1.1" id="Layer_1" xmlns="http://www.w3.org/2000/svg" xmlns:xlink="http://www.w3.org/1999/xlink" x="0px" y="0px"
	 viewBox="0 0 131 40" style="enable-background:new 0 0 131 40;" xml:space="preserve">
<style type="text/css">
	.st0{fill-rule:evenodd;clip-rule:evenodd;fill:#FFFFFF;}
</style>
<g>
	<polygon class="st0" points="6.4,26.8 14.5,35.7 32.9,21.6 15,30.5 	"/>
	<path class="st0" d="M45.7,22.6c0-0.2,0-0.3,0-0.5c0-1.1-0.3-2-0.9-2.6c-0.6-0.6-1.5-1-2.5-1c-0.6,0-1.2,0.1-1.8,0.4
		c-0.5,0.3-1,0.6-1.4,1c-0.4,0.4-0.8,0.9-1,1.5c-0.3,0.5-0.5,1.1-0.6,1.7h8.3C45.7,22.9,45.7,22.8,45.7,22.6 M37.1,25.5
		c0,0.6,0.1,1.1,0.2,1.6c0.1,0.5,0.4,0.9,0.7,1.3c0.3,0.4,0.7,0.6,1.2,0.9c0.5,0.2,1,0.3,1.6,0.3c1,0,1.9-0.3,2.6-0.9
		c0.7-0.6,1.2-1.4,1.5-2.3h1.5c-0.4,1.5-1.1,2.6-2.1,3.3c-1,0.8-2.2,1.2-3.7,1.2c-1.7,0-3-0.5-3.8-1.5c-0.9-1-1.3-2.3-1.3-4
		c0-1,0.2-2,0.5-3c0.3-1,0.7-1.8,1.3-2.6c0.6-0.8,1.3-1.4,2.2-1.8c0.9-0.5,1.8-0.7,2.9-0.7c0.8,0,1.5,0.1,2,0.4
		c0.6,0.2,1.1,0.6,1.5,1c0.4,0.4,0.7,1,0.9,1.6c0.2,0.6,0.3,1.3,0.3,2.1c0,0.4,0,0.7,0,1.1c0,0.4,0,0.7-0.1,1.1h-9.9
		C37.1,24.8,37.1,25.1,37.1,25.5 M61.6,29.2c-1.3,1.1-3,1.7-5.2,1.7c-2.4,0-4.3-0.7-5.6-2c-1.3-1.4-2-3.3-2-5.8
		c0-1.4,0.2-2.8,0.7-4.1c0.4-1.3,1.1-2.5,1.9-3.5c0.8-1,1.8-1.8,3-2.4c1.2-0.6,2.5-0.9,4-0.9c1,0,1.8,0.1,2.6,0.4
		c0.8,0.3,1.5,0.6,2.1,1.2c0.6,0.5,1.1,1.1,1.4,1.9c0.3,0.8,0.5,1.7,0.5,2.7h-2.3c0-1.4-0.4-2.4-1.2-3.1c-0.8-0.7-1.9-1-3.1-1
		c-1.2,0-2.3,0.3-3.2,0.8c-0.9,0.5-1.7,1.2-2.3,2c-0.6,0.8-1.1,1.8-1.4,2.8c-0.3,1.1-0.5,2.1-0.5,3.2c0,0.9,0.1,1.7,0.3,2.4
		c0.2,0.7,0.5,1.3,1,1.8c0.4,0.5,1,0.9,1.6,1.2c0.6,0.3,1.4,0.4,2.3,0.4c1.4,0,2.6-0.4,3.5-1.2c0.9-0.8,1.5-1.9,1.9-3.3h2.3
		C63.8,26.5,62.9,28,61.6,29.2 M68.3,25.5c0.2,0.7,0.5,1.3,1,1.8s1,0.9,1.6,1.2c0.6,0.3,1.4,0.4,2.3,0.4c1.2,0,2.2-0.3,3.1-0.8
		c0.9-0.5,1.6-1.2,2.2-2c0.6-0.8,1-1.8,1.4-2.8s0.5-2.1,0.5-3.2c0-0.8-0.1-1.6-0.3-2.3c-0.2-0.7-0.5-1.3-1-1.9
		c-0.4-0.5-0.9-0.9-1.6-1.3c-0.6-0.3-1.3-0.5-2.2-0.5c-1.2,0-2.3,0.3-3.2,0.8c-0.9,0.5-1.7,1.2-2.3,2c-0.6,0.8-1.1,1.8-1.4,2.8
		C68.2,20.9,68,22,68,23.1C68,23.9,68.1,24.7,68.3,25.5 M66.3,18.9c0.4-1.3,1.1-2.5,1.9-3.5c0.8-1,1.8-1.8,3-2.4
		c1.2-0.6,2.5-0.9,4-0.9c1.1,0,2.2,0.2,3.1,0.6c0.9,0.4,1.7,1,2.3,1.7c0.6,0.7,1.1,1.5,1.5,2.5c0.3,1,0.5,2,0.5,3.1
		c0,1.4-0.2,2.7-0.7,4c-0.4,1.3-1.1,2.4-1.9,3.4c-0.8,1-1.8,1.8-3,2.4c-1.2,0.6-2.5,0.9-3.9,0.9c-2.4,0-4.3-0.7-5.6-2
		c-1.3-1.4-2-3.3-2-5.8C65.7,21.6,65.9,20.2,66.3,18.9 M93.7,30.4c-0.9,0.3-1.9,0.5-2.8,0.5c-2.4,0-4.3-0.7-5.6-2
		c-1.3-1.4-2-3.3-2-5.8c0-1.4,0.2-2.8,0.7-4.1c0.4-1.3,1.1-2.5,1.9-3.5c0.8-1,1.8-1.8,3-2.4c1.2-0.6,2.5-0.9,4-0.9
		c1,0,1.9,0.1,2.7,0.3c0.9,0.2,1.6,0.6,2.3,1.1c0.6,0.5,1.1,1.1,1.5,1.9c0.4,0.7,0.6,1.6,0.6,2.7h-2.3c0-0.7-0.1-1.3-0.4-1.8
		c-0.3-0.5-0.6-0.9-1-1.2c-0.4-0.3-0.9-0.6-1.5-0.7c-0.6-0.2-1.2-0.2-1.8-0.2c-1.2,0-2.3,0.3-3.2,0.8c-0.9,0.5-1.7,1.2-2.3,2
		c-0.6,0.8-1.1,1.8-1.4,2.8c-0.3,1.1-0.5,2.1-0.5,3.2c0,0.9,0.1,1.7,0.3,2.4c0.2,0.7,0.5,1.3,1,1.8c0.4,0.5,1,0.9,1.6,1.2
		c0.6,0.3,1.4,0.4,2.3,0.4c0.9,0,1.8-0.1,2.4-0.4c0.7-0.3,1.3-0.7,1.8-1.2c0.5-0.5,0.9-1.1,1.3-1.8c0.3-0.7,0.6-1.5,0.8-2.4h-5.6
		l0.4-2h7.7l-1.9,9.4h-1.5l-0.1-1.8C95.4,29.5,94.6,30,93.7,30.4 M109.9,20.9c0.9,0,1.7-0.1,2.2-0.4c0.6-0.2,1-0.6,1.3-0.9
		c0.3-0.4,0.5-0.7,0.6-1.1c0.1-0.4,0.2-0.8,0.2-1.1c0-0.5-0.1-1-0.3-1.3c-0.2-0.4-0.5-0.6-0.8-0.8c-0.3-0.2-0.7-0.3-1.1-0.4
		c-0.4-0.1-0.8-0.1-1.3-0.1h-4.8l-1.3,6.2H109.9z M110.8,12.6c0.7,0,1.5,0.1,2.2,0.2c0.7,0.1,1.3,0.4,1.9,0.7c0.5,0.3,1,0.8,1.3,1.4
		c0.3,0.6,0.5,1.3,0.5,2.2c0,0.6-0.1,1.2-0.3,1.7c-0.2,0.5-0.5,1-0.8,1.5c-0.3,0.4-0.8,0.8-1.2,1.1c-0.5,0.3-1,0.5-1.6,0.6V22
		c0.4,0.1,0.7,0.3,0.9,0.5c0.3,0.3,0.5,0.5,0.6,0.9c0.1,0.3,0.2,0.7,0.3,1.1c0,0.4,0,0.8,0,1.3c0,0.4-0.1,0.8-0.1,1.2
		c-0.1,0.4-0.1,0.8-0.1,1.2c0,0.4,0,0.8,0,1.1c0,0.4,0.1,0.7,0.3,1.1H112c-0.1-0.3-0.2-0.8-0.2-1.5c0-0.7,0.1-1.4,0.2-2.3
		c0.1-0.8,0.2-1.4,0.1-1.9c-0.1-0.5-0.2-0.9-0.4-1.1c-0.2-0.3-0.4-0.5-0.7-0.5c-0.3-0.1-0.5-0.2-0.8-0.2h-0.9h-5.2l-1.6,7.6h-2.3
		l3.7-17.8H110.8z M127.4,23.1l-1.3-8.4h0l-4.7,8.4H127.4z M127.8,12.6l3.2,17.8h-2.4l-0.8-5.4h-7.4l-3.1,5.4h-2.6l10.6-17.8H127.8z
		 M3.3,26l15.6-3.6l11,10.5L14,37.7L3.3,26z M18.8,20.8L0.2,25.1l13.2,14.3l19.5-6L18.8,20.8z"/>
	<polygon class="st0" points="3.3,19.4 14.5,35.7 38.8,0.4 15,25.3 	"/>
</g>
</svg>
