<svg xmlns="http://www.w3.org/2000/svg" xmlns:xlink="http://www.w3.org/1999/xlink" width="110" height="46" viewBox="0 0 110 46">
  <defs>
    <polygon id="gamcare-logo-a" points="0 46 109.982 46 109.982 0 0 0"/>
  </defs>
  <g fill="none" fill-rule="evenodd">
    <polygon fill="#000" points="0 46 22 46 22 0 0 0"/>
    <polygon fill="#000" points="46 46 110 46 110 0 46 0"/>
    <polygon fill="#FFF" points="22 46 46 46 46 0 22 0"/>
    <path fill="#FFF" d="M52.9002177 9.50907736L53.3341294 9.50907736C53.9480561 9.50907736 54.3846829 9.4299508 54.6448325 9.2712877 54.904982 9.11303458 55.0355505 8.84277433 55.0355505 8.46124492 55.0355505 8.06528414 54.9165004 7.7878902 54.6774951 7.62922709 54.4393126 7.47105597 54.0124764 7.39192941 53.3985497 7.39192941L52.9002177 7.39192941 52.9002177 9.50907736zM51.4157524 13.9592699L51.4157524 5.97658895 53.3985497 5.97658895C54.4895819 5.97658895 55.2843463 6.17133048 55.7835011 6.55991159 56.2819155 6.94882068 56.531534 7.57560143 56.531534 8.43967986 56.531534 9.31827166 56.2854533 9.95169412 55.7941144 10.3406852 55.3028579 10.7295943 54.4966574 10.9239258 53.3774054 10.9239258L52.9002177 10.9239258 52.9002177 13.9592699 51.4157524 13.9592699zM58.0600075 13.9592617L58.0600075 7.97516185 59.3821466 7.97516185 59.3821466 8.5584025C59.5700598 8.28502638 59.7578908 8.09553262 59.9457218 7.99139715 60.133635 7.8867697 60.3753553 7.83445597 60.671623 7.83445597L60.7906731 7.83445597 60.7906731 9.21724385C59.9307479 9.21724385 59.501279 9.68880535 59.501279 10.6325023L59.501279 13.9592617 58.0600075 13.9592617zM64.9062446 9.15262246C64.4264241 9.15262246 64.0154667 9.3288328 63.6740307 9.68182745 63.3318542 10.0347401 63.1616298 10.4632535 63.1616298 10.9669576 63.1616298 11.4710717 63.3318542 11.899585 63.6740307 12.2525797 64.0154667 12.6054923 64.4264241 12.7817847 64.9062446 12.7817847 65.3940456 12.7817847 65.807718 12.6054923 66.1498945 12.2525797 66.4912483 11.899585 66.6623777 11.4710717 66.6623777 10.9669576 66.6623777 10.4632535 66.4912483 10.0347401 66.1498945 9.68182745 65.807718 9.3288328 65.3940456 9.15262246 64.9062446 9.15262246M64.9062446 7.83444777C65.8024525 7.83444777 66.5592064 8.13906453 67.1774114 8.74739608 67.7948758 9.35613761 68.1035669 10.0993533 68.1035669 10.9779451 68.1035669 11.8350538 67.7931481 12.5694959 67.1721458 13.1817633 66.5503209 13.7935387 65.7989147 14.0994674 64.9177629 14.0994674 64.0357061 14.0994674 63.2824899 13.7957526 62.6580322 13.1870111 62.0325871 12.5782695 61.7203583 11.8384977 61.7203583 10.9669576 61.7203583 10.1028791 62.0308594 9.36491123 62.6518616 8.75264385 63.2736043 8.14086845 64.0250927 7.83444777 64.9062446 7.83444777M72.1970314 9.10910695C71.689896 9.10910695 71.2708758 9.27654367 70.9410404 9.61149911 70.6112049 9.94637255 70.4470688 10.3802157 70.4470688 10.9133565 70.4470688 11.4675704 70.6093949 11.9176488 70.9357749 12.2635918 71.2621548 12.6090428 71.689896 12.7818093 72.2191631 12.7818093 72.7403672 12.7818093 73.164653 12.6125686 73.4910329 12.2740873 73.8172483 11.9356881 73.9795744 11.4895455 73.9795744 10.9349216 73.9795744 10.3947291 73.8129701 9.95563815 73.4795146 9.61674688 73.1460591 9.27875758 72.7192229 9.10910695 72.1970314 9.10910695zM69.0923493 13.9592781L69.0923493 5.97659715 70.5335385 5.97659715 70.5335385 8.52586631C70.8007636 8.25954189 71.0750643 8.0775098 71.3573455 7.98042602 71.6387218 7.88326025 71.9853411 7.83447237 72.3972857 7.83447237 73.2642865 7.83447237 73.985745 8.12457576 74.5600157 8.70429055 75.1341219 9.28400535 75.4216687 10.0237772 75.4216687 10.923934 75.4216687 11.845984 75.1465453 12.6055169 74.5979439 13.2032709 74.0484375 13.801025 73.3480411 14.09941 72.4951915 14.09941 72.0542042 14.09941 71.6748399 14.0313529 71.3573455 13.8946649 71.0389461 13.7579768 70.7249073 13.523631 70.4144884 13.1922834L70.4144884 13.9592781 69.0923493 13.9592781z"/>
    <mask id="gamcare-logo-b" fill="#fff">
      <use xlink:href="#gamcare-logo-a"/>
    </mask>
    <polygon fill="#FFF" points="76.511 13.959 77.952 13.959 77.952 5.977 76.511 5.977" mask="url(#gamcare-logo-b)"/>
    <path fill="#FFF" d="M80.6684136 10.3406524L83.9953994 10.3406524C83.8074862 9.54864884 83.2588848 9.15260606 82.3486904 9.15260606 81.459558 9.15260606 80.8995206 9.54864884 80.6684136 10.3406524M85.3616372 11.6042995L80.7116073 11.6042995C80.798077 11.9646738 80.987718 12.2508414 81.2805303 12.4631301 81.5733426 12.6758289 81.9367457 12.7817683 82.3698347 12.7817683 82.6732603 12.7817683 82.9227966 12.7387201 83.1177853 12.6520499 83.3126918 12.5659537 83.5041429 12.4112264 83.6919738 12.1879501L85.2637315 12.1879501C85.0828938 12.7492977 84.7256612 13.2085597 84.1911286 13.5649982 83.6558556 13.9214367 83.0595355 14.099451 82.4024151 14.099451 81.4922206 14.099451 80.7222206 13.801066 80.0942251 13.2033119 79.4653246 12.6055579 79.151368 11.86759 79.151368 10.9889162 79.151368 10.1103244 79.4582491 9.36489483 80.0721758 8.75262745 80.6860202 8.14085205 81.4340531 7.83451337 82.3160277 7.83451337 83.2112483 7.83451337 83.9521234 8.1373262 84.5378302 8.74213191 85.122632 9.34685561 85.4154443 10.1173761 85.4154443 11.0535294 85.4154443 11.247779 85.3977554 11.431533 85.3616372 11.6042995M86.5671369 13.9592617L86.5671369 7.97516185 87.889276 7.97516185 87.889276 8.53683743C88.2791713 8.06871979 88.7995527 7.83445597 89.4495976 7.83445597 89.8685355 7.83445597 90.2151548 7.90661283 90.4903605 8.05068057 90.7646612 8.1949123 91.0062992 8.43270196 91.2162618 8.76363957 91.686374 8.1443205 92.3258055 7.83445597 93.1346387 7.83445597 94.7602034 7.83445597 95.5734794 8.72403529 95.5734794 10.502866L95.5734794 13.9592617 94.1322079 13.9592617 94.1322079 10.6755504C94.1322079 10.1429016 94.0431055 9.75563244 93.8667928 9.51439893 93.6894106 9.27308342 93.4018639 9.15263066 93.0049753 9.15263066 92.5710636 9.15263066 92.2605625 9.29456649 92.0727315 9.57893012 91.8848182 9.86378574 91.7904503 10.340677 91.7904503 11.0105059L91.7904503 13.9592617 90.349261 13.9592617 90.349261 10.6755504C90.349261 10.1429016 90.2574435 9.75563244 90.0731503 9.51439893 89.8887749 9.27308342 89.5942349 9.15263066 89.1893657 9.15263066 88.7562767 9.15263066 88.4511234 9.29104064 88.2738235 9.56843458 88.0965236 9.84574652 88.0084084 10.3261636 88.0084084 11.0105059L88.0084084 13.9592617 86.5671369 13.9592617zM54.6253994 24.043626L54.6253994 22.6604282 59.5078527 22.6604282 59.5078527 22.779159 59.5078527 22.8222071C59.5078527 23.9605636 59.1045467 24.9203319 58.2981818 25.7020859 57.4926395 26.4838399 56.5008295 26.874307 55.3220935 26.874307 54.0867532 26.874307 53.0509267 26.4763783 52.2162595 25.6805209 51.3815101 24.8847455 50.9642177 23.8993943 50.9642177 22.7250414 50.9642177 21.5796332 51.3718018 20.6070734 52.1888624 19.8077722 53.0058407 19.007979 54.0029985 18.6083283 55.1817345 18.6083283 56.0632154 18.6083283 56.8705677 18.8386563 57.6046141 19.2998863 58.3378377 19.7607062 58.8390494 20.3587062 59.1063568 21.0933943L57.3496477 21.0933943C56.8440755 20.387733 56.1099469 20.0346563 55.1490718 20.0346563 54.3752872 20.0346563 53.7337988 20.2922891 53.2247711 20.8071447 52.7146739 21.3224103 52.4597898 21.9687882 52.4597898 22.7466064 52.4597898 23.5177829 52.7252872 24.1605529 53.2573515 24.6754906 53.7885108 25.1907561 54.4476881 25.447979 55.2355415 25.447979 55.7631631 25.447979 56.2335221 25.3257223 56.645549 25.0807989 57.0567532 24.8359576 57.3716971 24.4903426 57.5888175 24.043626L54.6253994 24.043626zM63.4066739 21.9274538C62.8844824 21.9274538 62.460279 22.1001383 62.134804 22.4456713 61.8084241 22.7915323 61.6452752 23.2416107 61.6452752 23.7959066 61.6452752 24.3215037 61.8084241 24.7465733 62.134804 25.0705412 62.460279 25.3948371 62.891558 25.556616 63.4278182 25.556616 63.957003 25.556616 64.381371 25.3913112 64.6997704 25.0599636 65.0190748 24.728534 65.1786859 24.2964948 65.1786859 23.763764 65.1786859 23.2306232 65.0119993 22.7915323 64.6785438 22.4456713 64.3450883 22.1001383 63.9208848 21.9274538 63.4066739 21.9274538zM66.5440187 20.749985L66.5440187 26.7340848 65.2217973 26.7340848 65.2217973 25.9565947C64.9396806 26.2804806 64.6432483 26.5143344 64.3328295 26.6584841 64.0223283 26.8026339 63.6536597 26.8742988 63.2276462 26.8742988 62.3456717 26.8742988 61.6214981 26.5810795 61.0543029 25.994395 60.48719 25.4072185 60.2040037 24.6639209 60.2040037 23.763764 60.2040037 22.8491758 60.4907277 22.0948906 61.0658212 21.5006624 61.6399274 20.9064342 62.3676387 20.6092791 63.2496956 20.6092791 63.6968534 20.6092791 64.0743254 20.681436 64.3821937 20.8255857 64.6891571 20.9697355 64.9687233 21.211051 65.2217973 21.5494503L65.2217973 20.749985 66.5440187 20.749985zM67.9328571 26.734093L67.9328571 20.7499932 69.254914 20.7499932 69.254914 21.3116688C69.6448915 20.8436332 70.165273 20.6092873 70.8152356 20.6092873 71.2342558 20.6092873 71.5808751 20.6814442 71.8560808 20.8255939 72.1303815 20.9697437 72.3720194 21.2075333 72.581982 21.5384709 73.0520942 20.9191519 73.6915258 20.6092873 74.500359 20.6092873 76.1259237 20.6092873 76.9391174 21.4989487 76.9391174 23.2776973L76.9391174 26.734093 75.4979282 26.734093 75.4979282 23.4503818C75.4979282 22.917733 75.4088257 22.5304638 75.2324308 22.2891483 75.0551309 22.0479148 74.7675841 21.927462 74.3706956 21.927462 73.9367838 21.927462 73.6262827 22.0693979 73.4383695 22.3538435 73.2505385 22.6386171 73.1560883 23.1155084 73.1560883 23.7853373L73.1560883 26.734093 71.7149813 26.734093 71.7149813 23.4503818C71.7149813 22.917733 71.6231638 22.5304638 71.4388706 22.2891483 71.2544951 22.0479148 70.9599551 21.927462 70.555086 21.927462 70.121997 21.927462 69.8167614 22.065872 69.6395438 22.343266 69.4622438 22.6205779 69.3740464 23.100995 69.3740464 23.7853373L69.3740464 26.734093 67.9328571 26.734093zM81.6896036 21.8839301C81.1824682 21.8839301 80.763448 22.0513668 80.4336126 22.3863223 80.1037771 22.7211957 79.939641 23.1550389 79.939641 23.6881797 79.939641 24.2423936 80.1019671 24.692472 80.428347 25.038415 80.7546447 25.383866 81.1824682 25.5566324 81.711653 25.5566324 82.2329394 25.5566324 82.6572251 25.3873918 82.9835228 25.0489925 83.3098205 24.7105112 83.4721466 24.2643686 83.4721466 23.7097447 83.4721466 23.1695522 83.30546 22.7304613 82.9720868 22.3915701 82.6386313 22.0535807 82.2117951 21.8839301 81.6896036 21.8839301zM78.5849215 26.7341012L78.5849215 18.7514203 80.0261107 18.7514203 80.0261107 21.3006895C80.2933358 21.0343651 80.5676365 20.852333 80.8499177 20.7552492 81.1312939 20.6580834 81.4779132 20.6092955 81.8898579 20.6092955 82.7568586 20.6092955 83.4783171 20.8993989 84.0525879 21.4791137 84.6266941 22.0588285 84.9142408 22.7986004 84.9142408 23.6987572 84.9142408 24.6208071 84.6391174 25.3803401 84.0905161 25.9780941 83.5409274 26.5758481 82.8406133 26.8743152 81.9876814 26.8743152 81.5467764 26.8743152 81.1674121 26.8061761 80.8499177 26.6694881 80.5315183 26.5328 80.2174794 26.2985362 79.9070606 25.9671066L79.9070606 26.7341012 78.5849215 26.7341012z" mask="url(#gamcare-logo-b)"/>
    <polygon fill="#FFF" points="85.994 26.804 87.435 26.804 87.435 18.822 85.994 18.822" mask="url(#gamcare-logo-b)"/>
    <path fill="#FFF" d="M89.1197457 26.8041426L90.5609349 26.8041426 90.5609349 20.8200428 89.1197457 20.8200428 89.1197457 26.8041426zM89.1197457 20.171779L90.5609349 20.171779 90.5609349 18.8215437 89.1197457 18.8215437 89.1197457 20.171779zM92.2658033 26.8042L92.2658033 20.8201002 93.5985557 20.8201002 93.5985557 21.3817758C93.8657809 21.1264389 94.1260127 20.9458007 94.379169 20.8393693 94.6314203 20.73302 94.9347636 20.6793943 95.2893635 20.6793943 96.0911212 20.6793943 96.676828 20.9102143 97.0454966 21.3707882 97.4132603 21.8318542 97.5976358 22.5737579 97.5976358 23.5960895L97.5976358 26.8042 96.1564465 26.8042 96.1564465 23.8703676C96.1564465 23.1702 96.0717868 22.6815012 95.9014802 22.4036973 95.7321608 22.1258934 95.434083 21.9865815 95.0070823 21.9865815 94.5378751 21.9865815 94.2036791 22.1399968 94.0052349 22.4467455 93.8058856 22.7535761 93.7070748 23.2642499 93.7070748 23.9785209L93.7070748 26.8042 92.2658033 26.8042zM101.706313 22.1145861C101.199177 22.1145861 100.793403 22.2803009 100.489155 22.6112385 100.183919 22.9426681 100.032206 23.3892207 100.032206 23.9509783 100.032206 24.4981405 100.183919 24.9337055 100.489155 25.2576734 100.793403 25.5820513 101.206253 25.7437483 101.728444 25.7437483 102.257547 25.7437483 102.675662 25.5802474 102.984353 25.2523437 103.292139 24.9249319 103.446567 24.4765754 103.446567 23.9074381 103.446567 23.382169 103.285146 22.9514417 102.962386 22.6165683 102.639544 22.2820228 102.221429 22.1145861 101.706313 22.1145861zM103.510987 20.9371173L104.887756 20.9371173 104.887756 25.7872884C104.887756 28.1347643 103.850531 29.3082973 101.776821 29.3082973 101.032491 29.3082973 100.392977 29.1425825 99.8585266 28.8116449 99.323994 28.4802153 98.934181 28.0120977 98.688018 27.407374L100.325101 27.407374C100.700845 27.8319515 101.195639 28.0446503 101.809566 28.0446503 102.366148 28.0446503 102.788542 27.8859872 103.077898 27.5694809 103.36635 27.2521547 103.510987 26.7735415 103.510987 26.1327394 103.229611 26.464087 102.936717 26.7014667 102.633373 26.8456164 102.329948 26.9898481 101.964817 27.061431 101.538721 27.061431 100.685871 27.061431 99.9820194 26.762964 99.4254375 26.16521 98.8689379 25.567456 98.5910995 24.808005 98.5910995 23.8858731 98.5910995 23.0002296 98.8705834 22.2640656 99.4307031 21.6768891 99.9907405 21.0900406 100.697307 20.7964934 101.549334 20.7964934 102.409342 20.7964934 103.062842 21.0953704 103.510987 21.6931244L103.510987 20.9371173zM51.0697091 37.2110235L52.626822 37.2110235C52.6923942 37.8769986 53.05481 38.2094941 53.7158796 38.2094941 54.0349372 38.2094941 54.2964031 38.11938 54.5001952 37.9383319 54.7030823 37.7576938 54.8050194 37.522364 54.8050194 37.2331626 54.8050194 36.9509308 54.7217584 36.7190449 54.5542491 36.5384888 54.3876447 36.3573586 54.1040471 36.1948417 53.7052663 36.050036L53.0405767 35.8005209C51.9231346 35.3880788 51.36392 34.6607704 51.36392 33.6190057 51.36392 32.9822214 51.5890209 32.4434228 52.0392229 32.001872 52.4894248 31.5607312 53.0441967 31.3399148 53.7052663 31.3399148 54.3947203 31.3399148 54.9645482 31.5496617 55.4147502 31.9691554 55.8648699 32.3891412 56.0900531 32.9389273 56.0900531 33.6190057L54.5436358 33.6190057C54.5436358 33.3439077 54.467368 33.1341608 54.3149147 32.9892731 54.1625438 32.8448774 53.9551316 32.7724745 53.6937479 32.7724745 53.4544136 32.7724745 53.2568743 32.8466813 53.100801 32.9950948 52.9439873 33.1434264 52.8669791 33.3403818 52.8669791 33.5863711 52.8669791 33.8107134 52.935184 33.9899576 53.0734039 34.1237758 53.2116238 34.2575939 53.4651092 34.3966599 53.8355056 34.5415476L54.2059843 34.6718399C54.968086 34.9610414 55.5050868 35.2847633 55.8179738 35.6428417 56.1298736 36.0010021 56.2858646 36.4805993 56.2858646 37.0812232 56.2858646 37.8045137 56.038632 38.4121893 55.5450718 38.9040859 55.0514293 39.3964745 54.4416986 39.6420538 53.7158796 39.6420538 52.9537779 39.6420538 52.3219155 39.4181216 51.8211975 38.9695191 51.3205617 38.5208346 51.0697091 37.9348061 51.0697091 37.2110235M62.8756709 33.5177401L62.8756709 39.5018399 61.5420957 39.5018399 61.5420957 38.9291768C61.2748706 39.1884496 61.011101 39.3722036 60.7509514 39.4802749 60.4907195 39.5884282 60.1802184 39.6420538 59.8186253 39.6420538 58.2944218 39.6420538 57.5324847 38.6702321 57.5324847 36.7257686L57.5324847 33.5177401 58.9735916 33.5177401 58.9735916 36.4449308C58.9735916 37.1433765 59.0565236 37.6316652 59.2223874 37.9085672 59.389074 38.1858791 59.6854241 38.3243711 60.1114375 38.3243711 60.6026941 38.3243711 60.9458579 38.1784175 61.1407644 37.8870021 61.3365759 37.5951768 61.4336589 37.0787633 61.4336589 36.3368595L61.4336589 33.5177401 62.8756709 33.5177401zM67.4678953 34.8358492C66.9677532 34.8358492 66.5506253 35.0086157 66.2180748 35.3540667 65.8837143 35.7000096 65.7179327 36.1355747 65.7179327 36.6611718 65.7179327 37.1727476 65.8881571 37.600933 66.2286058 37.9467939 66.5690546 38.2922449 66.9898025 38.4650114 67.4899447 38.4650114 67.9679551 38.4650114 68.3737292 38.2922449 68.7071847 37.9467939 69.0404757 37.600933 69.2072446 37.1727476 69.2072446 36.6611718 69.2072446 36.1500061 69.0404757 35.7179668 68.7071847 35.3650542 68.3737292 35.0120595 67.9608796 34.8358492 67.4678953 34.8358492zM64.3632132 41.6409793L64.3632132 33.6583804 65.68527 33.6583804 65.68527 34.3602699C66.161635 33.7985943 66.8195782 33.5177565 67.6575363 33.5177565 68.524537 33.5177565 69.239825 33.8095818 69.8034824 34.3928225 70.3670576 34.9760631 70.6493388 35.7214927 70.6493388 36.6287012 70.6493388 37.5433715 70.3670576 38.2975747 69.8034824 38.8918029 69.239825 39.486031 68.5209993 39.7826941 67.646923 39.7826941 67.278172 39.7826941 66.9510516 39.7290684 66.6661376 39.6209152 66.3803186 39.5128439 66.0927719 39.3331077 65.8043201 39.0808046L65.8043201 41.6409793 64.3632132 41.6409793zM75.0159521 34.8358492C74.5158923 34.8358492 74.0986821 35.0086157 73.7662139 35.3540667 73.4318534 35.7000096 73.2659895 36.1355747 73.2659895 36.6611718 73.2659895 37.1727476 73.4362962 37.600933 73.7766627 37.9467939 74.1171937 38.2922449 74.5378594 38.4650114 75.0380838 38.4650114 75.5160942 38.4650114 75.9218684 38.2922449 76.2552416 37.9467939 76.5886148 37.600933 76.7553837 37.1727476 76.7553837 36.6611718 76.7553837 36.1500061 76.5886148 35.7179668 76.2552416 35.3650542 75.9218684 35.0120595 75.5090187 34.8358492 75.0159521 34.8358492zM71.91127 41.6409793L71.91127 33.6583804 73.2334091 33.6583804 73.2334091 34.3602699C73.7096918 33.7985943 74.3677173 33.5177565 75.2056754 33.5177565 76.0726761 33.5177565 76.7879641 33.8095818 77.3516215 34.3928225 77.9151967 34.9760631 78.1973957 35.7214927 78.1973957 36.6287012 78.1973957 37.5433715 77.9151967 38.2975747 77.3516215 38.8918029 76.7879641 39.486031 76.0691384 39.7826941 75.1950621 39.7826941 74.8263111 39.7826941 74.4991085 39.7290684 74.2141945 39.6209152 73.9284577 39.5128439 73.640911 39.3331077 73.3524592 39.0808046L73.3524592 41.6409793 71.91127 41.6409793zM82.27508 34.836087C81.7952595 34.836087 81.3842199 35.0122973 81.0427838 35.365292 80.7006073 35.7182046 80.5303829 36.146718 80.5303829 36.6504221 80.5303829 37.1545362 80.7006073 37.5830496 81.0427838 37.9360442 81.3842199 38.2889569 81.7952595 38.4652492 82.27508 38.4652492 82.7627988 38.4652492 83.1764712 38.2889569 83.5186477 37.9360442 83.8600838 37.5830496 84.0311309 37.1545362 84.0311309 36.6504221 84.0311309 36.146718 83.8600838 35.7182046 83.5186477 35.365292 83.1764712 35.0122973 82.7627988 34.836087 82.27508 34.836087M82.27508 33.5179123C83.1712057 33.5179123 83.9279596 33.8225291 84.5461645 34.4308606 85.163629 35.0395201 85.4723201 35.7828178 85.4723201 36.6614096 85.4723201 37.5185184 85.1619013 38.2529604 84.5409813 38.8652278 83.919074 39.4770032 83.1676679 39.7829319 82.2865161 39.7829319 81.4044592 39.7829319 80.6512431 39.4792171 80.0267853 38.8704756 79.4014226 38.261734 79.0891937 37.5219622 79.0891937 36.6504221 79.0891937 35.7863437 79.3996948 35.0483758 80.0206148 34.4361084 80.6424398 33.824333 81.3939282 33.5179123 82.27508 33.5179123M86.5792723 39.6424884L86.5792723 33.6583886 87.9014114 33.6583886 87.9014114 34.2416292C88.0893246 33.9682531 88.2772378 33.7788414 88.4650688 33.6746239 88.6528998 33.5699964 88.89462 33.5177647 89.1909701 33.5177647L89.3100202 33.5177647 89.3100202 34.9004706C88.4500127 34.9004706 88.0205438 35.3720321 88.0205438 36.3157291L88.0205438 39.6424884 86.5792723 39.6424884z" mask="url(#gamcare-logo-b)"/>
    <polygon fill="#FFF" points="91.463 39.642 91.463 34.976 90.759 34.976 90.759 33.658 91.463 33.658 91.463 31.66 92.905 31.66 92.905 33.658 93.772 33.658 93.772 34.976 92.905 34.976 92.905 39.642" mask="url(#gamcare-logo-b)"/>
    <path fill="#FFF" d="M4.86650037 41.6409055L4.86650037 40.6692478 8.54545325 40.6692478 8.54545325 40.7532941 8.54545325 40.7835508C8.54545325 41.582852 8.26218474 42.2573547 7.69572999 42.8058289 7.12993343 43.354959 6.43323934 43.6298111 5.60523635 43.6298111 4.73765969 43.6298111 4.01003067 43.3499572 3.42374794 42.7909875 2.83738295 42.2320178 2.54424159 41.5402139 2.54424159 40.7150018 2.54424159 39.9107807 2.8306365 39.2276684 3.40441361 38.6655829 3.97835527 38.1040713 4.67875168 37.8230695 5.5066724 37.8230695 6.12586462 37.8230695 6.69289529 37.9855045 7.20858714 38.3091444 7.72362079 38.6327843 8.07567016 39.052852 8.26341885 39.5691836L7.02947719 39.5691836C6.67438369 39.0732692 6.15869185 38.824902 5.4838003 38.824902 4.94021765 38.824902 4.48968661 39.0058681 4.13204263 39.3678824 3.77390501 39.7298146 3.59479506 40.1837469 3.59479506 40.7304171 3.59479506 41.2715116 3.78130965 41.7236399 4.15507928 42.0849982 4.52810845 42.4469305 4.9911451 42.6279786 5.54451832 42.6279786 5.91516156 42.6279786 6.24549065 42.5420463 6.53484742 42.3697718 6.82371055 42.1979893 7.04502693 41.9547059 7.19739791 41.6409055L4.86650037 41.6409055zM10.8118975 41.086831L12.014822 41.086831 11.4130718 39.3870449 10.8118975 41.086831zM8.65640763 43.5309807L11.0021967 37.9218506 11.8246051 37.9218506 14.1852857 43.5309807 13.0355924 43.5309807 12.4338422 42.0812838 10.4307233 42.0812838 9.80659461 43.5309807 8.65640763 43.5309807z" mask="url(#gamcare-logo-b)"/>
    <polygon fill="#FFF" points="15.004 43.531 15.004 37.922 16.435 37.922 17.95 42.173 19.451 37.922 20.883 37.922 20.883 43.531 19.839 43.531 19.843 39.328 18.374 43.533 17.514 43.532 16.047 39.326 16.047 43.531" mask="url(#gamcare-logo-b)"/>
    <path fill="#000" d="M27.2504966 41.9676531L28.4763755 41.9676531C28.2582678 42.4784089 27.9155153 42.8830613 27.4482004 43.1820203 26.9809678 43.4803234 26.4584473 43.6298029 25.8795692 43.6298029 25.0571608 43.6298029 24.3574226 43.3450292 23.781095 42.775564 23.2046851 42.2066727 22.9171384 41.5173287 22.9171384 40.7076139 22.9171384 39.9132324 23.1997487 39.23381 23.7661212 38.6699205 24.332 38.105293 25.0137203 37.8230613 25.8107883 37.8230613 26.4100703 37.8230613 26.9442737 37.9737708 27.4140568 38.2751897 27.883264 38.5760346 28.2377816 38.9947904 28.4763755 39.5308831L27.3112147 39.5308831C26.9455901 39.0602235 26.4528527 38.8248938 25.8336604 38.8248938 25.3007734 38.8248938 24.8563306 39.0046299 24.5012371 39.3641843 24.1454854 39.7236567 23.9676096 40.1738991 23.9676096 40.7149936 23.9676096 41.2412467 24.1504218 41.6915711 24.5161286 42.0658848 24.8817532 42.4407725 25.3286642 42.6279704 25.8566971 42.6279704 26.1355228 42.6279704 26.3784772 42.5797565 26.5836679 42.4834107 26.7894346 42.3876389 27.0112446 42.2153643 27.2504966 41.9676531M30.9695333 41.086831L32.1724577 41.086831 31.5707076 39.3870449 30.9695333 41.086831zM28.8140434 43.5309807L31.1598325 37.9218506 31.9822408 37.9218506 34.3429215 43.5309807 33.1932281 43.5309807 32.5914779 42.0812838 30.588359 42.0812838 29.9642304 43.5309807 28.8140434 43.5309807zM36.588172 40.6013383L37.098187 40.6013383C37.5047838 40.6013383 37.7979252 40.5340193 37.9782693 40.3999551 38.1579551 40.2659729 38.2485385 40.0497483 38.2485385 39.7514453 38.2485385 39.4524863 38.1555692 39.2387216 37.9702064 39.1096592 37.784926 38.9805968 37.4793613 38.9163116 37.0529364 38.9163116L36.588172 38.9163116 36.588172 40.6013383zM35.5450232 43.5309889L35.5450232 37.9218588 37.1669678 37.9218588C38.5886582 37.9218588 39.2995856 38.5216627 39.2995856 39.7205326 39.2995856 40.6365968 38.8093987 41.2159016 37.8295183 41.458693L39.352899 43.5309889 38.065644 43.5309889 36.588172 41.3826824 36.588172 43.5309889 35.5450232 43.5309889z" mask="url(#gamcare-logo-b)"/>
    <polygon fill="#000" points="40.541 43.531 40.541 37.922 43.564 37.922 43.564 38.916 41.584 38.916 41.584 40.237 43.481 40.237 43.481 41.231 41.584 41.231 41.584 42.537 43.564 42.537 43.564 43.531" mask="url(#gamcare-logo-b)"/>
    <path fill="#000" d="M30.2035153 13.0442143L36.8781376 13.0442143C34.5238743 7.26010374 28.740359 3.17053155 21.9772102 3.17053155L21.9772102 8.53391836C25.3982349 8.53391836 28.4148841 10.3221786 30.2035153 13.0442143M37.9762947 17.8546991L31.8753672 17.8546991 26.1997951 17.8546991 26.1997951 22.665184 31.2015453 22.665184C29.7300793 26.4427597 26.1547913 29.1092018 21.9771773 29.1092018L21.9771773 34.4726706C29.4721511 34.4726706 35.7650232 29.4504709 37.5199222 22.665184 37.8379102 21.4353194 38.007641 20.1478114 38.007641 18.8216011 38.007641 18.4967312 37.9962049 18.1745672 37.9762947 17.8546991" mask="url(#gamcare-logo-b)"/>
    <path fill="#FFF" d="M12.0349955,18.8215601 C12.0349955,13.1398631 16.4863343,8.53387736 21.9772019,8.53387736 L21.9772019,3.17049055 C13.1238063,3.17049055 5.94673822,10.1777419 5.94673822,18.8215601 C5.94673822,27.4653783 13.1238063,34.4726296 21.9772019,34.4726296 L21.9772019,29.1092428 C16.4863343,29.1092428 12.0349955,24.503257 12.0349955,18.8215601" mask="url(#gamcare-logo-b)"/>
  </g>
</svg>
