<svg xmlns="http://www.w3.org/2000/svg" xmlns:xlink="http://www.w3.org/1999/xlink" width="140" height="25" viewBox="0 0 140 25">
  <defs>
    <polygon id="group-26-a" points="0 .029 68.857 .029 68.857 25 0 25"/>
  </defs>
  <g fill="none" fill-rule="evenodd">
    <path fill="#1D1D1B" d="M139.970783,1.54085086 C139.970589,0.1875683 139.782569,0.000429108973 138.453617,0.000429108973 C127.46032,-0.000166875712 116.467216,3.17858498e-05 105.473919,3.17858498e-05 C94.4808162,3.17858498e-05 83.487519,-0.000166875712 72.4942218,0.000429108973 C71.1990323,0.000429108973 71.0032501,0.183197745 71.002862,1.45761166 C70.9991753,8.8066988 70.9987873,16.1555873 71.0032501,23.5048731 C71.0038322,24.7544543 71.2471532,24.9958281 72.4990727,24.9960268 C86.8257124,24.9990067 101.152352,24.9976161 115.478798,25 L128.964292,25 C130.938025,24.8055103 132.585778,24.1495299 133.905998,23.364618 C134.018344,23.3093901 134.129333,23.2474077 134.239351,23.1754922 C135.233785,22.5264649 136.098215,21.7971783 136.838268,20.9943869 C136.905792,20.9222728 136.969436,20.8521453 137.029781,20.784203 C137.083141,20.7238099 137.137277,20.6636154 137.189085,20.6020304 C137.61868,20.1004099 137.836777,19.7634799 137.836777,19.7634799 L137.827075,19.7678505 C139.147101,17.8819563 139.868138,15.6464177 139.94226,13.0600428 C140.052278,9.22349076 139.971365,5.38097884 139.970783,1.54085086"/>
    <mask id="group-26-b" fill="#fff">
      <use xlink:href="#group-26-a"/>
    </mask>
    <path fill="#2CA6E1" d="M34.4544522,24.9998611 C23.5706713,24.9998611 12.6868904,25.0000595 1.80330337,24.9994643 C0.209325843,24.9994643 0.00387640449,24.7931151 0.00368258427,23.2008532 C0.0031011236,19.6302183 -0.00523314607,16.0593849 0.00542696629,12.4889484 C0.0261657303,5.34212302 5.2065927,0.0381547619 12.2017584,0.0343849206 C30.6106096,0.024265873 49.0192669,0.0306150794 67.4279242,0.0316071429 C68.6575197,0.0316071429 68.8525028,0.214543651 68.8534719,1.45323413 C68.8587051,8.82565476 68.8585112,16.1984722 68.8534719,23.5710913 C68.8526966,24.7575992 68.5842556,24.9980754 67.2994213,24.9984722 C56.3510983,25.0008532 45.4027753,24.9998611 34.4544522,24.9998611" mask="url(#group-26-b)"/>
    <path fill="#FEFEFE" d="M55.5437024 14.8245383C54.96172 16.5356565 54.3348269 18.232774 53.8190969 19.9643258 53.5989977 20.7025814 53.2814684 20.9774879 52.5265243 20.9059706 51.6077121 20.8187498 50.5035043 21.1542001 49.801822 20.7398537 49.0832519 20.3154797 49.0921598 19.0733864 48.7722179 18.1941774 48.3258952 16.9687337 47.9222563 15.7273972 47.2751348 14.5046023 47.2213163 14.9119483 47.1441146 15.3175916 47.1179476 15.7270188 47.0271984 17.140905 46.9164065 18.5553588 46.8898684 19.9709478 46.8761354 20.7209337 46.60296 20.9795691 45.8908851 20.8999162 45.4326853 20.8486432 44.9644641 20.8904563 44.5005113 20.8904563 42.9429288 20.8904563 42.934392 20.8898887 43.0364617 19.2601261 43.3378454 14.4531401 43.6601999 9.64728929 43.9372725 4.83878968 43.9764301 4.16164547 44.2175 3.97528418 44.8369699 4.01142124 45.6073172 4.05607227 46.3850877 4.06401864 47.1545071 4.00858326 47.7587593 3.96525662 48.0248826 4.21008048 48.2132475 4.77275913 49.1600825 7.60072072 50.1399509 10.4171411 51.1140663 13.2354536 51.223188 13.5512272 51.2513963 13.9133546 51.6427869 14.2315878 51.803129 13.7926454 51.9547488 13.4042193 52.0876249 13.008982 53.0081074 10.2710793 53.9441786 7.53790656 54.8275448 4.78713828 55.014425 4.20459371 55.2679289 3.97225699 55.8688406 4.01028605 56.6388167 4.05909946 57.4180719 4.07064062 58.1860067 4.00763726 58.875255 3.95087748 59.1024063 4.2070533 59.131357 4.89157628 59.2208071 6.99868862 59.3663027 9.10296297 59.4852602 11.2085617 59.6541391 14.1948831 59.8089137 17.1819613 59.994866 20.1669582 60.0273427 20.6893374 59.9161796 20.9564868 59.3592506 20.8934835 59.1758965 20.8728607 58.9882739 20.8978351 58.8028784 20.8891319 57.9738874 20.850346 56.8780308 21.2452049 56.3832715 20.7419348 55.8204039 20.1694178 56.1011882 19.0194646 56.0319664 18.1211465 55.9482693 17.0338182 55.9844576 15.9362732 55.5437024 14.8245383M23.9913538 16.2207157C23.9913538 17.5509478 23.9738814 18.8815602 23.9995879 20.2116023 24.0104328 20.775972 23.8089986 21.0489376 23.1882281 20.9727125 21.9872549 20.8250146 20.737078 21.2764723 19.5632171 20.68473 19.4021501 20.6037527 19.1141576 20.7417563 18.8866153 20.7866169 14.7434588 21.601712 10.6101429 19.6947544 8.86491606 16.1619786 7.09197441 12.5735072 8.10537083 8.36934241 11.3488017 5.85866699 14.514109 3.40843938 19.1997118 3.38524871 22.522672 5.76248273 23.2536992 6.28541338 23.3972938 6.70740758 22.5967789 7.24820646 22.4085997 7.37537499 22.2627959 7.55785897 22.0963065 7.71392079 21.6213397 8.16024619 21.2216847 8.7613028 20.6507204 9.01126783 19.9851644 9.30248185 19.5475522 8.51057741 18.9488731 8.2906462 16.8544 7.52060182 14.4924192 8.06634297 13.1679346 9.71991395 11.8281868 11.3926838 11.8579099 13.7410245 13.2394307 15.3596194 14.6623228 17.0264965 17.0112496 17.5790808 19.0207709 16.6966947 19.4204258 16.521244 19.9542363 16.4066212 19.8423731 15.789027 19.7190624 15.1087039 19.1587422 15.4552334 18.7974461 15.4183564 18.2351175 15.3613302 17.6589316 15.3723552 17.092988 15.4115133 16.4736233 15.4546631 16.1715725 15.3079156 16.2179646 14.6405184 16.2772099 13.7889265 16.249696 12.9304915 16.2259979 12.0758582 16.2135463 11.6245905 16.3979097 11.4582639 16.8700649 11.4611153 19.0117334 11.4732809 21.1536028 11.4816447 23.2950705 11.4565532 23.9248785 11.4489497 24.000592 11.7586022 23.9957721 12.2296389 23.9831197 13.5598711 23.9913538 14.8902934 23.9913538 16.2207157M26 20.965453C26.356208 19.9284776 26.6695783 19.0095211 26.9875798 18.0920802 28.5086997 13.7075724 30.048151 9.32874773 31.5347307 4.93287376 31.7614611 4.26207912 32.087374 4.0315349 32.7721964 4.09442782 33.6957128 4.17948481 34.8621684 3.73506678 35.4879444 4.26340517 36.0963537 4.7773464 36.1802922 5.90297807 36.4674198 6.76889231 37.9381766 11.2026536 39.3867427 15.6436134 40.8791113 20.0703655 41.1168406 20.7746904 41.0543208 21.0594135 40.2307588 20.9751143 39.7217249 20.9228298 39.2028499 20.965453 38.6882201 20.965453 37.0910731 20.965453 37.0708121 20.9730305 36.4957852 19.5033821 36.3402578 19.1063232 36.1322447 18.9653824 35.7243229 18.9689817 34.3095251 18.9807268 32.8937625 19.0008071 31.4797365 18.9615937 30.7922127 18.9424606 30.6828032 19.3910463 30.5934618 19.8534607 30.4215326 20.7434334 29.9424078 21.0764628 29.0009459 20.9855333 28.0502219 20.893846 27.083289 20.965453 26 20.965453M111.530735 20.9999974C106.786408 21.0036265 103.000955 17.2625087 103 12.5693981 102.999045 7.80389472 106.804172 3.97472138 111.515645 4.00012568 116.214321 4.02533897 120.013336 7.83560235 119.999965 12.509994 119.986403 17.2600256 116.259209 20.9961772 111.530735 20.9999974M124.015881 12.5235688C124.015881 9.94530264 124.037784 7.36684545 124.000318 4.78915231 123.990904 4.14754643 124.188608 3.96589499 124.808813 4.00505224 126.17968 4.09177123 127.557463 3.91241192 128.928714 4.13608577 132.408237 4.70357939 134.970711 7.61726084 134.999723 11.0707393 135.029888 14.6577345 132.595566 17.5941462 129.02747 18.1404376 128.144813 18.2754824 127.794939 18.565055 127.947492 19.4408404 128.00129 19.7497051 127.940384 20.0767159 127.95902 20.3939851 127.985535 20.8420969 127.807043 21.0090405 127.344004 20.9920405 126.480751 20.9605237 125.61308 20.9458159 124.751749 20.9958607 124.160365 21.0304337 123.993402 20.8539396 124.001279 20.2579853 124.035479 17.6801012 124.015881 15.101644 124.015881 12.5235688M78.0761507 15.035494C78.4092195 15.0352992 78.7436894 15.0522473 79.0753571 15.0315979 79.6778434 14.9943901 80.1093917 15.0193252 80.2603135 15.8014686 80.412036 16.5867288 81.421851 17.0903006 82.2242986 16.9603654 83.0723831 16.8232225 83.7547338 16.4651703 83.8548146 15.5254294 83.9586985 14.5517924 83.3818329 14.0336102 82.517135 13.7324412 81.6128051 13.4172462 80.6728465 13.1754928 79.8095497 12.7765314 77.7588946 11.8288035 76.6389907 10.1865946 76.6503999 7.99094379 76.6614088 5.90243588 77.7648995 4.36230497 79.7192768 3.47068099 82.7817485 2.07334238 86.6536736 3.9356813 87.3462325 7.09931981 87.502959 7.81542419 87.3956724 8.19704783 86.5047534 8.10178802 85.8133954 8.02756719 85.1070253 8.08795684 84.4074607 8.0865932 83.890043 8.08561918 83.4272695 8.1596452 83.0954017 7.52224217 82.8325896 7.01769638 82.1354269 6.9711379 81.559362 7.14373542 81.079975 7.28750175 80.7675229 7.62782666 80.768924 8.15009974 80.7707255 8.7485417 81.1312164 9.10639909 81.6740545 9.30217844 82.5457581 9.61698385 83.4354762 9.88639962 84.2971716 10.2245817 86.6786938 11.1592576 88.0279828 13.1694538 87.9995598 15.6871178 87.9747398 17.9071193 86.5634007 20.0357571 84.2705502 20.7039394 80.4450626 21.8186155 76.5441142 19.7098478 76.0146869 15.654975 75.9542381 15.1913383 76.0687305 14.9941953 76.577341 15.0282862 77.0745423 15.0617927 77.5763473 15.0356888 78.0761507 15.035494M96.4797375 4.01380459C98.0557388 4.01380459 99.6323445 4.04048454 101.207338 4.00084576 101.838384 3.98502836 102.026166 4.18932054 101.997152 4.76160546 101.955445 5.58430075 101.956654 6.41156975 101.996749 7.23426504 102.024554 7.80083283 101.848659 8.04857521 101.210562 7.9946436 100.6452 7.94681026 100.066742 8.02951811 99.5027909 7.97349021 98.7387667 7.8978335 98.4871142 8.11127309 98.4971884 8.88689733 98.5447384 12.6289508 98.4959795 16.3719571 98.538291 20.1136294 98.5465518 20.8336069 98.3488968 21.0518108 97.5985735 20.9900658 96.7996928 20.9243188 95.9873127 20.9351813 95.1864171 20.9881601 94.5616178 21.029514 94.4016402 20.8431355 94.4060728 20.2535086 94.4356909 16.4796298 94.3917675 12.7049887 94.4443546 8.93168153 94.4558392 8.10917681 94.1953214 7.9485254 93.3843517 7.96529566 91.0008059 8.01484413 91 7.9801602 91 5.72341763 91 4.01380459 91 4.01380459 92.7577391 4.01380459L96.4797375 4.01380459z"/>
    <path fill="#AFAFAF" d="M34.1606921,11.0120679 C34.4279848,12.1189879 34.6998887,13.2242434 34.9604184,14.3342844 C35.0535636,14.7308614 34.9983835,15.0246529 34.6207307,14.9976041 C34.5952157,14.9959396 34.5697007,14.9996848 34.5441857,14.9990606 C32.4909964,14.9597358 32.9029254,15.3317608 33.425983,13.0111821 C33.5789193,12.3328815 33.7705892,11.6699779 33.9445831,11 C34.0166707,11.0041614 34.0886045,11.0079066 34.1606921,11.0120679"/>
    <path fill="#1D1D1B" d="M111.521788,8.00003079 C114.053442,8.0088434 116.03569,10.0179327 115.999513,12.5387162 C115.963898,15.0244368 113.98896,16.990213 111.517289,16.9999631 C109.006442,17.0099008 107.006199,15.0094366 107.000014,12.482278 C106.994015,9.95643184 108.976451,7.99103067 111.521788,8.00003079"/>
    <path fill="#1F1F1D" d="M128.011122,11.445852 C128.011122,10.5032105 128.038533,9.55909834 128.001612,8.61813746 C127.976253,7.97318325 128.252036,7.93641876 128.686503,8.05028364 C130.023838,8.40049168 130.995699,9.86855031 130.999988,11.557406 C131.00409,13.1221027 129.983188,14.6103293 128.683892,14.9510836 C128.240848,15.0672594 127.97905,15.0134782 128.001985,14.3781878 C128.037041,13.4021431 128.011122,12.4233673 128.011122,11.445852"/>
  </g>
</svg>
