<?xml version="1.0" encoding="utf-8"?>
<!-- Generator: Adobe Illustrator 24.1.3, SVG Export Plug-In . SVG Version: 6.00 Build 0)  -->
<svg version="1.1" id="Layer_1" xmlns="http://www.w3.org/2000/svg" xmlns:xlink="http://www.w3.org/1999/xlink" x="0px" y="0px"
	 viewBox="0 0 255.1 70.9" style="enable-background:new 0 0 255.1 70.9;" xml:space="preserve">
<style type="text/css">
	.st0{clip-path:url(#SVGID_2_);fill:#F15A22;}
	.st1{clip-path:url(#SVGID_4_);fill:#95D600;}
	.st2{clip-path:url(#SVGID_6_);fill:#F15A22;}
	.st3{clip-path:url(#SVGID_8_);fill:#F15A22;}
	.st4{clip-path:url(#SVGID_10_);fill:#95D600;}
	.st5{clip-path:url(#SVGID_12_);fill:#F15A22;}
	.st6{clip-path:url(#SVGID_14_);fill:#95D600;}
	.st7{clip-path:url(#SVGID_16_);fill:#95D600;}
	.st8{clip-path:url(#SVGID_18_);fill:#F15A22;}
	.st9{clip-path:url(#SVGID_20_);fill:#F15A22;}
	.st10{clip-path:url(#SVGID_22_);fill:#F15A22;}
	.st11{clip-path:url(#SVGID_24_);fill:#95D600;}
	.st12{clip-path:url(#SVGID_26_);fill:#F15A22;}
	.st13{clip-path:url(#SVGID_28_);fill:#95D600;}
	.st14{clip-path:url(#SVGID_30_);fill:#95D600;}
	.st15{clip-path:url(#SVGID_32_);fill:#95D600;}
	.st16{clip-path:url(#SVGID_34_);fill:#F15A22;}
	.st17{clip-path:url(#SVGID_36_);fill:#F15A22;}
	.st18{clip-path:url(#SVGID_38_);fill:#F15A22;}
	.st19{fill:#00B0DA;}
	.st20{clip-path:url(#SVGID_40_);fill:#95D600;}
	.st21{clip-path:url(#SVGID_42_);fill:#F15A22;}
	.st22{clip-path:url(#SVGID_44_);fill:#95D600;}
	.st23{clip-path:url(#SVGID_46_);fill:#00B0DA;}
	.st24{clip-path:url(#SVGID_48_);fill:#95D600;}
	.st25{clip-path:url(#SVGID_50_);fill:#F15A22;}
	.st26{clip-path:url(#SVGID_52_);fill:#95D600;}
	.st27{fill:none;stroke:#F15A22;stroke-width:0.381;}
	.st28{clip-path:url(#SVGID_54_);fill:#FFFFFF;}
	.st29{clip-path:url(#SVGID_56_);fill:#FFFFFF;}
</style>
<g>
	<g>
		<defs>
			<rect id="SVGID_1_" x="12" y="11.8" width="231.7" height="50.1"/>
		</defs>
		<clipPath id="SVGID_2_">
			<use xlink:href="#SVGID_1_"  style="overflow:visible;"/>
		</clipPath>
		<path class="st0" d="M40.2,35.3c-1.5,0-2.6-1.4-2.5-3s1.4-2.9,2.9-2.9c2,0,2.6,1.5,4.4,1.5c1.8,0,2.7-1.5,4.9-1.5l0,0H50
			c1.7,0,3.1,1.5,3,3.2c-0.1,1.7-1.5,3.1-3.3,3h-0.1l0,0c-2.2-0.1-2.9-1.7-4.8-1.8C43.1,33.8,42.2,35.4,40.2,35.3"/>
	</g>
	<g>
		<defs>
			<rect id="SVGID_3_" x="12" y="11.8" width="231.7" height="50.1"/>
		</defs>
		<clipPath id="SVGID_4_">
			<use xlink:href="#SVGID_3_"  style="overflow:visible;"/>
		</clipPath>
		<path class="st1" d="M40,61.9c-1.3,0.1-2.3-0.3-2.3-0.8c0-0.7,1.1-1.3,2.5-1.3c1.4-0.1,2.4,0.4,2.3,1C42.4,61.3,41.3,61.8,40,61.9
			"/>
	</g>
	<g>
		<defs>
			<rect id="SVGID_5_" x="12" y="11.8" width="231.7" height="50.1"/>
		</defs>
		<clipPath id="SVGID_6_">
			<use xlink:href="#SVGID_5_"  style="overflow:visible;"/>
		</clipPath>
		<path class="st2" d="M32.8,61.6c-1.2-0.2-2.4-0.7-2.6-1.2c-0.2-0.6,0.7-1,2-0.9c1.4,0.1,2.6,0.8,2.7,1.5
			C35,61.5,34,61.8,32.8,61.6"/>
	</g>
	<g>
		<defs>
			<rect id="SVGID_7_" x="12" y="11.8" width="231.7" height="50.1"/>
		</defs>
		<clipPath id="SVGID_8_">
			<use xlink:href="#SVGID_7_"  style="overflow:visible;"/>
		</clipPath>
		<path class="st3" d="M26.4,59.9c-0.9-0.4-2-1.1-2.5-1.5c-0.5-0.6,0-0.8,1.1-0.4c1.1,0.3,2.3,1.2,2.6,1.8
			C28,60.3,27.4,60.3,26.4,59.9"/>
	</g>
	<g>
		<defs>
			<rect id="SVGID_9_" x="12" y="11.8" width="231.7" height="50.1"/>
		</defs>
		<clipPath id="SVGID_10_">
			<use xlink:href="#SVGID_9_"  style="overflow:visible;"/>
		</clipPath>
		<path class="st4" d="M48.4,57.4c-1.3,0.2-2.2-0.3-2-1.4c0.2-1.1,1.5-2.2,2.9-2.4c1.3-0.2,2.2,0.5,1.9,1.6
			C50.9,56.2,49.6,57.1,48.4,57.4"/>
	</g>
	<g>
		<defs>
			<rect id="SVGID_11_" x="12" y="11.8" width="231.7" height="50.1"/>
		</defs>
		<clipPath id="SVGID_12_">
			<use xlink:href="#SVGID_11_"  style="overflow:visible;"/>
		</clipPath>
		<path class="st5" d="M32,58.2c-1.4-0.1-2.7-1.1-2.9-2.1c-0.2-1.1,0.9-2,2.4-1.9s2.9,1.2,2.9,2.3C34.6,57.6,33.5,58.3,32,58.2"/>
	</g>
	<g>
		<defs>
			<rect id="SVGID_13_" x="12" y="11.8" width="231.7" height="50.1"/>
		</defs>
		<clipPath id="SVGID_14_">
			<use xlink:href="#SVGID_13_"  style="overflow:visible;"/>
		</clipPath>
		<path class="st6" d="M23.1,51.2c-1.2-0.2-2.4-1.5-2.6-2.8c-0.2-1.4,0.7-2.4,2-2.3c1.4,0.1,2.7,1.5,2.8,2.9
			C25.4,50.5,24.4,51.5,23.1,51.2"/>
	</g>
	<g>
		<defs>
			<rect id="SVGID_15_" x="12" y="11.8" width="231.7" height="50.1"/>
		</defs>
		<clipPath id="SVGID_16_">
			<use xlink:href="#SVGID_15_"  style="overflow:visible;"/>
		</clipPath>
		<path class="st7" d="M50.5,38.1c1.5,0,2.6,1.3,2.6,2.9c-0.1,1.6-1.3,2.9-2.8,3c-2,0.1-2.6-1.4-4.4-1.4c-1.8,0-2.7,1.6-4.8,1.7l0,0
			H41c-1.7,0-3.1-1.3-3.1-3.1c0-1.7,1.4-3.1,3.2-3.1h0.1l0,0c2.2,0,3,1.6,4.8,1.6C47.7,39.7,48.5,38.1,50.5,38.1"/>
	</g>
	<g>
		<defs>
			<rect id="SVGID_17_" x="12" y="11.8" width="231.7" height="50.1"/>
		</defs>
		<clipPath id="SVGID_18_">
			<use xlink:href="#SVGID_17_"  style="overflow:visible;"/>
		</clipPath>
		<path class="st8" d="M31.1,44.3c-1.6,0-3-1.4-3.1-3.1c0-1.7,1.3-3.1,3-3c1.7,0,3.1,1.4,3.1,3.1C34.1,43,32.8,44.3,31.1,44.3"/>
	</g>
	<g>
		<defs>
			<rect id="SVGID_19_" x="12" y="11.8" width="231.7" height="50.1"/>
		</defs>
		<clipPath id="SVGID_20_">
			<use xlink:href="#SVGID_19_"  style="overflow:visible;"/>
		</clipPath>
		<path class="st9" d="M15.4,35.8c-0.8,0-1.4-1.1-1.3-2.4c0.1-1.3,0.8-2.6,1.6-2.7c0.9-0.2,1.6,0.9,1.5,2.4
			C17.2,34.5,16.3,35.7,15.4,35.8"/>
	</g>
	<g>
		<defs>
			<rect id="SVGID_21_" x="12" y="11.8" width="231.7" height="50.1"/>
		</defs>
		<clipPath id="SVGID_22_">
			<use xlink:href="#SVGID_21_"  style="overflow:visible;"/>
		</clipPath>
		<path class="st10" d="M22.4,27.5c-1.3,0.1-2.2-0.9-2-2.3c0.2-1.3,1.4-2.6,2.6-2.8c1.3-0.2,2.3,0.7,2.1,2.1
			C25.1,26,23.8,27.4,22.4,27.5"/>
	</g>
	<g>
		<defs>
			<rect id="SVGID_23_" x="12" y="11.8" width="231.7" height="50.1"/>
		</defs>
		<clipPath id="SVGID_24_">
			<use xlink:href="#SVGID_23_"  style="overflow:visible;"/>
		</clipPath>
		<path class="st11" d="M49.3,20.1c-1.4-0.2-2.7-1.3-2.9-2.4c-0.2-1,0.7-1.6,2-1.4c1.2,0.3,2.4,1.3,2.8,2.3
			C51.4,19.6,50.6,20.3,49.3,20.1"/>
	</g>
	<g>
		<defs>
			<rect id="SVGID_25_" x="12" y="11.8" width="231.7" height="50.1"/>
		</defs>
		<clipPath id="SVGID_26_">
			<use xlink:href="#SVGID_25_"  style="overflow:visible;"/>
		</clipPath>
		<path class="st12" d="M40.7,19.3c-1.6,0-2.9-1.1-2.9-2.2s1.2-1.9,2.7-1.8c1.4,0.1,2.7,1,2.8,2C43.4,18.5,42.2,19.4,40.7,19.3"/>
	</g>
	<g>
		<defs>
			<rect id="SVGID_27_" x="12" y="11.8" width="231.7" height="50.1"/>
		</defs>
		<clipPath id="SVGID_28_">
			<use xlink:href="#SVGID_27_"  style="overflow:visible;"/>
		</clipPath>
		<path class="st13" d="M40.7,21.4c-2.1,0-2.8,1.3-4.6,1.3s-2.5-1.3-4.5-1.2l0,0c0,0,0,0-0.1,0c-1.6,0.1-2.9,1.3-3,2.8
			s1.1,2.7,2.7,2.6c0,0,0,0,0.1,0l0,0c2.1-0.1,3-1.6,4.8-1.6s2.7,1.5,4.8,1.5l0,0c0,0,0,0,0.1,0c1.7,0,3-1.2,2.9-2.7
			C43.7,22.6,42.3,21.4,40.7,21.4L40.7,21.4L40.7,21.4"/>
	</g>
	<g>
		<defs>
			<rect id="SVGID_29_" x="12" y="11.8" width="231.7" height="50.1"/>
		</defs>
		<clipPath id="SVGID_30_">
			<use xlink:href="#SVGID_29_"  style="overflow:visible;"/>
		</clipPath>
		<path class="st14" d="M31.1,29.4c-2.1,0.1-2.9,1.7-4.7,1.7c-1.7,0.1-2.3-1.4-4.1-1.3l0,0h-0.1c-1.3,0.1-2.4,1.4-2.5,3
			c-0.1,1.6,1,2.8,2.3,2.8h0.1l0,0c1.8,0,2.6-1.6,4.2-1.6c1.7,0,2.5,1.6,4.6,1.6c1.7,0,3.1-1.4,3.1-3.1
			C34.1,30.7,32.8,29.3,31.1,29.4"/>
	</g>
	<g>
		<defs>
			<rect id="SVGID_31_" x="12" y="11.8" width="231.7" height="50.1"/>
		</defs>
		<clipPath id="SVGID_32_">
			<use xlink:href="#SVGID_31_"  style="overflow:visible;"/>
		</clipPath>
		<path class="st15" d="M40.9,46.9c-2.2,0-3,1.5-4.8,1.5s-2.7-1.5-4.8-1.6l0,0h-0.1c-1.6-0.1-2.9,1.1-2.7,2.6c0.1,1.4,1.5,2.7,3,2.8
			h0.1l0,0c2,0.1,2.7-1.2,4.5-1.2s2.6,1.4,4.7,1.3c1.6-0.1,3-1.3,3-2.7C43.9,48.1,42.6,46.8,40.9,46.9"/>
	</g>
	<g>
		<defs>
			<rect id="SVGID_33_" x="12" y="11.8" width="231.7" height="50.1"/>
		</defs>
		<clipPath id="SVGID_34_">
			<use xlink:href="#SVGID_33_"  style="overflow:visible;"/>
		</clipPath>
		<path class="st16" d="M22,38.1c-1.7,0-2.3,1.5-3.6,1.4c-1.2,0-1.7-1.5-3-1.5l0,0c0,0,0,0-0.1,0c-0.8,0-1.4,1.1-1.3,2.4
			c0.1,1.3,0.8,2.6,1.6,2.7c0,0,0,0,0.1,0l0,0c1.2,0.2,1.6-1.1,2.8-1c1.3,0.1,2,1.6,3.7,1.7c1.4,0.1,2.5-1.1,2.5-2.7
			C24.7,39.4,23.4,38.1,22,38.1"/>
	</g>
	<g>
		<defs>
			<rect id="SVGID_35_" x="12" y="11.8" width="231.7" height="50.1"/>
		</defs>
		<clipPath id="SVGID_36_">
			<use xlink:href="#SVGID_35_"  style="overflow:visible;"/>
		</clipPath>
		<path class="st17" d="M24.5,16.8c-1.4,0.4-2.3,1.5-3.4,1.9c-1,0.4-1-0.1-2,0.5l0,0l0,0c-0.6,0.5-1.5,1.5-2,2.3
			c-0.5,0.9-0.3,1.3,0.4,0.9c0,0,0,0,0.1,0c1.1-0.5,1.9-1.6,2.9-2c1.1-0.4,1.4,0.5,2.9,0.2c1.3-0.2,2.5-1.4,2.8-2.5
			C26.5,17.1,25.7,16.5,24.5,16.8"/>
	</g>
	<g>
		<defs>
			<rect id="SVGID_37_" x="12" y="11.8" width="231.7" height="50.1"/>
		</defs>
		<clipPath id="SVGID_38_">
			<use xlink:href="#SVGID_37_"  style="overflow:visible;"/>
		</clipPath>
		<path class="st18" d="M23.5,53.1c-1.5-0.3-1.8,0.5-2.9,0.2c-1.1-0.4-1.8-1.6-2.9-2c0,0,0,0-0.1,0c-0.7-0.4-0.9,0-0.4,0.9
			c0.5,0.8,1.4,1.8,2,2.3l0,0l0,0c1,0.6,1,0,2,0.5c1.1,0.4,2,1.4,3.4,1.9c1.2,0.3,2-0.2,1.7-1.2C26,54.5,24.8,53.4,23.5,53.1"/>
	</g>
</g>
<path class="st19" d="M16.1,22.7L16.1,22.7L16.1,22.7z"/>
<g>
	<g>
		<defs>
			<rect id="SVGID_39_" x="12" y="11.8" width="231.7" height="50.1"/>
		</defs>
		<clipPath id="SVGID_40_">
			<use xlink:href="#SVGID_39_"  style="overflow:visible;"/>
		</clipPath>
		<path class="st20" d="M12.9,29.8c0.3-1.2,0.8-2.4,1.3-3.6l0,0c0.3-0.5,0.1,0.3,0.6-0.1c0.6-0.4,1.3-1.6,2.2-2
			c0.9-0.3,1.4,0.4,1.1,1.7c-0.2,1.3-1.2,2.6-2.1,2.8c-1,0.3-1.1-0.8-1.7-0.5C13.8,28.4,13.3,29.6,12.9,29.8
			c0.1,0.1,0.1,0.1,0.1,0.1C12.9,30.1,12.8,30,12.9,29.8L12.9,29.8z"/>
	</g>
	<g>
		<defs>
			<rect id="SVGID_41_" x="12" y="11.8" width="231.7" height="50.1"/>
		</defs>
		<clipPath id="SVGID_42_">
			<use xlink:href="#SVGID_41_"  style="overflow:visible;"/>
		</clipPath>
		<path class="st21" d="M12.3,41.2c-0.1-0.5-0.1-1-0.2-1.5l0,0c-0.1-1.1-0.1-2,0.1-2c0.3,0,0.7,1.1,0.8,2.4c0.1,1.2,0,2.1-0.3,1.9
			C12.5,41.9,12.4,41.6,12.3,41.2"/>
	</g>
	<g>
		<defs>
			<rect id="SVGID_43_" x="12" y="11.8" width="231.7" height="50.1"/>
		</defs>
		<clipPath id="SVGID_44_">
			<use xlink:href="#SVGID_43_"  style="overflow:visible;"/>
		</clipPath>
		<path class="st22" d="M14.2,47.4c-0.5-1.2-1-2.4-1.3-3.6l0,0c0-0.2,0-0.2,0.1-0.1l0,0c0.4,0.3,0.8,1.5,1.3,1.9
			c0.7,0.3,0.7-0.8,1.7-0.5c0.9,0.2,1.9,1.5,2.1,2.8c0.3,1.3-0.2,2-1.1,1.7c-0.9-0.4-1.6-1.7-2.2-2C14.3,47.2,14.5,48,14.2,47.4
			L14.2,47.4"/>
	</g>
	<g>
		<defs>
			<rect id="SVGID_45_" x="12" y="11.8" width="231.7" height="50.1"/>
		</defs>
		<clipPath id="SVGID_46_">
			<use xlink:href="#SVGID_45_"  style="overflow:visible;"/>
		</clipPath>
		<path class="st23" d="M16.1,51c-0.3-0.5-0.6-1-0.9-1.5l0,0C15.5,49.9,15.8,50.5,16.1,51L16.1,51z"/>
	</g>
	<g>
		<defs>
			<rect id="SVGID_47_" x="12" y="11.8" width="231.7" height="50.1"/>
		</defs>
		<clipPath id="SVGID_48_">
			<use xlink:href="#SVGID_47_"  style="overflow:visible;"/>
		</clipPath>
		<path class="st24" d="M40.3,14c-1.4-0.1-2.5-0.7-2.5-1.3c0-0.5,1-0.9,2.3-0.8c1.3,0.1,2.4,0.6,2.5,1.1
			C42.7,13.6,41.7,14.1,40.3,14"/>
	</g>
	<g>
		<defs>
			<rect id="SVGID_49_" x="12" y="11.8" width="231.7" height="50.1"/>
		</defs>
		<clipPath id="SVGID_50_">
			<use xlink:href="#SVGID_49_"  style="overflow:visible;"/>
		</clipPath>
		<path class="st25" d="M32.2,14.2c-1.3,0.2-2.2-0.3-2-0.9c0.2-0.5,1.4-1,2.6-1.2c1.2-0.1,2.2,0.1,2.1,0.7
			C34.8,13.4,33.6,14.1,32.2,14.2"/>
	</g>
	<g>
		<defs>
			<rect id="SVGID_51_" x="12" y="11.8" width="231.7" height="50.1"/>
		</defs>
		<clipPath id="SVGID_52_">
			<use xlink:href="#SVGID_51_"  style="overflow:visible;"/>
		</clipPath>
		<path class="st26" d="M25,15.7c-1,0.3-1.5,0.1-1-0.4c0.4-0.4,1.5-1.1,2.5-1.5s1.6-0.4,1.3,0.1C27.4,14.5,26.2,15.3,25,15.7"/>
	</g>
</g>
<line class="st27" x1="58.8" y1="52.8" x2="58.8" y2="19.9"/>
<g>
	<g>
		<defs>
			<rect id="SVGID_53_" x="12" y="11.8" width="231.7" height="50.1"/>
		</defs>
		<clipPath id="SVGID_54_">
			<use xlink:href="#SVGID_53_"  style="overflow:visible;"/>
		</clipPath>
		<path class="st28" d="M242.3,53.3h1.4v-5.9c0-2.3-1-3.9-4.1-3.9c-2.1,0-3.5,1.2-3.9,2.2l0,0v-1.9h-1.4v9.5h1.4v-5.2
			c0-2.2,1.2-3.5,3.9-3.5c1.7,0,2.9,0.7,2.9,2.5v6.2H242.3z M221.7,48.6c0,2.7,1.7,5,5.4,5s5.4-2.4,5.4-5c0-2.7-1.7-5-5.4-5
			C223.4,43.5,221.7,45.9,221.7,48.6 M223.1,48.6c0-2.3,1.5-3.9,4-3.9c2.6,0,4,1.6,4,3.9c0,2.3-1.5,3.9-4,3.9
			C224.5,52.5,223.1,50.9,223.1,48.6 M218.6,42.2h1.4v-2h-1.4V42.2z M218.6,53.3h1.4v-9.5h-1.4V53.3z M213.1,43.8H211v1h2.1v6.3
			c0,1.5,0.5,2.4,2.6,2.4c0.4,0,1,0,1.5-0.1v-1.1c-0.3,0.1-0.7,0.1-1.3,0.1c-1.1,0-1.4-0.4-1.4-1.2v-6.3h2.7v-1h-2.7v-3h-1.4
			L213.1,43.8L213.1,43.8z M202.2,46.8c0.1-1.5,1.1-2.1,3.3-2.1s3.1,0.5,3.1,1.9c0,0.9-0.4,1.1-3.3,1.3c-2.1,0.1-4.7,0.4-4.7,3
			c0,2.1,2.1,2.9,3.7,2.9c3.1,0,4-1.3,4.4-1.9l0,0c0,0.7,0.1,1.7,1.5,1.7c0.4,0,0.9-0.1,1.1-0.1v-0.9c-0.2,0-0.5,0-0.7,0
			c-0.5,0-0.8-0.3-0.8-1.1v-5c0-1.8-1.2-2.8-4.4-2.8c-3.3,0-4.3,1.2-4.5,3.2h1.3V46.8z M208.6,49.7c0,2-2.1,2.9-4,2.9
			c-1.5,0-2.7-0.4-2.7-1.9c0-1.1,0.9-1.6,2.5-1.8c2.7-0.3,3.6-0.3,4.2-0.7V49.7z M197.7,42.2h1.4v-2h-1.4V42.2z M197.7,53.3h1.4
			v-9.5h-1.4V53.3z M194.8,49.9c-0.3,1.5-1.5,2.6-3.5,2.6c-2.6,0-4-1.6-4-3.9c0-2.2,1.3-3.9,4-3.9c1.7,0,3,0.6,3.4,2.3h1.4
			c-0.2-1.4-1.5-3.4-4.7-3.4c-3.6,0-5.4,2.2-5.4,5c0,3,1.9,5,5.4,5s4.6-2.5,4.8-3.7C196.2,49.9,194.8,49.9,194.8,49.9z M174,48.6
			c0,2.7,1.7,5,5.4,5s5.4-2.4,5.4-5c0-2.7-1.7-5-5.4-5C175.7,43.5,174,45.9,174,48.6 M175.3,48.6c0-2.3,1.5-3.9,4-3.9
			c2.6,0,4,1.6,4,3.9c0,2.3-1.5,3.9-4,3.9S175.3,50.9,175.3,48.6 M172.5,46.6c-0.2-2-1.4-3.1-4.5-3.1c-2.8,0-4.1,1.2-4.1,2.8
			c0,1.7,1,2.4,4,2.7s3.6,0.7,3.6,1.7c0,1.4-1.3,1.8-3.2,1.8c-2.4,0-3.3-0.5-3.6-2.1h-1.2c0,2.3,1.8,3.3,4.8,3.3s4.5-1.1,4.5-3
			c0-1.8-1.2-2.4-4.1-2.7c-2.9-0.4-3.5-0.6-3.5-1.6c0-1.3,1.3-1.6,2.7-1.6c2,0,2.9,0.4,3.3,2h1.3V46.6z M162.3,46.6
			c-0.2-2-1.4-3.1-4.5-3.1c-2.8,0-4.1,1.2-4.1,2.8c0,1.7,1,2.4,4,2.7s3.6,0.7,3.6,1.7c0,1.4-1.3,1.8-3.2,1.8c-2.4,0-3.3-0.5-3.6-2.1
			h-1.2c0,2.3,1.8,3.3,4.8,3.3s4.5-1.1,4.5-3c0-1.8-1.2-2.4-4.1-2.7c-2.9-0.4-3.5-0.6-3.5-1.6c0-1.3,1.3-1.6,2.7-1.6
			c2,0,2.9,0.4,3.3,2h1.3V46.6z M144,46.8c0.1-1.5,1.1-2.1,3.3-2.1s3.1,0.5,3.1,1.9c0,0.9-0.4,1.1-3.3,1.3c-2.1,0.1-4.7,0.4-4.7,3
			c0,2.1,2.1,2.9,3.7,2.9c3.1,0,4-1.3,4.4-1.9l0,0c0,0.7,0.1,1.7,1.5,1.7c0.4,0,0.9-0.1,1.1-0.1v-0.9c-0.2,0-0.5,0-0.7,0
			c-0.5,0-0.8-0.3-0.8-1.1v-5c0-1.8-1.2-2.8-4.4-2.8c-3.3,0-4.3,1.2-4.5,3.2h1.3V46.8z M150.4,49.7c0,2-2.1,2.9-4,2.9
			c-1.5,0-2.7-0.4-2.7-1.9c0-1.1,0.9-1.6,2.5-1.8c2.7-0.3,3.6-0.3,4.2-0.7V49.7z M131.7,51.7l-3.9-7.9h-1.5l4.6,9.6l-0.6,1.3
			c-0.4,1-0.9,1.2-1.9,1.2c-0.4,0-0.7,0-1,0V57c0.4,0,0.9,0,1.3,0c1.5,0,2.1-0.4,2.8-1.9l5.2-11.3h-1.5L131.7,51.7z M122,43.8h-2v1
			h2.1v6.3c0,1.5,0.5,2.4,2.6,2.4c0.4,0,1,0,1.5-0.1v-1.1c-0.3,0.1-0.7,0.1-1.3,0.1c-1.1,0-1.4-0.4-1.4-1.2v-6.3h2.7v-1h-2.7v-3H122
			V43.8z M117.7,42.2h1.4v-2h-1.4V42.2z M117.7,53.3h1.4v-9.5h-1.4V53.3z M111,53.3h1.4v-4.8c0-2.7,1.8-3.6,3.2-3.6
			c0.4,0,0.8,0,1.2,0.1v-1.4c-0.2,0-0.4-0.1-0.8-0.1c-2.2,0-3.1,1.3-3.6,2.5l0,0v-2.2H111V53.3z M107.6,45.7L107.6,45.7
			c-0.7-1.4-2.2-2.1-4.1-2.1c-3.6,0-5.2,2.3-5.2,4.8c0,3.7,2.6,5,5,5c2.5,0,3.7-1.2,4.2-2.2l0,0v1.7c0,2.3-1.4,3.5-3.9,3.5
			c-3.2,0-3.5-1-3.7-2.1h-1.2c0.1,1,0.5,3.1,4.9,3.1c2.5,0,5.3-0.9,5.3-4.4v-9.1h-1.4L107.6,45.7L107.6,45.7z M107.6,48.4
			c0,2.4-1.7,3.8-3.9,3.8c-2.3,0-4-1-4-3.8c0-2.3,1.5-3.7,3.9-3.7C106.2,44.7,107.6,46.4,107.6,48.4 M95.5,50.3
			c-0.5,1.4-1.5,2.2-3.8,2.2c-2.4,0-3.8-1.6-3.8-3.6h9.2c0-4.3-2.9-5.4-5.4-5.4c-3.5,0-5.2,2.4-5.2,5c0,2.3,1.3,5,5.2,5
			c3.1,0,4.6-1.6,5.1-3.3L95.5,50.3L95.5,50.3z M88,47.9c0.3-2.3,2.2-3.2,3.9-3.2c1.8,0,3.5,0.9,3.9,3.2H88z M81.4,43.8h-2.1v1h2.1
			v6.3c0,1.5,0.5,2.4,2.6,2.4c0.4,0,1,0,1.5-0.1v-1.1c-0.3,0.1-0.7,0.1-1.3,0.1c-1.1,0-1.4-0.4-1.4-1.2v-6.3h2.7v-1h-2.7v-3h-1.4
			C81.4,40.9,81.4,43.8,81.4,43.8z M77.1,53.3h1.4v-5.9c0-2.3-1-3.9-4.1-3.9c-2.1,0-3.5,1.2-3.9,2.2l0,0v-1.9H69v9.5h1.4v-5.2
			c0-2.2,1.2-3.5,3.9-3.5c1.7,0,2.9,0.7,2.9,2.5v6.2H77.1z M65.6,42.2H67v-2h-1.4V42.2z M65.6,53.3H67v-9.5h-1.4V53.3z"/>
	</g>
	<g>
		<defs>
			<rect id="SVGID_55_" x="12" y="11.8" width="231.7" height="50.1"/>
		</defs>
		<clipPath id="SVGID_56_">
			<use xlink:href="#SVGID_55_"  style="overflow:visible;"/>
		</clipPath>
		<path class="st29" d="M242,23.7L242,23.7c-0.7-1.4-2.2-2.1-4.1-2.1c-3.6,0-5.2,2.3-5.2,4.8c0,3.7,2.6,5,5,5c2.5,0,3.7-1.2,4.2-2.2
			l0,0v1.7c0,2.3-1.4,3.5-3.9,3.5c-3.2,0-3.5-1-3.7-2.1h-1.2c0.1,1,0.5,3.1,4.9,3.1c2.5,0,5.3-0.9,5.3-4.4v-9.1H242V23.7z M242,26.4
			c0,2.4-1.7,3.8-4,3.8s-4-1-4-3.8c0-2.3,1.5-3.7,3.9-3.7C240.7,22.7,242,24.4,242,26.4 M229.8,31.4h1.4v-5.9c0-2.3-1-3.9-4.1-3.9
			c-2.1,0-3.5,1.2-3.9,2.2l0,0v-1.9h-1.4v9.5h1.4v-5.2c0-2.2,1.2-3.5,3.9-3.5c1.7,0,2.9,0.7,2.9,2.5v6.2H229.8z M218.3,20.2h1.4v-2
			h-1.4V20.2z M218.3,31.4h1.4v-9.5h-1.4V31.4z M212.8,21.9h-2.1v1h2.1v6.3c0,1.5,0.5,2.4,2.6,2.4c0.4,0,1,0,1.5-0.1v-1.1
			c-0.3,0.1-0.7,0.1-1.3,0.1c-1.1,0-1.4-0.4-1.4-1.2V23h2.7v-1h-2.7v-3h-1.4L212.8,21.9L212.8,21.9z M206.4,21.9h-2.1v1h2.1v6.3
			c0,1.5,0.5,2.4,2.6,2.4c0.4,0,1,0,1.5-0.1v-1.1c-0.3,0.1-0.7,0.1-1.3,0.1c-1.1,0-1.4-0.4-1.4-1.2V23h2.7v-1h-2.7v-3h-1.4
			L206.4,21.9L206.4,21.9z M202.2,28.4c-0.5,1.4-1.5,2.2-3.8,2.2c-2.4,0-3.8-1.6-3.8-3.6h9.2c0-4.3-2.9-5.4-5.4-5.4
			c-3.5,0-5.2,2.4-5.2,5c0,2.3,1.3,5,5.2,5c3.1,0,4.6-1.6,5.1-3.3L202.2,28.4L202.2,28.4z M194.6,25.9c0.3-2.3,2.2-3.2,3.9-3.2
			c1.8,0,3.5,0.9,3.9,3.2H194.6z M182.7,26.6c0-2,1.2-3.9,4-3.9c2.1,0,3.8,1.5,3.8,3.9c0,1.9-1.1,3.9-3.8,3.9
			C184.4,30.5,182.7,29.1,182.7,26.6 M181.4,31.4h1.4v-1.9l0,0c0.4,0.8,1.6,2.2,3.9,2.2c3.9,0,5.2-2.7,5.2-5c0-2.7-1.6-5-5.2-5
			c-1.8,0-3.3,1-3.9,2.2l0,0v-5.6h-1.4V31.4z M172.9,31.4h1.4V18.2h-1.4V31.4z M162.9,24.8c0.1-1.5,1.1-2.1,3.3-2.1s3.1,0.5,3.1,1.9
			c0,0.9-0.4,1.1-3.3,1.3c-2.1,0.1-4.7,0.4-4.7,3c0,2.1,2.1,2.9,3.7,2.9c3.1,0,4-1.3,4.4-1.9l0,0c0,0.7,0.1,1.7,1.5,1.7
			c0.4,0,0.9-0.1,1.1-0.1v-0.9c-0.2,0-0.5,0-0.7,0c-0.5,0-0.8-0.3-0.8-1.1v-5c0-1.8-1.2-2.8-4.4-2.8c-3.3,0-4.3,1.2-4.5,3.2h1.3
			V24.8z M169.3,27.7c0,2-2.1,2.9-4,2.9c-1.5,0-2.7-0.4-2.7-1.9c0-1.1,0.9-1.6,2.5-1.8c2.7-0.3,3.6-0.3,4.2-0.7V27.7z M158.3,31.4
			h1.4v-5.9c0-2.3-1-3.9-4.1-3.9c-2.1,0-3.5,1.2-3.9,2.2l0,0v-1.9h-1.4v9.5h1.4v-5.2c0-2.2,1.2-3.5,3.9-3.5c1.7,0,2.9,0.7,2.9,2.5
			v6.2H158.3z M137.7,26.6c0,2.7,1.7,5,5.4,5s5.4-2.4,5.4-5s-1.7-5-5.4-5S137.7,24,137.7,26.6 M139.1,26.6c0-2.3,1.5-3.9,4-3.9
			s4,1.6,4,3.9s-1.5,3.9-4,3.9S139.1,28.9,139.1,26.6 M134.6,20.2h1.4v-2h-1.4V20.2z M134.6,31.4h1.4v-9.5h-1.4V31.4z M129.2,21.9
			h-2.1v1h2.1v6.3c0,1.5,0.5,2.4,2.6,2.4c0.4,0,1,0,1.5-0.1v-1.1c-0.3,0.1-0.7,0.1-1.3,0.1c-1.1,0-1.4-0.4-1.4-1.2V23h2.7v-1h-2.7
			v-3h-1.4L129.2,21.9L129.2,21.9z M118.2,24.8c0.1-1.5,1.1-2.1,3.3-2.1c2.2,0,3.1,0.5,3.1,1.9c0,0.9-0.4,1.1-3.3,1.3
			c-2.1,0.1-4.7,0.4-4.7,3c0,2.1,2.1,2.9,3.7,2.9c3.1,0,4-1.3,4.4-1.9l0,0c0,0.7,0.1,1.7,1.5,1.7c0.4,0,0.9-0.1,1.1-0.1v-0.9
			c-0.2,0-0.5,0-0.7,0c-0.5,0-0.8-0.3-0.8-1.1v-5c0-1.8-1.2-2.8-4.4-2.8c-3.3,0-4.3,1.2-4.5,3.2h1.3V24.8z M124.6,27.7
			c0,2-2.1,2.9-4,2.9c-1.5,0-2.7-0.4-2.7-1.9c0-1.1,0.9-1.6,2.5-1.8c2.7-0.3,3.6-0.3,4.2-0.7V27.7z M113.6,31.4h1.4v-5.9
			c0-2.3-1-3.9-4.1-3.9c-2.1,0-3.5,1.2-3.9,2.2l0,0v-1.9h-1.4v9.5h1.4v-5.2c0-2.2,1.2-3.5,3.9-3.5c1.7,0,2.9,0.7,2.9,2.5v6.2H113.6z
			 M98.8,31.4h1.4v-4.8c0-2.7,1.8-3.6,3.2-3.6c0.4,0,0.8,0,1.2,0.1v-1.4c-0.2,0-0.4-0.1-0.8-0.1c-2.2,0-3.1,1.3-3.6,2.5l0,0v-2.2
			h-1.4C98.8,21.9,98.8,31.4,98.8,31.4z M95.5,28.4c-0.5,1.4-1.5,2.2-3.8,2.2c-2.4,0-3.8-1.6-3.8-3.6h9.2c0-4.3-2.9-5.4-5.4-5.4
			c-3.5,0-5.2,2.4-5.2,5c0,2.3,1.3,5,5.2,5c3.1,0,4.6-1.6,5.1-3.3L95.5,28.4L95.5,28.4z M88,25.9c0.3-2.3,2.2-3.2,3.9-3.2
			c1.8,0,3.5,0.9,3.9,3.2H88z M81.4,21.9h-2.1v1h2.1v6.3c0,1.5,0.5,2.4,2.6,2.4c0.4,0,1,0,1.5-0.1v-1.1c-0.3,0.1-0.7,0.1-1.3,0.1
			c-1.1,0-1.4-0.4-1.4-1.2V23h2.7v-1h-2.7v-3h-1.4C81.4,19,81.4,21.9,81.4,21.9z M77.1,31.4h1.4v-5.9c0-2.3-1-3.9-4.1-3.9
			c-2.1,0-3.5,1.2-3.9,2.2l0,0v-1.9H69v9.5h1.4v-5.2c0-2.2,1.2-3.5,3.9-3.5c1.7,0,2.9,0.7,2.9,2.5v6.2H77.1z M65.6,20.2H67v-2h-1.4
			V20.2z M65.6,31.4H67v-9.5h-1.4V31.4z"/>
	</g>
</g>
</svg>
