<?xml version="1.0" encoding="utf-8"?>
<!-- Generator: Adobe Illustrator 23.0.0, SVG Export Plug-In . SVG Version: 6.00 Build 0)  -->
<svg version="1.1" id="Layer_1" xmlns="http://www.w3.org/2000/svg" xmlns:xlink="http://www.w3.org/1999/xlink" x="0px" y="0px"
	 viewBox="0 0 109 69" style="enable-background:new 0 0 109 69;" xml:space="preserve">
<style type="text/css">
	.st0{fill:#FFFFFF;}
	.st1{fill:#FF5F00;}
	.st2{fill:#EB001B;}
	.st3{fill:#F79E1B;}
</style>
<g>
	<path class="st0" d="M30.8,62.3v-3.8c0-0.6-0.2-1.3-0.6-1.8c-0.5-0.5-1.1-0.8-1.8-0.8c-0.9,0-1.6,0.3-2.1,1.1
		c-0.5-0.8-1.2-1.2-1.9-1.1c-0.8,0-1.3,0.3-1.8,0.9v-0.8h-1.2v6.1h1.2v-3.6c0-0.5,0.2-0.9,0.5-1.2c0.3-0.3,0.8-0.5,1.2-0.5
		c0.9,0,1.3,0.6,1.3,1.6v3.6h1.2v-3.6c0-0.5,0.2-0.9,0.5-1.2c0.3-0.3,0.8-0.5,1.2-0.5c0.9,0,1.3,0.6,1.3,1.6V62L30.8,62.3z
		 M50.6,56.2h-2.2v-1.8h-1.2v1.8h-1.3v1.1h1.3v2.8c0,1.5,0.5,2.2,2.1,2.2c0.6,0,1.2-0.2,1.6-0.5l-0.5-1.1c-0.3,0.2-0.8,0.3-1.2,0.3
		c-0.6,0-0.9-0.5-0.9-1.1v-3h2.2L50.6,56.2z M61.9,56.1c-0.6,0-1.3,0.3-1.6,0.9v-0.8H59v6.1h1.2v-3.5c0-1.1,0.5-1.6,1.3-1.6
		c0.3,0,0.6,0,0.9,0.2l0.5-1.2C62.5,56.1,62.2,56.1,61.9,56.1L61.9,56.1z M44.8,56.6c-0.8-0.5-1.5-0.6-2.4-0.6
		c-1.5,0-2.5,0.8-2.5,1.9c0,1.1,0.8,1.6,2.1,1.8l0.6,0.2c0.8,0.2,1.1,0.3,1.1,0.8c0,0.5-0.6,0.8-1.5,0.8c-0.8,0-1.5-0.2-2.1-0.6
		l-0.6,0.9c0.8,0.6,1.6,0.8,2.7,0.8c1.8,0,2.7-0.8,2.7-1.9s-0.8-1.6-2.1-1.8l-0.6-0.2c-0.6-0.2-1.1-0.3-1.1-0.6
		c0-0.5,0.5-0.8,1.2-0.8c0.6,0,1.3,0.2,1.9,0.6L44.8,56.6z M63.3,59.3c0,0.9,0.3,1.6,0.9,2.2c0.6,0.6,1.5,0.9,2.2,0.9
		c0.8,0,1.6-0.2,2.2-0.8L68,60.8c-0.5,0.3-1.1,0.6-1.6,0.6c-1.1-0.2-1.9-1.1-1.9-2.1c0-1.1,0.8-1.9,1.9-2.1c0.6,0,1.2,0.2,1.6,0.6
		l0.6-0.9C68,56.2,67.2,56,66.4,56c-0.9,0-1.6,0.3-2.2,0.9C63.6,57.5,63.3,58.5,63.3,59.3L63.3,59.3z M54.7,56.1c-1.8,0-3,1.3-3,3.1
		c0,0.9,0.3,1.6,0.9,2.2c0.6,0.6,1.3,0.9,2.2,0.9s1.8-0.3,2.5-0.9l-0.8-0.8c-0.5,0.5-1.2,0.6-1.8,0.6c-0.9,0-1.8-0.6-1.8-1.6h4.5
		c0-0.2,0-0.3,0-0.5C57.6,57.4,56.4,56.1,54.7,56.1L54.7,56.1z M54.7,57.2c0.5,0,0.9,0.2,1.2,0.5c0.3,0.3,0.5,0.8,0.5,1.1h-3.3
		C53.1,57.9,53.9,57.2,54.7,57.2L54.7,57.2z M38.2,59.3v-3H37v0.8c-0.5-0.8-1.2-1.1-1.9-1.1c-1.8,0-3.1,1.5-3.1,3.3
		c0,1.8,1.5,3.3,3.1,3.3c0.8,0,1.5-0.3,1.9-0.9v0.8h1.2V59.3z M33.3,59.3c0-0.6,0.2-1.1,0.5-1.5c0.3-0.4,0.9-0.6,1.3-0.6
		c1.1,0.2,1.9,1.1,1.9,2.1c0,1.1-0.8,1.9-1.9,2.1c-0.6,0-1.1-0.2-1.3-0.6C33.5,60.4,33.3,59.8,33.3,59.3L33.3,59.3z M80.2,56.1
		c-0.6,0-1.3,0.3-1.6,0.9v-0.8h-1.2v6.1h1.2v-3.5c0-1.1,0.5-1.6,1.3-1.6c0.3,0,0.6,0,0.9,0.2l0.5-1.2C80.8,56.1,80.5,56.1,80.2,56.1
		L80.2,56.1z M89.9,61.4c0.2,0,0.2,0,0.3,0c0,0,0.2,0,0.2,0.2l0.2,0.2c0,0.2,0,0.3,0,0.5l-0.2,0.2l-0.2,0.2c-0.2,0-0.2,0-0.3,0
		c-0.3,0-0.5-0.2-0.6-0.3c0-0.2,0-0.3,0-0.5l0.2-0.2l0.2-0.2C89.7,61.4,89.9,61.4,89.9,61.4L89.9,61.4z M89.9,62.6H90
		c0,0,0.2,0,0.2-0.2c0.2-0.2,0.2-0.5,0-0.6L90,61.7h-0.2h-0.2c0,0-0.2,0-0.2,0.2c-0.2,0.2-0.2,0.5,0,0.6l0.2,0.2
		C89.9,62.5,89.9,62.6,89.9,62.6L89.9,62.6z M90,61.7h0.2v0.2V62H90l0.2,0.2H90L89.9,62l0,0v0.2h-0.2v-0.6L90,61.7z M89.9,61.8V62
		H90c0,0,0,0,0.2,0l0,0l0,0C90,61.8,90,61.8,89.9,61.8L89.9,61.8z M75.5,59.3v-3.1h-1.2v0.8C73.8,56.3,73,56,72.3,56
		c-1.8,0-3.1,1.5-3.1,3.3c0,1.8,1.5,3.3,3.1,3.3c0.8,0,1.5-0.3,1.9-0.9v0.8h1.2C75.5,62.5,75.5,59.3,75.5,59.3z M70.5,59.3
		c0-0.6,0.2-1.1,0.5-1.5c0.3-0.5,0.9-0.6,1.3-0.6c1.1,0.2,1.9,1.1,1.9,2.1c0,1.1-0.8,1.9-1.9,2.1c-0.6,0-1.1-0.2-1.3-0.6
		C70.7,60.4,70.5,59.8,70.5,59.3L70.5,59.3z M87.8,59.3v-5.5h-1.2v3.1c-0.5-0.6-1.2-0.9-1.9-0.9c-1.8,0-3.1,1.5-3.1,3.3
		c0,1.8,1.5,3.3,3.1,3.3c0.8,0,1.5-0.3,1.9-0.9v0.8h1.2V59.3z M82.9,59.3c0-0.6,0.2-1.1,0.5-1.5c0.3-0.5,0.9-0.6,1.3-0.6
		c1.1,0.2,1.8,1.1,1.8,2.1c0,1.1-0.8,1.9-1.8,2.1c-0.6,0-1.1-0.2-1.3-0.6C83.1,60.3,82.8,59.8,82.9,59.3L82.9,59.3z"/>
	<g transform="translate(16 5)">
		<rect x="28.1" y="5.5" class="st1" width="20.1" height="36"/>
		<path class="st2" d="M29.2,23.5c0-7,3.3-13.7,8.7-18C28.7-1.9,15.1-0.7,7.1,8s-8.2,22.3,0,31.1s21.6,9.8,30.9,2.5
			C32.5,37.2,29.2,30.5,29.2,23.5z"/>
		<path class="st3" d="M73,37.7v-0.8h0.3v-0.1h-0.8V37h0.3v0.8L73,37.7L73,37.7z M74.5,37.7v-0.8h-0.3l-0.3,0.6l-0.3-0.6h-0.2v0.9
			h0.2V37l0.3,0.6H74l0.3-0.6v0.8L74.5,37.7L74.5,37.7z M75.2,23.5c0,8.7-5.1,16.8-13,20.6S45,47,38.1,41.6c5.4-4.3,8.7-11,8.7-18
			s-3.3-13.7-8.7-18c6.8-5.4,16.3-6.4,24.2-2.5S75.2,14.8,75.2,23.5L75.2,23.5z"/>
	</g>
</g>
</svg>
