<svg xmlns="http://www.w3.org/2000/svg" xmlns:xlink="http://www.w3.org/1999/xlink" width="127" height="31" viewBox="0 0 127 31">
  <defs>
    <polygon id="pp_h_pms-a" points=".019 .257 126.892 .257 126.892 31 .019 31"/>
  </defs>
  <g fill="none" fill-rule="evenodd">
    <path fill="#238EC2" d="M98.6659685,13.4055755 C98.2814474,15.8608873 96.3525179,15.8608873 94.4868319,15.8608873 L93.4252882,15.8608873 L94.1699815,11.2767369 C94.2148844,10.9997573 94.4605858,10.7956347 94.7492928,10.7956347 L95.2359522,10.7956347 C96.5055673,10.7956347 97.7052983,10.7956347 98.3238206,11.4989969 C98.6937956,11.919846 98.8057368,12.543588 98.6659685,13.4055755 Z M97.8539207,7 L90.8177549,7 C90.3367873,7 89.9272851,7.34030677 89.8523414,7.80234929 L87.0073284,25.3412128 C86.9510416,25.687053 87.2261512,26 87.5866397,26 L91.196584,26 C91.5333561,26 91.8201658,25.7617545 91.8723418,25.4383555 L92.67933,20.4662492 C92.7542737,20.0042067 93.1637759,19.6638999 93.6447434,19.6638999 L95.8712341,19.6638999 C100.505725,19.6638999 103.180296,17.4834158 103.879454,13.162104 C104.194091,11.2721257 103.892103,9.78701097 102.981711,8.74733845 C101.981198,7.60437498 100.207847,7 97.8539207,7 Z"/>
    <path fill="#253667" d="M48.6657277 13.4055755C48.2812121 15.8608873 46.3523098 15.8608873 44.4869664 15.8608873L43.4254377 15.8608873 44.1698043 11.2767369C44.2150228 10.9997573 44.4607207 10.7956347 44.7491074 10.7956347L45.23576 10.7956347C46.5056733 10.7956347 47.7053873 10.7956347 48.3235847 11.4989969 48.6938707 11.919846 48.8058103 12.543588 48.6657277 13.4055755zM47.8540077 7L40.8179413 7C40.3369806 7 39.9274841 7.34030677 39.8525415 7.80234929L37.0072525 25.3412128C36.9512827 25.687053 37.2263885 26 37.5865556 26L40.9460077 26C41.4269685 26 41.8367811 25.6596932 41.9117237 25.1979581L42.6794901 20.4662492C42.7541165 20.0042067 43.1639292 19.6638999 43.6448899 19.6638999L45.8713491 19.6638999C50.5054578 19.6638999 53.1803077 17.4834158 53.8794557 13.162104 54.1940881 11.2721257 53.8921043 9.78701097 52.9817256 8.74733845 51.9809099 7.60437498 50.2075847 7 47.8540077 7zM63.884317 19.5397075C63.5691651 21.3710663 62.0889617 22.6004952 60.2011129 22.6004952 59.2547383 22.6004952 58.4970261 22.3014856 58.0100567 21.7353526 57.527375 21.1740328 57.3457569 20.3744678 57.4985856 19.4840568 57.7926049 17.6692429 59.2963911 16.4001064 61.1554505 16.4001064 62.0822238 16.4001064 62.8344231 16.7021242 63.3311932 17.273371 63.831026 17.8488291 64.0273452 18.6538088 63.884317 19.5397075zM68.4318153 13.301717L65.1688138 13.301717C64.8891892 13.301717 64.6512173 13.501157 64.607727 13.7727925L64.4640863 14.6689189 64.2359151 14.3440392C63.52935 13.3366114 61.9545092 13 60.3818123 13 56.776707 13 53.6971613 15.6832655 53.0977907 19.4467558 52.7857015 21.3241392 53.228568 23.118197 54.3124579 24.3704878 55.3081419 25.5211033 56.7292352 26 58.4222962 26 61.3281868 26 62.9397801 24.1665355 62.9397801 24.1665355L62.7939955 25.0572473C62.7394794 25.3959645 63.0059344 25.7024944 63.3550823 25.7024944L66.2937438 25.7024944C66.7595806 25.7024944 67.1562004 25.3697936 67.2287864 24.9176694L68.9929021 13.9463625C69.0474182 13.6076453 68.7809632 13.301717 68.4318153 13.301717z"/>
    <path fill="#238EC2" d="M113.884268,19.5397075 C113.569113,21.3710663 112.089202,22.6004952 110.201335,22.6004952 C109.254645,22.6004952 108.497232,22.3014856 108.009952,21.7353526 C107.527266,21.1740328 107.345646,20.3744678 107.498782,19.4840568 C107.792498,17.6692429 109.296299,16.4001064 111.155682,16.4001064 C112.082158,16.4001064 112.834671,16.7021242 113.331139,17.273371 C113.830977,17.8488291 114.027298,18.6538088 113.884268,19.5397075 Z M118.43181,13.301717 L115.168777,13.301717 C114.88915,13.301717 114.651176,13.501157 114.607685,13.7727925 L114.464043,14.6689189 L114.236176,14.3440392 C113.529298,13.3366114 111.954442,13 110.38173,13 C106.776897,13 103.697015,15.6832655 103.097639,19.4467558 C102.785853,21.3241392 103.228724,23.118197 104.312318,24.3704878 C105.308318,25.5211033 106.729118,26 108.422195,26 C111.328114,26 112.939722,24.1665355 112.939722,24.1665355 L112.794243,25.0572473 C112.73942,25.3959645 113.005877,25.7024944 113.355335,25.7024944 L116.293718,25.7024944 C116.759559,25.7024944 117.156183,25.3697936 117.229076,24.9176694 L118.992902,13.9463625 C119.047419,13.6076453 118.780961,13.301717 118.43181,13.301717 Z"/>
    <mask id="pp_h_pms-b" fill="#fff">
      <use xlink:href="#pp_h_pms-a"/>
    </mask>
    <path fill="#253667" d="M86.6045926,13.5767475 L83.2464617,13.5767475 C82.9253556,13.5767475 82.6249457,13.7358182 82.444637,14.0010404 L77.8124296,20.8138384 L75.8491037,14.267202 C75.7264938,13.8576263 75.3489432,13.5767475 74.9205926,13.5767475 L71.6195333,13.5767475 C71.2209728,13.5767475 70.9403185,13.9681616 71.0688864,14.3448586 L74.7666247,25.1829596 L71.2887062,30.0834646 C71.0155778,30.4679899 71.2912148,31 71.7631531,31 L75.1181481,31 C75.4361185,31 75.7337062,30.8443737 75.9149556,30.5832222 L87.0828025,14.4885859 C87.3499728,14.1034343 87.0740222,13.5767475 86.6045926,13.5767475" mask="url(#pp_h_pms-b)"/>
    <path fill="#238EC2" d="M122.512353 7.62255556L119.648738 25.8142323C119.593235 26.1668182 119.866049 26.4852727 120.223217 26.4852727L123.103452 26.4852727C123.580407 26.4852727 123.986494 26.1386364 124.060812 25.6683131L126.884289 7.80323232C126.940106 7.45064646 126.667291 7.13187879 126.30981 7.13187879L123.086832 7.13187879C122.800533 7.13187879 122.556881 7.34011111 122.512353 7.62255556M23.5125605 8.06751515C23.8882296 5.67613131 23.5100519 4.04878788 22.2146519 2.57487879 20.7884889.952232323 18.2121136.257080808 14.915758.257080808L5.34685679.257080808C4.67328642.257080808 4.09974815.746505051 3.99469877 1.4109697L.0103481481 26.640899C-.0683604938 27.1387778.31702963 27.5887475.821580247 27.5887475L6.72880494 27.5887475 6.32115062 30.1705152C6.25247654 30.6060808 6.58926173 31 7.03078272 31L12.0098099 31C12.5993407 31 13.1010691 30.5716364 13.1929481 29.9904646L13.2418667 29.7377677 14.1797852 23.7982929 14.2403062 23.4701313C14.3321852 22.8886465 14.8339136 22.460596 15.4231309 22.460596L16.167884 22.460596C20.9916889 22.460596 24.768763 20.5035253 25.8722519 14.8439899 26.3335284 12.4792222 26.0952074 10.5052424 24.8756938 9.11744444 24.5066099 8.69784848 24.047842 8.35058586 23.5125605 8.06751515" mask="url(#pp_h_pms-b)"/>
    <path fill="#20274F" d="M23.5125605,8.06751515 C23.8882296,5.67613131 23.5100519,4.04878788 22.2146519,2.57487879 C20.7884889,0.952232323 18.2121136,0.257080808 14.915758,0.257080808 L5.34685679,0.257080808 C4.67328642,0.257080808 4.09974815,0.746505051 3.99469877,1.4109697 L0.0103481481,26.640899 C-0.0683604938,27.1387778 0.31702963,27.5887475 0.821580247,27.5887475 L6.72880494,27.5887475 L8.21266667,18.1929293 L8.16657037,18.4875859 C8.27161975,17.8231212 8.84045432,17.3333838 9.51402469,17.3333838 L12.3218222,17.3333838 C17.8358173,17.3333838 22.1531901,15.0963737 23.4147235,8.62708081 C23.4520395,8.43575758 23.4840247,8.25007071 23.5125605,8.06751515" mask="url(#pp_h_pms-b)"/>
    <path fill="#253667" d="M9.80659506,8.09945455 C9.86993827,7.69958586 10.1267605,7.37236364 10.4726395,7.20671717 C10.6300568,7.13156566 10.8056617,7.08960606 10.9897333,7.08960606 L18.4902593,7.08960606 C19.3789457,7.08960606 20.2074247,7.14784848 20.964721,7.26965657 C21.1814049,7.30441414 21.3918173,7.34449495 21.5965852,7.38989899 C21.8010395,7.4349899 21.9998494,7.48571717 22.1920741,7.54208081 C22.2883432,7.56994949 22.3827309,7.59938384 22.4758642,7.63038384 C22.8477704,7.75344444 23.193963,7.89905051 23.5125605,8.06751515 C23.8882296,5.67613131 23.5100519,4.04878788 22.2146519,2.57487879 C20.7884889,0.952232323 18.2121136,0.257080808 14.915758,0.257080808 L5.34685679,0.257080808 C4.67328642,0.257080808 4.09974815,0.746505051 3.99469877,1.4109697 L0.0103481481,26.640899 C-0.0683604938,27.1387778 0.31702963,27.5887475 0.821580247,27.5887475 L6.72880494,27.5887475 L9.80659506,8.09945455" mask="url(#pp_h_pms-b)"/>
  </g>
</svg>
