<?xml version="1.0" encoding="utf-8"?>
<!-- Generator: Adobe Illustrator 24.1.3, SVG Export Plug-In . SVG Version: 6.00 Build 0)  -->
<svg version="1.1" id="Layer_1" xmlns="http://www.w3.org/2000/svg" xmlns:xlink="http://www.w3.org/1999/xlink" x="0px" y="0px"
	 viewBox="0 0 86 26" style="enable-background:new 0 0 86 26;" xml:space="preserve">
<style type="text/css">
	.st0{fill-rule:evenodd;clip-rule:evenodd;fill:#FFFFFF;}
</style>
<g>
	<polyline class="st0" points="31,26 35.2,1 42,1 37.8,26 31,26 	"/>
	<path class="st0" d="M62,1.1C60.7,0.5,58.6,0,56,0c-6.6,0-11.2,3.4-11.3,8.3c0,3.6,3.3,5.6,5.8,6.8c2.6,1.2,3.5,2,3.5,3.1
		c0,1.7-2.1,2.5-4,2.5c-2.7,0-4.1-0.4-6.3-1.3L42.9,19L42,24.7c1.6,0.7,4.4,1.3,7.4,1.3c7,0,11.6-3.4,11.6-8.6c0-2.9-1.8-5-5.6-6.8
		c-2.3-1.2-3.8-1.9-3.7-3.1c0-1,1.2-2.2,3.8-2.2c2.2,0,3.8,0.5,5,1l0.6,0.3L62,1.1 M80.6,1h-5.2c-1.6,0-2.8,0.4-3.5,2.1L62,26h7
		c0,0,1.1-3.1,1.4-3.8c0.8,0,7.6,0,8.6,0c0.2,0.9,0.8,3.7,0.8,3.7H86L80.6,1 M72.3,17.1c0.6-1.4,2.7-7,2.7-7c0,0.1,0.5-1.4,0.9-2.4
		l0.5,2.2c0,0,1.3,6,1.5,7.2H72.3 M24.8,1l-6.7,17.1l-0.7-3.5c-1.2-4-5.1-8.3-9.4-10.5L14.1,26l7.2,0L32,1H24.8"/>
	<path class="st0" d="M11.4,1H0.1L0,1.5c8.8,2,14.6,6.8,17,12.5L14.5,3C14.1,1.5,12.9,1.1,11.4,1"/>
</g>
</svg>
