<?xml version="1.0" encoding="utf-8"?>
<!-- Generator: Adobe Illustrator 26.3.1, SVG Export Plug-In . SVG Version: 6.00 Build 0)  -->
<svg version="1.1" id="Layer_1" xmlns="http://www.w3.org/2000/svg" xmlns:xlink="http://www.w3.org/1999/xlink" x="0px" y="0px"
	 viewBox="0 0 172.7 172.7" style="enable-background:new 0 0 172.7 172.7;" xml:space="preserve">
<style type="text/css">
	.st0{fill:#FFFFFF;}
	.st1{fill:none;stroke:#111111;stroke-width:3.2;stroke-miterlimit:10;}
	.st2{fill:#111111;}
	.st3{fill:none;stroke:#111111;stroke-width:1.6;stroke-linecap:round;stroke-miterlimit:10;}
</style>
<g>
	<path class="st0" d="M10.5,163.2H7.1l-0.7,2.9H3l3.5-16.4h4.6l3.6,16.4h-3.6L10.5,163.2z M8.8,154.1l-1,5.9h2.1L8.8,154.1z"/>
	<path class="st0" d="M15.1,161.8V154c0-2.7,2.1-4.7,5.4-4.7s5.4,1.9,5.4,4.7v2.1h-3.6V154c0-0.8-0.6-1.4-1.8-1.4
		c-1.2,0-1.8,0.6-1.8,1.4v7.8c0,0.8,0.6,1.4,1.8,1.4s1.8-0.6,1.8-1.4v-2.1H26v2.1c0,2.7-2.1,4.7-5.4,4.7
		C17.3,166.4,15.1,164.5,15.1,161.8z"/>
	<path class="st0" d="M27.1,161.8V154c0-2.7,2.1-4.7,5.4-4.7s5.4,1.9,5.4,4.7v2.1h-3.6V154c0-0.8-0.6-1.4-1.8-1.4
		c-1.2,0-1.8,0.6-1.8,1.4v7.8c0,0.8,0.6,1.4,1.8,1.4s1.8-0.6,1.8-1.4v-2.1h3.6v2.1c0,2.7-2.1,4.7-5.4,4.7
		C29.2,166.4,27.1,164.5,27.1,161.8z"/>
	<path class="st0" d="M39,161.8V154c0-2.7,2.1-4.7,5.4-4.7c3.3,0,5.4,1.9,5.4,4.7v7.8c0,2.7-2.1,4.7-5.4,4.7
		C41.1,166.4,39,164.5,39,161.8z M46.3,161.8V154c0-0.8-0.6-1.4-1.8-1.4c-1.3,0-1.9,0.6-1.9,1.4v7.8c0,0.8,0.6,1.4,1.9,1.4
		C45.7,163.2,46.3,162.6,46.3,161.8z"/>
	<path class="st0" d="M51,161.8v-12.1h3.6v12.1c0,0.8,0.5,1.4,1.7,1.4c1.2,0,1.7-0.6,1.7-1.4v-12.1h3.6v12.1c0,2.7-2.1,4.7-5.2,4.7
		C53.1,166.4,51,164.5,51,161.8z"/>
	<path class="st0" d="M73.3,149.7v16.4h-3.1l-4.3-9.3v9.3h-3.1v-16.4h3.1l4.3,9.4v-9.4H73.3z"/>
	<path class="st0" d="M84.2,152.9h-3.4v13.2h-3.6v-13.2h-3.4v-3.2h10.4V152.9z"/>
	<path class="st0" d="M88.9,161.8V154c0-2.7,2.1-4.7,5.4-4.7c3.3,0,5.4,1.9,5.4,4.7v2.1h-3.6V154c0-0.8-0.6-1.4-1.8-1.4
		c-1.2,0-1.8,0.6-1.8,1.4v7.8c0,0.8,0.6,1.4,1.8,1.4c1.2,0,1.8-0.6,1.8-1.4v-2.1h3.6v2.1c0,2.7-2.1,4.7-5.4,4.7
		S88.9,164.5,88.9,161.8z"/>
	<path class="st0" d="M100.9,161.8V154c0-2.7,2.1-4.7,5.4-4.7c3.3,0,5.4,1.9,5.4,4.7v7.8c0,2.7-2.1,4.7-5.4,4.7
		C103,166.4,100.9,164.5,100.9,161.8z M108.2,161.8V154c0-0.8-0.6-1.4-1.8-1.4c-1.3,0-1.9,0.6-1.9,1.4v7.8c0,0.8,0.6,1.4,1.9,1.4
		C107.6,163.2,108.2,162.6,108.2,161.8z"/>
	<path class="st0" d="M112.9,161.8V154c0-2.7,2.1-4.7,5.4-4.7c3.3,0,5.4,1.9,5.4,4.7v7.8c0,2.7-2.1,4.7-5.4,4.7
		C115,166.4,112.9,164.5,112.9,161.8z M120.2,161.8V154c0-0.8-0.6-1.4-1.8-1.4c-1.3,0-1.9,0.6-1.9,1.4v7.8c0,0.8,0.6,1.4,1.9,1.4
		C119.6,163.2,120.2,162.6,120.2,161.8z"/>
	<path class="st0" d="M133.5,162.8v3.2H125v-16.4h3.6v13.2H133.5z"/>
	<path class="st0" d="M132.7,158.2h5.4v3h-5.4V158.2z"/>
	<path class="st0" d="M139.3,161.8V154c0-2.7,2.1-4.7,5.4-4.7c3.3,0,5.4,1.9,5.4,4.7v7.8c0,2.7-2.1,4.7-5.4,4.7
		C141.4,166.4,139.3,164.5,139.3,161.8z M146.6,161.8V154c0-0.8-0.6-1.4-1.8-1.4c-1.3,0-1.9,0.6-1.9,1.4v7.8c0,0.8,0.6,1.4,1.9,1.4
		C146,163.2,146.6,162.6,146.6,161.8z"/>
	<path class="st0" d="M155,152.9v4.2h4.2v3.2H155v5.8h-3.6v-16.4h8.5v3.2H155z"/>
	<path class="st0" d="M164.4,152.9v4.2h4.2v3.2h-4.2v5.8h-3.6v-16.4h8.5v3.2H164.4z"/>
</g>
<polygon class="st0" points="86,8.2 25.3,113.7 147.4,113.7 "/>
<path class="st1" d="M80,84c-0.8,0.6-1.5,1.3-2.1,2.1c-1.7,2.2-2.3,4.9-2,7.7c0.4,2.7,1.8,5.2,4,6.8c1.8,1.3,3.9,2.1,6.2,2.1
	c1.6,0,3.2-0.4,4.6-1.1c1.5-0.7,2.7-1.8,3.7-3.1c1.7-2.2,2.3-4.9,2-7.7c-0.4-2.7-1.8-5.2-4-6.8c0,0,0,0,0,0l0-42
	c0-1.7-0.6-3.2-1.8-4.4c-1.2-1.2-2.7-1.8-4.4-1.8c-3.4,0-6.2,2.8-6.2,6.2L80,84z"/>
<circle class="st2" cx="86.2" cy="92.3" r="3.1"/>
<line class="st3" x1="86.2" y1="90.2" x2="86.2" y2="59.6"/>
</svg>
