<?xml version="1.0" encoding="utf-8"?>
<!-- Generator: Adobe Illustrator 26.3.1, SVG Export Plug-In . SVG Version: 6.00 Build 0)  -->
<svg version="1.1" id="Layer_1" xmlns="http://www.w3.org/2000/svg" xmlns:xlink="http://www.w3.org/1999/xlink" x="0px" y="0px"
	 viewBox="0 0 172.7 172.7" style="enable-background:new 0 0 172.7 172.7;" xml:space="preserve">
<style type="text/css">
	.st0{fill:#FFFFFF;}
	.st1{fill:none;stroke:#111111;stroke-width:3;stroke-linecap:round;stroke-linejoin:round;stroke-miterlimit:10;}
</style>
<polygon class="st0" points="108.8,10.7 62.4,10.7 29.5,43.5 29.5,89.9 62.4,122.8 108.8,122.8 141.7,89.9 141.7,43.5 "/>
<g>
	<g>
		<path class="st1" d="M69.9,71.7C69.9,71.7,69.9,71.7,69.9,71.7l-4.5-3.6c-0.9-0.7-1.9-1.1-3-1.1h0c-1.3,0-2.5,0.5-3.4,1.4
			c-0.9,0.9-1.4,2.1-1.4,3.4c0,1.1,0.4,2.3,1.2,3.1l11.5,13.4c0.7,0.8,1.5,1.6,2.3,2.2c0.8,0.6,1.8,1.2,2.7,1.6c1,0.4,2,0.8,3,1
			c1,0.2,2.1,0.3,3.2,0.3h7.3c1.9,0,3.8-0.4,5.5-1.1c1.7-0.7,3.2-1.7,4.5-3c1.3-1.3,2.3-2.8,3-4.5c0.7-1.7,1.1-3.6,1.1-5.5V50.4
			c0-2.1-1.7-3.9-3.9-3.9c-2.1,0-3.9,1.7-3.9,3.9v13.4c0,0,0,0,0,0V44.1c0-2.1-1.8-3.9-4-3.9c-2.1,0-3.9,1.7-3.9,3.9v19.7
			c0,0,0,0,0,0V40.9c0-2.1-1.8-3.9-4-3.9c-2.1,0-3.9,1.7-3.9,3.9v22.8c0,0,0,0,0,0V47.2c0-2.1-1.8-3.9-4-3.9s-3.9,1.7-3.9,3.9
			c0,0,0,24.4,0,24.4C71.5,71.7,69.9,71.7,69.9,71.7z"/>
	</g>
</g>
<g>
	<path class="st0" d="M37.4,154v7.7c0,2.5-1.9,4.3-4.6,4.3h-4.6v-16.4h4.6C35.5,149.7,37.4,151.5,37.4,154z M33.8,153.8
		c0-0.6-0.3-0.9-0.8-0.9h-1.3v9.9h1.2c0.5,0,0.8-0.4,0.8-0.9V153.8z"/>
	<path class="st0" d="M42,152.9v3.6h2.7v3.2H42v3.1h3.6v3.2h-7.2v-16.4h7.2v3.2H42z"/>
	<path class="st0" d="M55.7,154v2.4c0,2.5-1.9,4.3-4.6,4.3h-1v5.3h-3.6v-16.4h4.6C53.7,149.7,55.7,151.5,55.7,154z M52.1,153.8
		c0-0.6-0.3-0.9-0.8-0.9H50v4.6h1.2c0.5,0,0.8-0.4,0.8-0.9V153.8z"/>
	<path class="st0" d="M56.3,162.1v-8.4c0-2.5,1.9-4.3,4.7-4.3c2.8,0,4.7,1.8,4.7,4.3v8.4c0,2.5-1.9,4.3-4.7,4.3
		C58.3,166.4,56.3,164.6,56.3,162.1z M62.2,162.2v-8.8c0-0.6-0.3-0.9-1.1-0.9c-0.8,0-1.1,0.4-1.1,0.9v8.8c0,0.6,0.3,0.9,1.1,0.9
		C61.9,163.2,62.2,162.8,62.2,162.2z"/>
	<path class="st0" d="M66.6,161.3v-0.7h3.6v1.2c0,1.1,0.6,1.5,1.2,1.5c0.6,0,1.1-0.5,1.1-1.4c0-2.9-5.6-2.8-5.6-7.8
		c0-2.9,1.8-4.7,4.5-4.7c2.7,0,4.5,1.7,4.5,4.4v1.2h-3.6v-1.5c0-0.6-0.4-0.8-0.9-0.8c-0.5,0-0.9,0.4-0.9,1.2c0,2.3,5.6,2.3,5.6,7.6
		c0,3-1.8,5-4.8,5C68.5,166.4,66.6,164.4,66.6,161.3z"/>
	<path class="st0" d="M77.2,149.7h3.6V166h-3.6V149.7z"/>
	<path class="st0" d="M90.4,152.9h-2.8V166H84v-13.1h-2.8v-3.2h9.2V152.9z"/>
	<path class="st0" d="M101.8,162.8v3.2h-7.2v-16.4h3.6v13.1H101.8z"/>
	<path class="st0" d="M102.4,149.7h3.6V166h-3.6V149.7z"/>
	<path class="st0" d="M119.3,166h-3v-10.4l-1.9,10.4h-2.6l-1.9-10.4V166h-3v-16.4h4.1l2,9.1l2-9.1h4.1V166z"/>
	<path class="st0" d="M120.4,149.7h3.6V166h-3.6V149.7z"/>
	<path class="st0" d="M133.7,152.9h-2.8V166h-3.6v-13.1h-2.8v-3.2h9.2V152.9z"/>
	<path class="st0" d="M134,161.3v-0.7h3.6v1.2c0,1.1,0.6,1.5,1.2,1.5c0.6,0,1.1-0.5,1.1-1.4c0-2.9-5.6-2.8-5.6-7.8
		c0-2.9,1.8-4.7,4.5-4.7c2.7,0,4.5,1.7,4.5,4.4v1.2h-3.6v-1.5c0-0.6-0.4-0.8-0.9-0.8c-0.5,0-0.9,0.4-0.9,1.2c0,2.3,5.6,2.3,5.6,7.6
		c0,3-1.8,5-4.7,5C135.9,166.4,134,164.4,134,161.3z"/>
</g>
</svg>
