<?xml version="1.0" encoding="utf-8"?>
<!-- Generator: Adobe Illustrator 26.3.1, SVG Export Plug-In . SVG Version: 6.00 Build 0)  -->
<svg version="1.1" id="Layer_1" xmlns="http://www.w3.org/2000/svg" xmlns:xlink="http://www.w3.org/1999/xlink" x="0px" y="0px"
	 viewBox="0 0 172.7 172.7" style="enable-background:new 0 0 172.7 172.7;" xml:space="preserve">
<style type="text/css">
	.st0{fill:none;}
	.st1{fill:#FFFFFF;}
	.st2{fill:#FFFFFF;stroke:#000000;stroke-width:3;stroke-miterlimit:10;}
	.st3{fill:#111111;}
</style>
<rect x="-13.6" y="-13.6" class="st0" width="200" height="200"/>
<g>
	<circle class="st1" cx="86.2" cy="58.7" r="55.2"/>
</g>
<g>
	<path class="st1" d="M26.4,159.6h-1.7v5.9h-3.6v-16.4h5.4c2.9,0,4.9,1.8,4.9,4.5v1.5c0,1.5-0.6,2.7-1.6,3.5l2.1,6.9h-3.7
		L26.4,159.6z M24.7,156.4h2.1c0.7,0,1.1-0.4,1.1-1.1v-1.8c0-0.7-0.4-1.1-1.1-1.1h-2.1V156.4z"/>
	<path class="st1" d="M36.5,152.3v3.6h4v3.2h-4v3.1h4.9v3.2H33v-16.4h8.5v3.2H36.5z"/>
	<path class="st1" d="M49.3,162.6H46l-0.7,2.9h-3.5l3.5-16.4H50l3.6,16.4H50L49.3,162.6z M47.7,153.5l-1,5.9h2.1L47.7,153.5z"/>
	<path class="st1" d="M62.8,162.3v3.2h-8.5v-16.4h3.6v13.1H62.8z"/>
	<path class="st1" d="M63.6,149.1h3.6v16.4h-3.6V149.1z"/>
	<path class="st1" d="M78.1,152.3h-3.4v13.1h-3.6v-13.1h-3.4v-3.2h10.4V152.3z"/>
	<path class="st1" d="M85.9,160.1v5.4h-3.6v-5.4l-4.2-11H82l2.2,6.5l2.2-6.5h3.8L85.9,160.1z"/>
	<path class="st1" d="M95,161.2v-7.7c0-2.7,2.1-4.7,5.4-4.7c3.3,0,5.4,1.9,5.4,4.7v2.1h-3.6v-2.1c0-0.8-0.6-1.4-1.8-1.4
		c-1.2,0-1.8,0.6-1.8,1.4v7.8c0,0.8,0.6,1.4,1.8,1.4c1.2,0,1.8-0.6,1.8-1.4v-2.1h3.6v2.1c0,2.7-2.1,4.7-5.4,4.7S95,163.9,95,161.2z"
		/>
	<path class="st1" d="M117.9,149.1v16.4h-3.6v-6.3h-3.7v6.3h-3.6v-16.4h3.6v6.8h3.7v-6.8H117.9z"/>
	<path class="st1" d="M123,152.3v3.6h4v3.2h-4v3.1h4.9v3.2h-8.5v-16.4h8.5v3.2H123z"/>
	<path class="st1" d="M128.7,161.2v-7.7c0-2.7,2.1-4.7,5.4-4.7c3.3,0,5.4,1.9,5.4,4.7v2.1h-3.6v-2.1c0-0.8-0.6-1.4-1.8-1.4
		c-1.2,0-1.8,0.6-1.8,1.4v7.8c0,0.8,0.6,1.4,1.8,1.4c1.2,0,1.8-0.6,1.8-1.4v-2.1h3.6v2.1c0,2.7-2.1,4.7-5.4,4.7
		C130.8,165.8,128.7,163.9,128.7,161.2z"/>
	<path class="st1" d="M148,165.5l-3.7-7.7v7.7h-3.6v-16.4h3.6v7.3l3.4-7.3h4l-3.6,7.9l3.9,8.4H148z"/>
</g>
<path class="st2" d="M42.2,57.5c14,18.9,28.9,28.4,44.2,28c22.7-0.5,40-22.5,43.9-28c-14-18.6-28.9-27.9-44.2-27.5
	C63.4,30.5,46.1,52.1,42.2,57.5z"/>
<path class="st3" d="M86,75.2c-9.6,0-17.4-7.8-17.4-17.4S76.3,40.3,86,40.3s17.4,7.8,17.4,17.4C103.4,67.4,95.6,75.2,86,75.2z"/>
</svg>
