<?xml version="1.0" encoding="utf-8"?>
<!-- Generator: Adobe Illustrator 26.3.1, SVG Export Plug-In . SVG Version: 6.00 Build 0)  -->
<svg version="1.1" id="Layer_1" xmlns="http://www.w3.org/2000/svg" xmlns:xlink="http://www.w3.org/1999/xlink" x="0px" y="0px"
	 viewBox="0 0 172.7 172.7" style="enable-background:new 0 0 172.7 172.7;" xml:space="preserve">
<style type="text/css">
	.st0{fill:#FFFFFF;}
	.st1{fill:none;stroke:#000000;stroke-width:3;stroke-miterlimit:10;}
	.st2{fill:#111111;}
</style>
<rect x="31.3" y="3.2" class="st0" width="110.2" height="110.2"/>
<path class="st1" d="M99.1,61.4h3.7c6.6,0,11.9,5.3,11.9,11.9V77c0,6.6-5.3,11.9-11.9,11.9h-3.7c-6.6,0-11.9-5.3-11.9-11.9v-3.7
	C87.2,66.8,92.6,61.4,99.1,61.4z"/>
<path class="st1" d="M64.7,61.4h3.7c6.6,0,11.9,5.3,11.9,11.9V77c0,6.6-5.3,11.9-11.9,11.9h-3.7c-6.6,0-11.9-5.3-11.9-11.9v-3.7
	C52.8,66.8,58.2,61.4,64.7,61.4z"/>
<path class="st1" d="M64.7,28.7h3.7c6.6,0,11.9,5.3,11.9,11.9v3.7c0,6.6-5.3,11.9-11.9,11.9h-3.7c-6.6,0-11.9-5.3-11.9-11.9v-3.7
	C52.8,34.1,58.2,28.7,64.7,28.7z"/>
<path class="st2" d="M104.3,19.6h3.7c6.6,0,11.9,5.3,11.9,11.9v3.7c0,6.6-5.3,11.9-11.9,11.9h-3.7c-6.6,0-11.9-5.3-11.9-11.9v-3.7
	C92.4,24.9,97.7,19.6,104.3,19.6z"/>
<g>
	<g>
		<path class="st0" d="M18,161.5v-0.6h3.6v1c0,1.2,0.9,1.7,1.9,1.7c0.8,0,1.7-0.5,1.7-1.6c0-2.9-6.9-2.2-6.9-7.5
			c0-2.8,1.8-4.8,5.1-4.8s5.1,1.8,5.1,4.6v1H25V154c0-0.7-0.7-1.1-1.5-1.1s-1.5,0.4-1.5,1.4c0,2.4,6.9,1.8,6.9,7.4
			c0,3-2,5.1-5.3,5.1C20.1,166.7,18,164.6,18,161.5z"/>
		<path class="st0" d="M33.6,153.2v3.6h4v3.2h-4v3.1h4.9v3.2H30V150h8.5v3.2H33.6z"/>
		<path class="st0" d="M48,163.1v3.2h-8.5V150H43v13.2L48,163.1L48,163.1z"/>
		<path class="st0" d="M52.3,153.2v4.2h4.2v3.2h-4.2v5.8h-3.6V150h8.5v3.2H52.3z"/>
		<path class="st0" d="M65.9,153.2v3.6h4v3.2h-4v3.1h4.9v3.2h-8.5V150h8.5v3.2H65.9z"/>
		<path class="st0" d="M79.4,158.3l4.1,8h-4l-2.3-4.4l-2.1,4.4h-3.8l3.9-8.3l-4.1-8.1h4l2.4,4.6l2.3-4.6h3.9L79.4,158.3z"/>
		<path class="st0" d="M83.8,162v-7.8c0-2.7,2.1-4.7,5.4-4.7s5.4,1.9,5.4,4.7v2.1H91v-2.1c0-0.8-0.6-1.4-1.8-1.4
			c-1.2,0-1.8,0.6-1.8,1.4v7.8c0,0.8,0.6,1.4,1.8,1.4c1.2,0,1.8-0.6,1.8-1.4v-2h3.6v2.1c0,2.7-2.1,4.7-5.4,4.7
			C85.9,166.7,83.8,164.8,83.8,162z"/>
		<path class="st0" d="M104.4,163.1v3.2h-8.5V150h3.6v13.2L104.4,163.1L104.4,163.1z"/>
		<path class="st0" d="M105,162v-12h3.6v12.1c0,0.8,0.5,1.4,1.7,1.4s1.7-0.6,1.7-1.4V150h3.6v12c0,2.7-2.1,4.7-5.2,4.7
			C107.1,166.7,105,164.8,105,162z"/>
		<path class="st0" d="M116.5,161.5v-0.6h3.6v1c0,1.2,0.9,1.7,1.9,1.7c0.8,0,1.7-0.5,1.7-1.6c0-2.9-6.9-2.2-6.9-7.5
			c0-2.8,1.8-4.8,5.1-4.8c3.3,0,5.1,1.8,5.1,4.6v1h-3.6V154c0-0.7-0.7-1.1-1.5-1.1s-1.5,0.4-1.5,1.4c0,2.4,6.9,1.8,6.9,7.4
			c0,3-2,5.1-5.3,5.1S116.5,164.6,116.5,161.5z"/>
		<path class="st0" d="M128.5,150h3.6v16.4h-3.6V150z"/>
		<path class="st0" d="M133.3,162v-7.8c0-2.7,2.1-4.7,5.4-4.7c3.3,0,5.4,1.9,5.4,4.7v7.8c0,2.7-2.1,4.7-5.4,4.7
			C135.4,166.7,133.3,164.8,133.3,162z M140.6,162.1v-7.8c0-0.8-0.6-1.4-1.8-1.4c-1.3,0-1.9,0.6-1.9,1.4v7.8c0,0.8,0.6,1.4,1.9,1.4
			C140,163.5,140.6,162.9,140.6,162.1z"/>
		<path class="st0" d="M156,150v16.4h-3.1l-4.3-9.3v9.3h-3.1V150h3.1l4.3,9.4V150H156z"/>
	</g>
</g>
</svg>
