<?xml version="1.0" encoding="utf-8"?>
<!-- Generator: Adobe Illustrator 26.3.1, SVG Export Plug-In . SVG Version: 6.00 Build 0)  -->
<svg version="1.1" id="Layer_1" xmlns="http://www.w3.org/2000/svg" xmlns:xlink="http://www.w3.org/1999/xlink" x="0px" y="0px"
	 viewBox="0 0 172.7 172.7" style="enable-background:new 0 0 172.7 172.7;" xml:space="preserve">
<style type="text/css">
	.st0{fill:#FFFFFF;}
	.st1{fill:#111111;}
	.st2{fill:none;stroke:#000000;stroke-width:3;stroke-linecap:round;stroke-linejoin:round;stroke-miterlimit:10;}
</style>
<g>
	<rect x="15.4" y="3.3" class="st0" width="143.6" height="110.6"/>
</g>
<path class="st1" d="M95,65.1V36.8c0-1.1-0.9-2-2-2H64.1V20.9c0-0.8-0.4-1.5-1.1-1.8c-0.7-0.3-1.5-0.2-2.1,0.3l-36,30
	c-0.5,0.4-0.7,0.9-0.7,1.5c0,0.6,0.3,1.2,0.7,1.5l36,30c0.4,0.3,0.8,0.5,1.3,0.5c0.3,0,0.6-0.1,0.8-0.2c0.7-0.3,1.1-1,1.1-1.8V67.1
	H93C94.1,67.1,95,66.2,95,65.1z"/>
<path class="st2" d="M105.1,52.6l2.7,0l0-13.1c0-0.7,0.4-1.4,1.1-1.7c0.7-0.3,1.4-0.2,2,0.3L145,66.5c0.4,0.4,0.7,0.9,0.7,1.5
	c0,0.6-0.2,1.1-0.7,1.5l-34.1,28.4c-0.3,0.3-0.8,0.4-1.2,0.4c-0.3,0-0.5-0.1-0.8-0.2c-0.7-0.3-1.1-1-1.1-1.7l0-13.1l-27.4,0
	c-1,0-1.9-0.8-1.9-1.9l0-5.5"/>
<g>
	<g>
		<path class="st0" d="M18.5,153.6h-3.4v13.2h-3.6v-13.2H8.1v-3.2h10.4V153.6z"/>
		<path class="st0" d="M24.4,160.8h-1.7v5.9h-3.6v-16.4h5.4c2.9,0,4.9,1.8,4.9,4.5v1.5c0,1.5-0.6,2.7-1.6,3.5l2.1,6.9h-3.7
			L24.4,160.8z M22.7,157.6h2.1c0.7,0,1.1-0.4,1.1-1.1v-1.8c0-0.7-0.4-1.1-1.1-1.1h-2.1V157.6z"/>
		<path class="st0" d="M37.9,163.8h-3.3l-0.7,2.9h-3.5l3.5-16.4h4.6l3.6,16.4h-3.6L37.9,163.8z M36.2,154.7l-1,5.9h2.1L36.2,154.7z"
			/>
		<path class="st0" d="M53.4,150.3v16.4h-3.1l-4.3-9.3v9.3h-3.1v-16.4H46l4.3,9.4v-9.4H53.4z"/>
		<path class="st0" d="M54.6,161.9v-0.6h3.6v1c0,1.2,0.9,1.7,1.9,1.7c0.8,0,1.7-0.5,1.7-1.6c0-2.9-6.9-2.2-6.9-7.5
			c0-2.8,1.8-4.8,5.1-4.8c3.3,0,5.1,1.8,5.1,4.6v1h-3.6v-1.2c0-0.7-0.7-1.1-1.5-1.1c-0.8,0-1.5,0.4-1.5,1.4c0,2.4,6.9,1.8,6.9,7.4
			c0,3-2,5.1-5.3,5.1C56.7,167.1,54.6,165,54.6,161.9z"/>
		<path class="st0" d="M73.5,163.8h-3.3l-0.7,2.9H66l3.5-16.4h4.6l3.6,16.4h-3.6L73.5,163.8z M71.8,154.7l-1,5.9h2.1L71.8,154.7z"/>
		<path class="st0" d="M78.1,162.4v-7.8c0-2.7,2.1-4.7,5.4-4.7s5.4,1.9,5.4,4.7v2.1h-3.6v-2.1c0-0.8-0.6-1.4-1.8-1.4
			c-1.2,0-1.8,0.6-1.8,1.4v7.8c0,0.8,0.6,1.4,1.8,1.4s1.8-0.6,1.8-1.4v-2.1h3.6v2.1c0,2.7-2.1,4.7-5.4,4.7
			C80.2,167.1,78.1,165.1,78.1,162.4z"/>
		<path class="st0" d="M99.7,153.6h-3.4v13.2h-3.6v-13.2h-3.4v-3.2h10.4V153.6z"/>
		<path class="st0" d="M100.3,150.3h3.6v16.4h-3.6V150.3z"/>
		<path class="st0" d="M105.1,162.4v-7.8c0-2.7,2.1-4.7,5.4-4.7c3.3,0,5.4,1.9,5.4,4.7v7.8c0,2.7-2.1,4.7-5.4,4.7
			C107.3,167.1,105.1,165.1,105.1,162.4z M112.4,162.4v-7.8c0-0.8-0.6-1.4-1.8-1.4c-1.3,0-1.9,0.6-1.9,1.4v7.8
			c0,0.8,0.6,1.4,1.9,1.4C111.9,163.8,112.4,163.3,112.4,162.4z"/>
		<path class="st0" d="M127.8,150.3v16.4h-3.1l-4.3-9.3v9.3h-3.1v-16.4h3.1l4.3,9.4v-9.4H127.8z"/>
		<path class="st0" d="M141.9,163.5v3.2h-8.5v-16.4h3.6v13.2H141.9z"/>
		<path class="st0" d="M142.5,162.4v-7.8c0-2.7,2.1-4.7,5.4-4.7c3.3,0,5.4,1.9,5.4,4.7v7.8c0,2.7-2.1,4.7-5.4,4.7
			C144.6,167.1,142.5,165.1,142.5,162.4z M149.8,162.4v-7.8c0-0.8-0.6-1.4-1.8-1.4c-1.3,0-1.9,0.6-1.9,1.4v7.8
			c0,0.8,0.6,1.4,1.9,1.4C149.3,163.8,149.8,163.3,149.8,162.4z"/>
		<path class="st0" d="M161.7,156.2v-1.6c0-0.8-0.8-1.4-1.8-1.4s-1.8,0.6-1.8,1.4v7.8c0,0.8,0.8,1.4,1.8,1.4c1.1,0,1.8-0.6,1.8-1.4
			v-1.4h-1.9v-3.2h5.4v4.6c0,2.7-2.1,4.7-5.4,4.7s-5.4-1.9-5.4-4.7v-7.8c0-2.7,2.1-4.7,5.4-4.7c3.3,0,5.4,1.9,5.4,4.7v1.6H161.7z"/>
	</g>
</g>
</svg>
